# https://github.com/mikedh/trimesh
mtllib material.mtl

o geometry0
usemtl material_0
v -10.00000000 -23.90175056 13.51441956
v 10.00000000 -23.90329933 48.51441956
v -10.00000000 -23.90329933 48.51441956
v 10.00000000 -23.90175056 13.51441956
v -10.00000000 -18.90175056 13.51463985
v -10.00000000 -18.90329933 48.51464081
v 10.00000000 -18.90175056 13.51463985
v 10.00000000 -18.90329933 48.51464081
v -10.00000000 -23.90329933 48.51441956
v -10.00000000 -18.90329933 48.51464081
v -10.00000000 -18.90175056 13.51463985
v -10.00000000 -23.90175056 13.51441956
v -10.00000000 -18.90329933 48.51464081
v -10.00000000 -23.90329933 48.51441956
v 10.00000000 -23.90329933 48.51441956
v 10.00000000 -18.90329933 48.51464081
v 10.00000000 -18.90329933 48.51464081
v 10.00000000 -23.90329933 48.51441956
v 10.00000000 -18.90175056 13.51463985
v 10.00000000 -23.90175056 13.51441956
v -10.00000000 -23.90175056 13.51441956
v -10.00000000 -18.90175056 13.51463985
v 10.00000000 -23.90175056 13.51441956
v 10.00000000 -18.90175056 13.51463985
f 1 2 3
f 4 2 1
f 5 6 7
f 6 8 7
f 9 10 11
f 9 11 12
f 13 14 15
f 13 15 16
f 17 18 19
f 18 20 19
f 21 22 23
f 22 24 23

