# https://github.com/mikedh/trimesh
mtllib material.mtl

o geometry0
usemtl material_0
v -5.00000000 -1.33956695 -2.11082006
v -5.00000000 -0.77254248 -2.37764096
v 5.00000000 -1.33956695 -2.11082006
v -5.00000000 -2.50000000 -0.00000000
v 5.00000000 -2.50000000 -0.00000000
v 5.00000000 -2.42145801 0.62172472
v -5.00000000 -1.82242203 -1.71136796
v 5.00000000 -1.82242203 -1.71136796
v 5.00000000 -2.19076705 -1.20438397
v -5.00000000 -2.42145801 0.62172472
v 5.00000000 -2.19076705 1.20438397
v -5.00000000 -2.19076705 -1.20438397
v -5.00000000 -2.42145801 -0.62172472
v 5.00000000 -2.42145801 -0.62172472
v -5.00000000 -2.19076705 1.20438397
v 5.00000000 -1.82242203 1.71136796
v -5.00000000 -1.82242203 1.71136796
v 5.00000000 -1.33956695 2.11082006
v -5.00000000 -1.33956695 2.11082006
v 5.00000000 -0.77254248 2.37764096
v -5.00000000 -0.77254248 2.37764096
v 5.00000000 -0.15697630 2.49506688
v -5.00000000 -0.15697630 2.49506688
v 5.00000000 0.46845329 2.45571804
v -5.00000000 0.46845329 2.45571804
v 5.00000000 1.06444800 2.26206803
v -5.00000000 1.06444800 2.26206803
v -5.00000000 1.59355998 1.92628300
v 5.00000000 1.59355998 1.92628300
v 5.00000000 2.02254200 1.46946299
v -5.00000000 2.02254200 1.46946299
v 5.00000000 2.32444096 0.92031139
v -5.00000000 2.32444096 0.92031139
v 5.00000000 2.48028708 0.31333309
v -5.00000000 2.48028708 0.31333309
v -5.00000000 2.48028708 -0.31333309
v 5.00000000 2.48028708 -0.31333309
v 5.00000000 2.32444096 -0.92031139
v -5.00000000 2.32444096 -0.92031139
v -5.00000000 2.02254200 -1.46946299
v 5.00000000 2.02254200 -1.46946299
v 5.00000000 1.59355998 -1.92628300
v -5.00000000 1.59355998 -1.92628300
v -5.00000000 1.06444800 -2.26206803
v 5.00000000 1.06444800 -2.26206803
v 5.00000000 0.46845329 -2.45571804
v -5.00000000 0.46845329 -2.45571804
v 5.00000000 -0.15697630 -2.49506688
v -5.00000000 -0.15697630 -2.49506688
v 5.00000000 -0.77254248 -2.37764096
v -12.69999981 -0.15069720 -2.39526391
v -12.00000000 0.44971520 -2.35748911
v -12.00000000 -0.15069720 -2.39526391
v -12.69999981 0.44971520 -2.35748911
v -12.69999981 -0.74164081 -2.28253603
v -12.00000000 -0.74164081 -2.28253603
v -12.69999981 -1.28598404 -2.02638698
v -12.00000000 -1.28598404 -2.02638698
v -12.69999981 -2.32459998 0.59685570
v -12.00000000 -2.40000010 -0.00000000
v -12.00000000 -2.32459998 0.59685570
v -12.69999981 -2.40000010 -0.00000000
v -12.69999981 -1.74952495 -1.64291298
v -12.00000000 -1.74952495 -1.64291298
v -12.69999981 -2.10313606 1.15620899
v -12.00000000 -2.10313606 1.15620899
v -12.69999981 -2.10313606 -1.15620899
v -12.00000000 -2.10313606 -1.15620899
v -12.00000000 -2.32459998 -0.59685570
v -12.69999981 -1.74952495 1.64291298
v -12.00000000 -1.74952495 1.64291298
v -12.69999981 -2.32459998 -0.59685570
v -12.69999981 -1.28598404 2.02638698
v -12.00000000 -1.28598404 2.02638698
v -12.69999981 -0.74164081 2.28253603
v -12.00000000 -0.74164081 2.28253603
v -12.69999981 -0.15069720 2.39526391
v -12.00000000 -0.15069720 2.39526391
v -12.69999981 0.44971520 2.35748911
v -12.00000000 0.44971520 2.35748911
v -12.69999981 1.02187002 2.17158508
v -12.00000000 1.02187002 2.17158508
v -12.69999981 1.52981806 1.84923196
v -12.00000000 1.52981806 1.84923196
v -12.69999981 1.94164097 1.41068494
v -12.00000000 1.94164097 1.41068494
v -12.69999981 2.23146391 0.88349891
v -12.00000000 2.23146391 0.88349891
v -12.69999981 2.38107491 0.30079979
v -12.00000000 2.38107491 0.30079979
v -12.69999981 2.38107491 -0.30079979
v -12.00000000 2.38107491 -0.30079979
v -12.69999981 2.23146391 -0.88349891
v -12.00000000 2.23146391 -0.88349891
v -12.69999981 1.94164097 -1.41068494
v -12.00000000 1.94164097 -1.41068494
v -12.69999981 1.52981806 -1.84923196
v -12.00000000 1.52981806 -1.84923196
v -12.69999981 1.02187002 -2.17158508
v -12.00000000 1.02187002 -2.17158508
v -13.50000000 -1.82242203 -1.71136796
v -12.69999981 -1.82242203 -1.71136796
v -12.69999981 -2.19076705 -1.20438397
v -13.50000000 -1.33956695 -2.11082006
v -13.50000000 -2.50000000 -0.00000000
v -12.69999981 -2.50000000 -0.00000000
v -12.69999981 -2.42145801 0.62172472
v -13.50000000 -2.19076705 -1.20438397
v -12.69999981 -2.42145801 -0.62172472
v -13.50000000 -2.42145801 0.62172472
v -12.69999981 -2.19076705 1.20438397
v -13.50000000 -2.42145801 -0.62172472
v -13.50000000 -2.19076705 1.20438397
v -12.69999981 -1.82242203 1.71136796
v -13.50000000 -1.82242203 1.71136796
v -12.69999981 -1.33956695 2.11082006
v -13.50000000 -1.33956695 2.11082006
v -12.69999981 -0.77254248 2.37764096
v -13.50000000 -0.77254248 2.37764096
v -12.69999981 -0.15697630 2.49506688
v -13.50000000 -0.15697630 2.49506688
v -12.69999981 0.46845329 2.45571804
v -13.50000000 0.46845329 2.45571804
v -12.69999981 1.06444800 2.26206803
v -13.50000000 1.06444800 2.26206803
v -12.69999981 1.59355998 1.92628300
v -13.50000000 1.59355998 1.92628300
v -12.69999981 2.02254200 1.46946299
v -13.50000000 2.02254200 1.46946299
v -12.69999981 2.32444096 0.92031139
v -13.50000000 2.32444096 0.92031139
v -12.69999981 2.48028708 0.31333309
v -13.50000000 2.48028708 0.31333309
v -12.69999981 2.48028708 -0.31333309
v -13.50000000 2.48028708 -0.31333309
v -12.69999981 2.32444096 -0.92031139
v -13.50000000 2.32444096 -0.92031139
v -12.69999981 2.02254200 -1.46946299
v -13.50000000 2.02254200 -1.46946299
v -12.69999981 1.59355998 -1.92628300
v -13.50000000 1.59355998 -1.92628300
v -12.69999981 1.06444800 -2.26206803
v -13.50000000 1.06444800 -2.26206803
v -12.69999981 0.46845329 -2.45571804
v -13.50000000 0.46845329 -2.45571804
v -12.69999981 -0.15697630 -2.49506688
v -13.50000000 -0.15697630 -2.49506688
v -12.69999981 -0.77254248 -2.37764096
v -13.50000000 -0.77254248 -2.37764096
v -12.69999981 -1.33956695 -2.11082006
v 7.50000000 5.44402885 44.71659851
v -7.50000000 4.86617184 44.95906830
v -7.50000000 5.44402885 44.71659851
v 7.50000000 4.86617184 44.95906830
v 7.50000000 6.06403112 44.62545013
v -7.50000000 6.06403112 44.62545013
v 7.50000000 6.68722200 44.69136047
v -7.50000000 6.68722200 44.69136047
v 7.50000000 8.60614204 46.91735077
v -7.50000000 8.47624588 46.30429840
v -7.50000000 8.60614204 46.91735077
v 7.50000000 8.47624588 46.30429840
v 7.50000000 7.27444410 44.91017914
v -7.50000000 7.27444410 44.91017914
v 7.50000000 8.57949638 47.54344940
v -7.50000000 8.57949638 47.54344940
v 7.50000000 7.78879976 45.26816177
v -7.50000000 7.78879976 45.26816177
v 7.50000000 8.39798260 48.14324951
v -7.50000000 8.39798260 48.14324951
v 7.50000000 8.19797039 45.74280167
v -7.50000000 8.19797039 45.74280167
v 7.50000000 8.07300663 48.67906952
v -7.50000000 8.07300663 48.67906952
v 7.50000000 7.62498903 49.11724091
v -7.50000000 7.62498903 49.11724091
v 7.50000000 7.08207798 49.43022156
v -7.50000000 7.08207798 49.43022156
v 7.50000000 6.47838783 49.59835815
v -7.50000000 6.47838783 49.59835815
v 7.50000000 5.85185099 49.61108017
v -7.50000000 5.85185099 49.61108017
v 7.50000000 5.24183512 49.46757889
v -7.50000000 5.24183512 49.46757889
v 7.50000000 4.68666792 49.17689133
v -7.50000000 4.68666792 49.17689133
v 7.50000000 4.22123480 48.75727081
v -7.50000000 4.22123480 48.75727081
v 7.50000000 3.87477994 48.23508072
v -7.50000000 3.87477994 48.23508072
v 7.50000000 3.66907191 47.64313889
v -7.50000000 3.66907191 47.64313889
v 7.50000000 3.61703706 47.01863861
v -7.50000000 3.61703706 47.01863861
v 7.50000000 3.72194290 46.40082169
v -7.50000000 3.72194290 46.40082169
v 7.50000000 3.97720098 45.82849121
v -7.50000000 3.97720098 45.82849121
v 7.50000000 4.36676979 45.33763123
v -7.50000000 4.36676979 45.33763123
v -12.00000000 6.06606102 44.72542953
v -12.00000000 5.47085905 44.81293106
v -12.69999981 6.06606102 44.72542953
v -12.00000000 6.66432381 44.78870010
v -12.69999981 6.66432381 44.78870010
v -12.00000000 7.22805691 44.99877167
v -12.69999981 7.22805691 44.99877167
v -12.69999981 7.72183895 45.34243011
v -12.00000000 8.50648785 46.92565155
v -12.69999981 8.38178730 46.33712006
v -12.69999981 8.50648785 46.92565155
v -12.69999981 8.48090839 47.52671051
v -12.00000000 8.38178730 46.33712006
v -12.00000000 7.72183895 45.34243011
v -12.00000000 8.48090839 47.52671051
v -12.00000000 8.11464310 45.79809189
v -12.69999981 8.11464310 45.79809189
v -12.00000000 8.30665493 48.10251999
v -12.69999981 8.30665493 48.10251999
v -12.00000000 7.99467802 48.61690903
v -12.69999981 7.99467802 48.61690903
v -12.69999981 7.56457996 49.03755188
v -12.00000000 7.56457996 49.03755188
v -12.69999981 7.04338598 49.33800888
v -12.00000000 7.04338598 49.33800888
v -12.00000000 6.46384382 49.49942017
v -12.69999981 6.46384382 49.49942017
v -12.69999981 5.86236811 49.51163101
v -12.00000000 5.86236811 49.51163101
v -12.69999981 5.27675200 49.37387848
v -12.00000000 5.27675200 49.37387848
v -12.69999981 4.74379301 49.09481049
v -12.00000000 4.74379301 49.09481049
v -12.69999981 4.29697704 48.69197845
v -12.00000000 4.29697704 48.69197845
v -12.00000000 3.96438003 48.19068146
v -12.69999981 3.96438003 48.19068146
v -12.00000000 3.76690006 47.62240982
v -12.69999981 3.76690006 47.62240982
v -12.69999981 3.71694589 47.02288818
v -12.00000000 3.71694589 47.02288818
v -12.00000000 3.81765699 46.42977905
v -12.69999981 3.81765699 46.42977905
v -12.69999981 4.06270409 45.88034821
v -12.00000000 4.06270409 45.88034821
v -12.00000000 4.43668985 45.40911865
v -12.69999981 4.43668985 45.40911865
v -12.00000000 4.91611624 45.04571152
v -12.69999981 4.91611624 45.04571152
v -12.69999981 5.47085905 44.81293106
v -12.69999981 6.06403112 44.62545013
v -12.69999981 5.44402885 44.71659851
v -13.50000000 6.06403112 44.62545013
v -12.69999981 6.68722200 44.69136047
v -13.50000000 6.68722200 44.69136047
v -12.69999981 7.27444410 44.91017914
v -13.50000000 7.27444410 44.91017914
v -12.69999981 8.60614204 46.91735077
v -13.50000000 8.47624588 46.30429840
v -13.50000000 8.60614204 46.91735077
v -13.50000000 8.57949638 47.54344940
v -12.69999981 8.47624588 46.30429840
v -12.69999981 7.78879976 45.26816177
v -13.50000000 7.78879976 45.26816177
v -13.50000000 8.19797039 45.74280167
v -12.69999981 8.57949638 47.54344940
v -12.69999981 8.19797039 45.74280167
v -12.69999981 8.39798260 48.14324951
v -13.50000000 8.39798260 48.14324951
v -13.50000000 8.07300663 48.67906952
v -12.69999981 8.07300663 48.67906952
v -12.69999981 7.62498903 49.11724091
v -13.50000000 7.62498903 49.11724091
v -13.50000000 7.08207798 49.43022156
v -12.69999981 7.08207798 49.43022156
v -12.69999981 6.47838783 49.59835815
v -13.50000000 6.47838783 49.59835815
v -12.69999981 5.85185099 49.61108017
v -13.50000000 5.85185099 49.61108017
v -12.69999981 5.24183512 49.46757889
v -13.50000000 5.24183512 49.46757889
v -12.69999981 4.68666792 49.17689133
v -13.50000000 4.68666792 49.17689133
v -13.50000000 4.22123480 48.75727081
v -12.69999981 4.22123480 48.75727081
v -12.69999981 3.87477994 48.23508072
v -13.50000000 3.87477994 48.23508072
v -12.69999981 3.66907191 47.64313889
v -13.50000000 3.66907191 47.64313889
v -12.69999981 3.61703706 47.01863861
v -13.50000000 3.61703706 47.01863861
v -12.69999981 3.72194290 46.40082169
v -13.50000000 3.72194290 46.40082169
v -13.50000000 3.97720098 45.82849121
v -12.69999981 3.97720098 45.82849121
v -12.69999981 4.36676979 45.33763123
v -13.50000000 4.36676979 45.33763123
v -13.50000000 4.86617184 44.95906830
v -12.69999981 4.86617184 44.95906830
v -13.50000000 5.44402885 44.71659851
v 5.00000000 -3.27726889 -5.02588415
v 12.00000000 -2.69394112 -5.36121988
v 12.00000000 -3.27726889 -5.02588415
v 5.00000000 -2.69394112 -5.36121988
v 5.00000000 -3.81938195 -4.62734509
v 12.00000000 -3.81938195 -4.62734509
v 5.00000000 5.82626104 -1.43341506
v 12.00000000 5.95011902 -0.77206761
v 12.00000000 5.82626104 -1.43341506
v 5.00000000 5.95011902 -0.77206761
v 5.00000000 -4.31346512 -4.17061377
v 12.00000000 -4.31346512 -4.17061377
v 5.00000000 5.62913609 -2.07673597
v 12.00000000 5.62913609 -2.07673597
v 5.00000000 -4.75330305 -3.66143489
v 12.00000000 -4.75330305 -3.66143489
v 5.00000000 5.36121988 -2.69394112
v 12.00000000 5.36121988 -2.69394112
v 5.00000000 -5.13336611 -3.10621095
v 12.00000000 -5.13336611 -3.10621095
v 5.00000000 5.02588415 -3.27726889
v 12.00000000 5.02588415 -3.27726889
v 5.00000000 -5.44887400 -2.51192594
v 12.00000000 -5.44887400 -2.51192594
v 5.00000000 4.62734509 -3.81938195
v 12.00000000 4.62734509 -3.81938195
v 5.00000000 -5.69585896 -1.88605106
v 12.00000000 -5.69585896 -1.88605106
v 5.00000000 4.17061377 -4.31346512
v 12.00000000 4.17061377 -4.31346512
v 5.00000000 -5.87121582 -1.23645794
v 12.00000000 -5.87121582 -1.23645794
v 5.00000000 3.66143489 -4.75330305
v 12.00000000 3.66143489 -4.75330305
v 5.00000000 -5.97273779 -0.57131571
v 12.00000000 -5.97273779 -0.57131571
v 5.00000000 -5.99914980 0.10101110
v 12.00000000 -5.99914980 0.10101110
v 5.00000000 3.10621095 -5.13336611
v 12.00000000 3.10621095 -5.13336611
v 5.00000000 -5.95011902 0.77206761
v 12.00000000 -5.95011902 0.77206761
v 5.00000000 2.51192594 -5.44887400
v 12.00000000 2.51192594 -5.44887400
v 5.00000000 1.88605106 -5.69585896
v 12.00000000 1.88605106 -5.69585896
v 5.00000000 1.23645794 -5.87121582
v 12.00000000 1.23645794 -5.87121582
v 5.00000000 0.57131571 -5.97273779
v 12.00000000 0.57131571 -5.97273779
v 5.00000000 -0.10101110 -5.99914980
v 12.00000000 -0.10101110 -5.99914980
v 5.00000000 -0.77206761 -5.95011902
v 12.00000000 -0.77206761 -5.95011902
v 5.00000000 -1.43341506 -5.82626104
v 12.00000000 -1.43341506 -5.82626104
v 5.00000000 -2.07673597 -5.62913609
v 12.00000000 -2.07673597 -5.62913609
v -12.00000000 -3.27726889 -5.02588415
v -5.00000000 -2.69394112 -5.36121988
v -5.00000000 -3.27726889 -5.02588415
v -12.00000000 -2.69394112 -5.36121988
v -12.00000000 -3.81938195 -4.62734509
v -5.00000000 -3.81938195 -4.62734509
v -12.00000000 5.82626104 -1.43341506
v -5.00000000 5.95011902 -0.77206761
v -5.00000000 5.82626104 -1.43341506
v -12.00000000 5.95011902 -0.77206761
v -12.00000000 -4.31346512 -4.17061377
v -5.00000000 -4.31346512 -4.17061377
v -12.00000000 5.62913609 -2.07673597
v -5.00000000 5.62913609 -2.07673597
v -12.00000000 -4.75330305 -3.66143489
v -5.00000000 -4.75330305 -3.66143489
v -5.00000000 -5.13336611 -3.10621095
v -12.00000000 5.36121988 -2.69394112
v -5.00000000 5.36121988 -2.69394112
v -12.00000000 -5.13336611 -3.10621095
v -5.00000000 -5.44887400 -2.51192594
v -12.00000000 5.02588415 -3.27726889
v -5.00000000 5.02588415 -3.27726889
v -12.00000000 -5.44887400 -2.51192594
v -5.00000000 -5.69585896 -1.88605106
v -12.00000000 -5.69585896 -1.88605106
v -5.00000000 -5.87121582 -1.23645794
v -12.00000000 4.62734509 -3.81938195
v -5.00000000 4.62734509 -3.81938195
v -12.00000000 -5.87121582 -1.23645794
v -5.00000000 -5.97273779 -0.57131571
v -12.00000000 4.17061377 -4.31346512
v -5.00000000 4.17061377 -4.31346512
v -12.00000000 -5.97273779 -0.57131571
v -5.00000000 -5.99914980 0.10101110
v -12.00000000 3.66143489 -4.75330305
v -5.00000000 3.66143489 -4.75330305
v -12.00000000 -5.99914980 0.10101110
v -5.00000000 -5.95011902 0.77206761
v -12.00000000 -5.95011902 0.77206761
v -12.00000000 3.10621095 -5.13336611
v -5.00000000 3.10621095 -5.13336611
v -12.00000000 2.51192594 -5.44887400
v -5.00000000 2.51192594 -5.44887400
v -12.00000000 1.88605106 -5.69585896
v -5.00000000 1.88605106 -5.69585896
v -12.00000000 1.23645794 -5.87121582
v -5.00000000 1.23645794 -5.87121582
v -12.00000000 0.57131571 -5.97273779
v -5.00000000 0.57131571 -5.97273779
v -12.00000000 -0.10101110 -5.99914980
v -5.00000000 -0.10101110 -5.99914980
v -12.00000000 -0.77206761 -5.95011902
v -5.00000000 -0.77206761 -5.95011902
v -12.00000000 -1.43341506 -5.82626104
v -5.00000000 -1.43341506 -5.82626104
v -12.00000000 -2.07673597 -5.62913609
v -5.00000000 -2.07673597 -5.62913609
v 12.69999981 6.06606102 44.72542953
v 12.00000000 5.47085905 44.81293106
v 12.00000000 6.06606102 44.72542953
v 12.00000000 6.66432381 44.78870010
v 12.69999981 5.47085905 44.81293106
v 12.69999981 6.66432381 44.78870010
v 12.69999981 7.22805691 44.99877167
v 12.00000000 7.22805691 44.99877167
v 12.69999981 8.50648785 46.92565155
v 12.00000000 8.38178730 46.33712006
v 12.00000000 8.50648785 46.92565155
v 12.69999981 8.38178730 46.33712006
v 12.69999981 7.72183895 45.34243011
v 12.00000000 7.72183895 45.34243011
v 12.00000000 8.11464310 45.79809189
v 12.69999981 8.48090839 47.52671051
v 12.00000000 8.48090839 47.52671051
v 12.69999981 8.11464310 45.79809189
v 12.69999981 8.30665493 48.10251999
v 12.00000000 8.30665493 48.10251999
v 12.69999981 7.99467802 48.61690903
v 12.00000000 7.99467802 48.61690903
v 12.69999981 7.56457996 49.03755188
v 12.00000000 7.56457996 49.03755188
v 12.69999981 7.04338598 49.33800888
v 12.00000000 7.04338598 49.33800888
v 12.00000000 6.46384382 49.49942017
v 12.69999981 6.46384382 49.49942017
v 12.69999981 5.86236811 49.51163101
v 12.00000000 5.86236811 49.51163101
v 12.00000000 5.27675200 49.37387848
v 12.69999981 5.27675200 49.37387848
v 12.00000000 4.74379301 49.09481049
v 12.69999981 4.74379301 49.09481049
v 12.69999981 4.29697704 48.69197845
v 12.00000000 4.29697704 48.69197845
v 12.00000000 3.96438003 48.19068146
v 12.69999981 3.96438003 48.19068146
v 12.69999981 3.76690006 47.62240982
v 12.00000000 3.76690006 47.62240982
v 12.00000000 3.71694589 47.02288818
v 12.69999981 3.71694589 47.02288818
v 12.00000000 3.81765699 46.42977905
v 12.69999981 3.81765699 46.42977905
v 12.00000000 4.06270409 45.88034821
v 12.69999981 4.06270409 45.88034821
v 12.00000000 4.43668985 45.40911865
v 12.69999981 4.43668985 45.40911865
v 12.69999981 4.91611624 45.04571152
v 12.00000000 4.91611624 45.04571152
v 13.50000000 6.06403112 44.62545013
v 13.50000000 5.44402885 44.71659851
v 12.69999981 6.06403112 44.62545013
v 13.50000000 6.68722200 44.69136047
v 12.69999981 6.68722200 44.69136047
v 12.69999981 7.27444410 44.91017914
v 13.50000000 8.60614204 46.91735077
v 12.69999981 8.47624588 46.30429840
v 12.69999981 8.60614204 46.91735077
v 13.50000000 7.27444410 44.91017914
v 13.50000000 8.47624588 46.30429840
v 13.50000000 7.78879976 45.26816177
v 12.69999981 7.78879976 45.26816177
v 12.69999981 8.19797039 45.74280167
v 13.50000000 8.57949638 47.54344940
v 12.69999981 8.57949638 47.54344940
v 13.50000000 8.19797039 45.74280167
v 13.50000000 8.39798260 48.14324951
v 12.69999981 8.39798260 48.14324951
v 13.50000000 8.07300663 48.67906952
v 12.69999981 8.07300663 48.67906952
v 13.50000000 7.62498903 49.11724091
v 12.69999981 7.62498903 49.11724091
v 12.69999981 7.08207798 49.43022156
v 13.50000000 7.08207798 49.43022156
v 13.50000000 6.47838783 49.59835815
v 12.69999981 6.47838783 49.59835815
v 13.50000000 5.85185099 49.61108017
v 12.69999981 5.85185099 49.61108017
v 13.50000000 5.24183512 49.46757889
v 12.69999981 5.24183512 49.46757889
v 12.69999981 4.68666792 49.17689133
v 13.50000000 4.68666792 49.17689133
v 13.50000000 4.22123480 48.75727081
v 12.69999981 4.22123480 48.75727081
v 12.69999981 3.87477994 48.23508072
v 13.50000000 3.87477994 48.23508072
v 12.69999981 3.66907191 47.64313889
v 13.50000000 3.66907191 47.64313889
v 13.50000000 3.61703706 47.01863861
v 12.69999981 3.61703706 47.01863861
v 12.69999981 3.72194290 46.40082169
v 13.50000000 3.72194290 46.40082169
v 13.50000000 3.97720098 45.82849121
v 12.69999981 3.97720098 45.82849121
v 13.50000000 4.36676979 45.33763123
v 12.69999981 4.36676979 45.33763123
v 13.50000000 4.86617184 44.95906830
v 12.69999981 4.86617184 44.95906830
v 12.69999981 5.44402885 44.71659851
v 12.69999981 -0.77254248 -2.37764096
v 13.50000000 -0.77254248 -2.37764096
v 13.50000000 -1.33956695 -2.11082006
v 12.69999981 -0.15697630 -2.49506688
v 12.69999981 -1.33956695 -2.11082006
v 12.69999981 -1.82242203 -1.71136796
v 13.50000000 -1.82242203 -1.71136796
v 13.50000000 -2.19076705 -1.20438397
v 12.69999981 -2.42145801 0.62172472
v 13.50000000 -2.50000000 -0.00000000
v 13.50000000 -2.42145801 0.62172472
v 13.50000000 -2.19076705 1.20438397
v 12.69999981 -2.50000000 -0.00000000
v 12.69999981 -2.19076705 -1.20438397
v 13.50000000 -2.42145801 -0.62172472
v 12.69999981 -2.19076705 1.20438397
v 12.69999981 -2.42145801 -0.62172472
v 12.69999981 -1.82242203 1.71136796
v 13.50000000 -1.82242203 1.71136796
v 13.50000000 -1.33956695 2.11082006
v 12.69999981 -1.33956695 2.11082006
v 12.69999981 -0.77254248 2.37764096
v 13.50000000 -0.77254248 2.37764096
v 13.50000000 -0.15697630 2.49506688
v 12.69999981 -0.15697630 2.49506688
v 12.69999981 0.46845329 2.45571804
v 13.50000000 0.46845329 2.45571804
v 12.69999981 1.06444800 2.26206803
v 13.50000000 1.06444800 2.26206803
v 12.69999981 1.59355998 1.92628300
v 13.50000000 1.59355998 1.92628300
v 12.69999981 2.02254200 1.46946299
v 13.50000000 2.02254200 1.46946299
v 13.50000000 2.32444096 0.92031139
v 12.69999981 2.32444096 0.92031139
v 12.69999981 2.48028708 0.31333309
v 13.50000000 2.48028708 0.31333309
v 12.69999981 2.48028708 -0.31333309
v 13.50000000 2.48028708 -0.31333309
v 12.69999981 2.32444096 -0.92031139
v 13.50000000 2.32444096 -0.92031139
v 12.69999981 2.02254200 -1.46946299
v 13.50000000 2.02254200 -1.46946299
v 13.50000000 1.59355998 -1.92628300
v 12.69999981 1.59355998 -1.92628300
v 12.69999981 1.06444800 -2.26206803
v 13.50000000 1.06444800 -2.26206803
v 13.50000000 0.46845329 -2.45571804
v 12.69999981 0.46845329 -2.45571804
v 13.50000000 -0.15697630 -2.49506688
v 12.00000000 -0.15069720 -2.39526391
v 12.69999981 0.44971520 -2.35748911
v 12.69999981 -0.15069720 -2.39526391
v 12.00000000 0.44971520 -2.35748911
v 12.00000000 -0.74164081 -2.28253603
v 12.69999981 -0.74164081 -2.28253603
v 12.00000000 -1.28598404 -2.02638698
v 12.69999981 -1.28598404 -2.02638698
v 12.00000000 -2.32459998 0.59685570
v 12.69999981 -2.40000010 -0.00000000
v 12.69999981 -2.32459998 0.59685570
v 12.00000000 -2.40000010 -0.00000000
v 12.00000000 -1.74952495 -1.64291298
v 12.69999981 -1.74952495 -1.64291298
v 12.00000000 -2.10313606 1.15620899
v 12.69999981 -2.10313606 1.15620899
v 12.00000000 -2.10313606 -1.15620899
v 12.69999981 -2.10313606 -1.15620899
v 12.00000000 -1.74952495 1.64291298
v 12.69999981 -1.74952495 1.64291298
v 12.00000000 -2.32459998 -0.59685570
v 12.69999981 -2.32459998 -0.59685570
v 12.00000000 -1.28598404 2.02638698
v 12.69999981 -1.28598404 2.02638698
v 12.00000000 -0.74164081 2.28253603
v 12.69999981 -0.74164081 2.28253603
v 12.00000000 -0.15069720 2.39526391
v 12.69999981 -0.15069720 2.39526391
v 12.00000000 0.44971520 2.35748911
v 12.69999981 0.44971520 2.35748911
v 12.00000000 1.02187002 2.17158508
v 12.69999981 1.02187002 2.17158508
v 12.00000000 1.52981806 1.84923196
v 12.69999981 1.52981806 1.84923196
v 12.00000000 1.94164097 1.41068494
v 12.69999981 1.94164097 1.41068494
v 12.00000000 2.23146391 0.88349891
v 12.69999981 2.23146391 0.88349891
v 12.00000000 2.38107491 0.30079979
v 12.69999981 2.38107491 0.30079979
v 12.00000000 2.38107491 -0.30079979
v 12.69999981 2.38107491 -0.30079979
v 12.00000000 2.23146391 -0.88349891
v 12.69999981 2.23146391 -0.88349891
v 12.00000000 1.94164097 -1.41068494
v 12.69999981 1.94164097 -1.41068494
v 12.00000000 1.52981806 -1.84923196
v 12.69999981 1.52981806 -1.84923196
v 12.00000000 1.02187002 -2.17158508
v 12.69999981 1.02187002 -2.17158508
v 12.00000000 -0.15069720 2.39526391
v 12.00000000 -0.46845329 2.45571804
v 12.00000000 -0.74164081 2.28253603
v 12.00000000 2.50000000 -0.00000000
v 12.00000000 2.38107491 -0.30079979
v 12.00000000 2.42145801 -0.62172472
v 12.00000000 0.15697630 2.49506688
v 12.00000000 -1.28598404 -2.02638698
v 12.00000000 -1.59355998 -1.92628300
v 12.00000000 -1.06444800 -2.26206803
v 12.00000000 2.38107491 0.30079979
v 12.00000000 -2.10313606 -1.15620899
v 12.00000000 -2.02254200 -1.46946299
v 12.00000000 0.44971520 2.35748911
v 12.00000000 -2.32444096 -0.92031139
v 12.00000000 2.42145801 0.62172472
v 12.00000000 -0.74164081 -2.28253603
v 12.00000000 2.23146391 0.88349891
v 12.00000000 -0.46845329 -2.45571804
v 12.00000000 0.77254248 2.37764096
v 12.00000000 -2.32459998 -0.59685570
v 12.00000000 1.02187002 2.17158508
v 12.00000000 -2.48028708 -0.31333309
v 12.00000000 -0.15069720 -2.39526391
v 12.00000000 2.19076705 1.20438397
v 12.00000000 1.94164097 1.41068494
v 12.00000000 -2.40000010 -0.00000000
v 12.00000000 1.33956695 2.11082006
v 12.00000000 1.52981806 1.84923196
v 12.00000000 0.15697630 -2.49506688
v 12.00000000 1.82242203 1.71136796
v 12.00000000 -2.48028708 0.31333309
v 12.00000000 -1.74952495 -1.64291298
v 12.00000000 0.44971520 -2.35748911
v 12.00000000 -2.32459998 0.59685570
v 12.00000000 0.77254248 -2.37764096
v 12.00000000 -2.32444096 0.92031139
v 12.00000000 1.02187002 -2.17158508
v 12.00000000 -2.10313606 1.15620899
v 12.00000000 1.33956695 -2.11082006
v 12.00000000 -2.02254200 1.46946299
v 12.00000000 1.52981806 -1.84923196
v 12.00000000 -1.74952495 1.64291298
v 12.00000000 1.82242203 -1.71136796
v 12.00000000 -1.59355998 1.92628300
v 12.00000000 1.94164097 -1.41068494
v 12.00000000 -1.28598404 2.02638698
v 12.00000000 2.19076705 -1.20438397
v 12.00000000 -1.06444800 2.26206803
v 12.00000000 2.23146391 -0.88349891
v 12.69999981 -2.50000000 -0.00000000
v 12.69999981 -2.40000010 -0.00000000
v 12.69999981 -2.42145801 -0.62172472
v 12.69999981 -0.15069720 2.39526391
v 12.69999981 0.46845329 2.45571804
v 12.69999981 0.44971520 2.35748911
v 12.69999981 1.52981806 -1.84923196
v 12.69999981 2.02254200 -1.46946299
v 12.69999981 1.59355998 -1.92628300
v 12.69999981 -0.15697630 2.49506688
v 12.69999981 1.94164097 -1.41068494
v 12.69999981 1.06444800 -2.26206803
v 12.69999981 1.02187002 -2.17158508
v 12.69999981 2.23146391 -0.88349891
v 12.69999981 2.32444096 -0.92031139
v 12.69999981 -2.42145801 0.62172472
v 12.69999981 -2.32459998 0.59685570
v 12.69999981 0.46845329 -2.45571804
v 12.69999981 -0.77254248 2.37764096
v 12.69999981 -0.74164081 2.28253603
v 12.69999981 0.44971520 -2.35748911
v 12.69999981 2.48028708 -0.31333309
v 12.69999981 2.38107491 -0.30079979
v 12.69999981 -2.19076705 1.20438397
v 12.69999981 -2.10313606 1.15620899
v 12.69999981 -1.74952495 1.64291298
v 12.69999981 -0.15069720 -2.39526391
v 12.69999981 -0.15697630 -2.49506688
v 12.69999981 -1.33956695 2.11082006
v 12.69999981 -1.28598404 2.02638698
v 12.69999981 -1.82242203 1.71136796
v 12.69999981 2.48028708 0.31333309
v 12.69999981 2.38107491 0.30079979
v 12.69999981 -0.77254248 -2.37764096
v 12.69999981 -0.74164081 -2.28253603
v 12.69999981 2.23146391 0.88349891
v 12.69999981 2.32444096 0.92031139
v 12.69999981 -1.28598404 -2.02638698
v 12.69999981 -1.33956695 -2.11082006
v 12.69999981 2.02254200 1.46946299
v 12.69999981 1.94164097 1.41068494
v 12.69999981 -1.82242203 -1.71136796
v 12.69999981 -1.74952495 -1.64291298
v 12.69999981 1.59355998 1.92628300
v 12.69999981 1.52981806 1.84923196
v 12.69999981 -2.19076705 -1.20438397
v 12.69999981 -2.10313606 -1.15620899
v 12.69999981 1.02187002 2.17158508
v 12.69999981 1.06444800 2.26206803
v 12.69999981 -2.32459998 -0.59685570
v 13.50000000 -0.77254248 -2.37764096
v 13.50000000 -1.82242203 -1.71136796
v 13.50000000 -1.33956695 -2.11082006
v 13.50000000 -2.42145801 -0.62172472
v 13.50000000 -2.19076705 -1.20438397
v 13.50000000 0.46845329 -2.45571804
v 13.50000000 -0.15697630 -2.49506688
v 13.50000000 -2.42145801 0.62172472
v 13.50000000 -2.50000000 -0.00000000
v 13.50000000 1.06444800 -2.26206803
v 13.50000000 2.02254200 -1.46946299
v 13.50000000 1.59355998 -1.92628300
v 13.50000000 -0.77254248 2.37764096
v 13.50000000 -2.19076705 1.20438397
v 13.50000000 -1.82242203 1.71136796
v 13.50000000 -1.33956695 2.11082006
v 13.50000000 2.48028708 -0.31333309
v 13.50000000 2.32444096 -0.92031139
v 13.50000000 0.46845329 2.45571804
v 13.50000000 -0.15697630 2.49506688
v 13.50000000 2.32444096 0.92031139
v 13.50000000 2.48028708 0.31333309
v 13.50000000 1.59355998 1.92628300
v 13.50000000 1.06444800 2.26206803
v 13.50000000 2.02254200 1.46946299
v 13.50000000 4.36676979 45.33763123
v 13.50000000 3.72194290 46.40082169
v 13.50000000 3.97720098 45.82849121
v 13.50000000 3.66907191 47.64313889
v 13.50000000 3.61703706 47.01863861
v 13.50000000 6.06403112 44.62545013
v 13.50000000 4.86617184 44.95906830
v 13.50000000 5.44402885 44.71659851
v 13.50000000 4.22123480 48.75727081
v 13.50000000 3.87477994 48.23508072
v 13.50000000 7.27444410 44.91017914
v 13.50000000 6.68722200 44.69136047
v 13.50000000 5.24183512 49.46757889
v 13.50000000 4.68666792 49.17689133
v 13.50000000 8.19797039 45.74280167
v 13.50000000 7.78879976 45.26816177
v 13.50000000 6.47838783 49.59835815
v 13.50000000 5.85185099 49.61108017
v 13.50000000 8.60614204 46.91735077
v 13.50000000 8.47624588 46.30429840
v 13.50000000 7.62498903 49.11724091
v 13.50000000 7.08207798 49.43022156
v 13.50000000 8.57949638 47.54344940
v 13.50000000 8.39798260 48.14324951
v 13.50000000 8.07300663 48.67906952
v 12.69999981 7.08207798 49.43022156
v 12.69999981 7.62498903 49.11724091
v 12.69999981 7.04338598 49.33800888
v 12.69999981 7.22805691 44.99877167
v 12.69999981 7.27444410 44.91017914
v 12.69999981 6.68722200 44.69136047
v 12.69999981 6.66432381 44.78870010
v 12.69999981 3.87477994 48.23508072
v 12.69999981 3.76690006 47.62240982
v 12.69999981 3.66907191 47.64313889
v 12.69999981 3.96438003 48.19068146
v 12.69999981 7.72183895 45.34243011
v 12.69999981 7.78879976 45.26816177
v 12.69999981 6.46384382 49.49942017
v 12.69999981 6.06403112 44.62545013
v 12.69999981 6.47838783 49.59835815
v 12.69999981 6.06606102 44.72542953
v 12.69999981 5.86236811 49.51163101
v 12.69999981 8.11464310 45.79809189
v 12.69999981 8.19797039 45.74280167
v 12.69999981 4.22123480 48.75727081
v 12.69999981 4.29697704 48.69197845
v 12.69999981 5.85185099 49.61108017
v 12.69999981 5.44402885 44.71659851
v 12.69999981 5.47085905 44.81293106
v 12.69999981 8.47624588 46.30429840
v 12.69999981 5.27675200 49.37387848
v 12.69999981 8.38178730 46.33712006
v 12.69999981 4.68666792 49.17689133
v 12.69999981 4.74379301 49.09481049
v 12.69999981 4.86617184 44.95906830
v 12.69999981 5.24183512 49.46757889
v 12.69999981 4.91611624 45.04571152
v 12.69999981 8.60614204 46.91735077
v 12.69999981 8.50648785 46.92565155
v 12.69999981 4.36676979 45.33763123
v 12.69999981 4.43668985 45.40911865
v 12.69999981 8.48090839 47.52671051
v 12.69999981 8.57949638 47.54344940
v 12.69999981 3.97720098 45.82849121
v 12.69999981 4.06270409 45.88034821
v 12.69999981 8.30665493 48.10251999
v 12.69999981 8.39798260 48.14324951
v 12.69999981 3.72194290 46.40082169
v 12.69999981 3.81765699 46.42977905
v 12.69999981 7.99467802 48.61690903
v 12.69999981 8.07300663 48.67906952
v 12.69999981 3.61703706 47.01863861
v 12.69999981 3.71694589 47.02288818
v 12.69999981 7.56457996 49.03755188
v 12.00000000 8.38178730 46.33712006
v 12.00000000 8.11464310 45.79809189
v 12.00000000 8.22559547 45.78536987
v 12.00000000 4.06270409 45.88034821
v 12.00000000 3.73713398 46.35240173
v 12.00000000 4.00395584 45.78536987
v 12.00000000 8.49241734 46.35240173
v 12.00000000 7.03508711 49.44937897
v 12.00000000 6.42810917 49.60522842
v 12.00000000 6.46384382 49.49942017
v 12.00000000 3.81765699 46.42977905
v 12.00000000 7.04338598 49.33800888
v 12.00000000 3.61970901 46.96796036
v 12.00000000 4.43668985 45.40911865
v 12.00000000 4.40340805 45.30252075
v 12.00000000 8.50648785 46.92565155
v 12.00000000 3.71694589 47.02288818
v 12.00000000 8.60984230 46.96796036
v 12.00000000 7.58423901 49.14748001
v 12.00000000 7.56457996 49.03755188
v 12.00000000 3.65905809 47.59339142
v 12.00000000 4.91611624 45.04571152
v 12.00000000 4.91039085 44.93416977
v 12.00000000 8.48090839 47.52671051
v 12.00000000 3.76690006 47.62240982
v 12.00000000 8.57049370 47.59339142
v 12.00000000 8.30665493 48.10251999
v 12.00000000 5.47085905 44.81293106
v 12.00000000 5.49305105 44.70347977
v 12.00000000 8.04105854 48.71849823
v 12.00000000 7.99467802 48.61690903
v 12.00000000 3.85270810 48.18938828
v 12.00000000 8.37684345 48.18938828
v 12.00000000 3.96438003 48.19068146
v 12.00000000 6.06606102 44.72542953
v 12.00000000 6.11477613 44.62493896
v 12.00000000 4.18849277 48.71849823
v 12.00000000 4.29697704 48.69197845
v 12.00000000 6.66432381 44.78870010
v 12.00000000 6.73649979 44.70347977
v 12.00000000 4.64531279 49.14748001
v 12.00000000 4.74379301 49.09481049
v 12.00000000 7.22805691 44.99877167
v 12.00000000 7.31915998 44.93416977
v 12.00000000 5.19446421 49.44937897
v 12.00000000 5.27675200 49.37387848
v 12.00000000 7.72183895 45.34243011
v 12.00000000 7.82614279 45.30252075
v 12.00000000 5.80144310 49.60522842
v 12.00000000 5.86236811 49.51163101
v 6.57006407 -2.16056204 29.97717094
v 4.89181423 -3.93672705 16.28874016
v 7.07463121 -2.07594800 30.62927055
v -12.00000000 -5.95011902 0.77206761
v -5.00000000 -5.95011902 0.77206761
v -5.00000000 -4.04246807 15.47381973
v -12.00000000 0.16465700 47.89701080
v -7.50000000 -1.87167096 32.20357132
v -7.50000000 0.16465700 47.89701080
v 7.50000000 0.16465700 47.89701080
v 7.50000000 -1.87167096 32.20357132
v 12.00000000 0.16465700 47.89701080
v 12.00000000 -5.95011902 0.77206761
v 7.39181423 -1.97741306 31.38865089
v 5.00000000 -4.04246807 15.47381973
v 5.00000000 -5.95011902 0.77206761
v -4.89181423 -3.93672705 16.28874016
v -4.57463121 -3.83819199 17.04812050
v -6.57006407 -2.16056204 29.97717094
v -4.07006407 -3.75357795 17.70022011
v -5.91249990 -2.22548795 29.47680092
v -7.07463121 -2.07594800 30.62927055
v -3.41249990 -3.68865108 18.20059013
v -5.14674997 -2.26630306 29.16225052
v -7.39181423 -1.97741306 31.38865089
v -2.64674997 -3.64783692 18.51514053
v -4.32499981 -2.28022408 29.05496025
v -1.82500005 -3.63391590 18.62241936
v 1.82500005 -3.63391590 18.62241936
v 4.32499981 -2.28022408 29.05496025
v 2.64674997 -3.64783692 18.51514053
v 3.41249990 -3.68865108 18.20059013
v 4.07006407 -3.75357795 17.70022011
v 5.14674997 -2.26630306 29.16225052
v 4.57463121 -3.83819199 17.04812050
v 5.91249990 -2.22548795 29.47680092
v 4.07006407 8.14665890 16.15608025
v 5.91249990 9.67474937 27.93265915
v 4.57463121 8.06204510 15.50399017
v 6.57006407 9.73967648 28.43302917
v 4.89181423 7.96351004 14.74460030
v 7.07463121 9.82429028 29.08513069
v -12.00000000 12.06488991 46.35287094
v -7.50000000 12.06488991 46.35287094
v -7.50000000 10.02857018 30.65942955
v -12.00000000 5.95011902 -0.77206761
v -5.00000000 7.85776901 13.92967987
v -5.00000000 5.95011902 -0.77206761
v 5.00000000 5.95011902 -0.77206761
v 5.00000000 7.85776901 13.92967987
v 12.00000000 5.95011902 -0.77206761
v 7.50000000 10.02857018 30.65942955
v 12.00000000 12.06488991 46.35287094
v 7.39181423 9.92282486 29.84452057
v 7.50000000 12.06488991 46.35287094
v -5.91249990 9.67474937 27.93265915
v -5.14674997 9.63393497 27.61812019
v -4.07006407 8.14665890 16.15608025
v -6.57006407 9.73967648 28.43302917
v -4.57463121 8.06204510 15.50399017
v -4.32499981 9.62001324 27.51082993
v -3.41249990 8.21158600 16.65645981
v -2.64674997 8.25240040 16.97100067
v -7.07463121 9.82429028 29.08513069
v -4.89181423 7.96351004 14.74460030
v 4.32499981 9.62001324 27.51082993
v -1.82500005 8.26632214 17.07829094
v 1.82500005 8.26632214 17.07829094
v 2.64674997 8.25240040 16.97100067
v 5.14674997 9.63393497 27.61812019
v 3.41249990 8.21158600 16.65645981
v -7.39181423 9.92282486 29.84452057
v -12.00000000 9.93415833 51.75228119
v -7.50000000 9.93415833 51.75228119
v -7.50000000 10.42823982 51.29555130
v -7.50000000 9.39204407 52.15082169
v -12.00000000 9.39204407 52.15082169
v -12.00000000 0.16465700 47.89701080
v -7.50000000 0.16465700 47.89701080
v -7.50000000 0.28851429 48.55834961
v -12.00000000 10.42823982 51.29555130
v -12.00000000 0.28851429 48.55834961
v -7.50000000 0.48564011 49.20167923
v -12.00000000 10.86808014 50.78636932
v -7.50000000 10.86808014 50.78636932
v -7.50000000 11.24814034 50.23115158
v -12.00000000 0.48564011 49.20167923
v -12.00000000 11.24814034 50.23115158
v -12.00000000 0.75355560 49.81887817
v -7.50000000 0.75355560 49.81887817
v -7.50000000 1.08889198 50.40221024
v -12.00000000 11.56365013 49.63687134
v -7.50000000 11.56365013 49.63687134
v -12.00000000 1.08889198 50.40221024
v -12.00000000 11.81062984 49.01099014
v -7.50000000 11.81062984 49.01099014
v -12.00000000 1.48743105 50.94432068
v -7.50000000 1.48743105 50.94432068
v -7.50000000 1.94416201 51.43840027
v -12.00000000 11.98598957 48.36140060
v -7.50000000 11.98598957 48.36140060
v -12.00000000 1.94416201 51.43840027
v -7.50000000 2.45334101 51.87823868
v -12.00000000 12.08751011 47.69625854
v -7.50000000 12.08751011 47.69625854
v -7.50000000 12.11392975 47.02392960
v -12.00000000 12.11392975 47.02392960
v -12.00000000 2.45334101 51.87823868
v -7.50000000 3.00856400 52.25830841
v -12.00000000 12.06488991 46.35287094
v -7.50000000 12.06488991 46.35287094
v -12.00000000 3.00856400 52.25830841
v -7.50000000 3.60284996 52.57381058
v -12.00000000 3.60284996 52.57381058
v -7.50000000 4.22872496 52.82080078
v -12.00000000 4.22872496 52.82080078
v -12.00000000 4.87831783 52.99615860
v -7.50000000 4.87831783 52.99615860
v -12.00000000 5.54345989 53.09767914
v -7.50000000 5.54345989 53.09767914
v -7.50000000 6.21578693 53.12408829
v -12.00000000 6.21578693 53.12408829
v -12.00000000 6.88684320 53.07506180
v -7.50000000 6.88684320 53.07506180
v -7.50000000 7.54819107 52.95119858
v -12.00000000 7.54819107 52.95119858
v -12.00000000 8.19151211 52.75407028
v -7.50000000 8.19151211 52.75407028
v -12.00000000 8.80871677 52.48616028
v -7.50000000 8.80871677 52.48616028
v 7.50000000 9.39204407 52.15082169
v 12.00000000 9.39204407 52.15082169
v 12.00000000 9.93415833 51.75228119
v 12.00000000 8.80871677 52.48616028
v 7.50000000 9.93415833 51.75228119
v 7.50000000 0.16465700 47.89701080
v 12.00000000 0.16465700 47.89701080
v 12.00000000 0.28851429 48.55834961
v 7.50000000 10.42823982 51.29555130
v 12.00000000 10.42823982 51.29555130
v 12.00000000 10.86808014 50.78636932
v 7.50000000 0.28851429 48.55834961
v 7.50000000 10.86808014 50.78636932
v 12.00000000 11.24814034 50.23115158
v 7.50000000 0.48564011 49.20167923
v 12.00000000 0.48564011 49.20167923
v 12.00000000 0.75355560 49.81887817
v 7.50000000 11.24814034 50.23115158
v 12.00000000 11.56365013 49.63687134
v 7.50000000 0.75355560 49.81887817
v 7.50000000 11.56365013 49.63687134
v 12.00000000 11.81062984 49.01099014
v 7.50000000 1.08889198 50.40221024
v 12.00000000 1.08889198 50.40221024
v 7.50000000 11.81062984 49.01099014
v 12.00000000 11.98598957 48.36140060
v 7.50000000 1.48743105 50.94432068
v 12.00000000 1.48743105 50.94432068
v 12.00000000 1.94416201 51.43840027
v 7.50000000 11.98598957 48.36140060
v 7.50000000 12.08751011 47.69625854
v 12.00000000 12.08751011 47.69625854
v 7.50000000 1.94416201 51.43840027
v 7.50000000 12.11392975 47.02392960
v 12.00000000 12.11392975 47.02392960
v 12.00000000 12.06488991 46.35287094
v 7.50000000 12.06488991 46.35287094
v 7.50000000 2.45334101 51.87823868
v 12.00000000 2.45334101 51.87823868
v 7.50000000 3.00856400 52.25830841
v 12.00000000 3.00856400 52.25830841
v 12.00000000 3.60284996 52.57381058
v 7.50000000 3.60284996 52.57381058
v 12.00000000 4.22872496 52.82080078
v 7.50000000 4.22872496 52.82080078
v 12.00000000 4.87831783 52.99615860
v 7.50000000 4.87831783 52.99615860
v 7.50000000 5.54345989 53.09767914
v 12.00000000 5.54345989 53.09767914
v 12.00000000 6.21578693 53.12408829
v 7.50000000 6.21578693 53.12408829
v 12.00000000 6.88684320 53.07506180
v 7.50000000 6.88684320 53.07506180
v 12.00000000 7.54819107 52.95119858
v 7.50000000 7.54819107 52.95119858
v 12.00000000 8.19151211 52.75407028
v 7.50000000 8.19151211 52.75407028
v 7.50000000 8.80871677 52.48616028
v 12.00000000 2.51192594 -5.44887400
v 12.00000000 3.10621095 -5.13336611
v 12.00000000 3.66143489 -4.75330305
v 12.00000000 4.17061377 -4.31346512
v 12.00000000 4.62734509 -3.81938195
v 12.00000000 5.02588415 -3.27726889
v 12.00000000 1.23645794 -5.87121582
v 12.00000000 1.88605106 -5.69585896
v 12.00000000 5.36121988 -2.69394112
v 12.00000000 5.62913609 -2.07673597
v 12.00000000 -0.10101110 -5.99914980
v 12.00000000 0.57131571 -5.97273779
v 12.00000000 5.82626104 -1.43341506
v 12.00000000 5.95011902 -0.77206761
v 12.00000000 -2.07673597 -5.62913609
v 12.00000000 -1.43341506 -5.82626104
v 12.00000000 -0.77206761 -5.95011902
v 12.00000000 -3.27726889 -5.02588415
v 12.00000000 -2.69394112 -5.36121988
v 12.00000000 -4.31346512 -4.17061377
v 12.00000000 -3.81938195 -4.62734509
v 12.00000000 -4.75330305 -3.66143489
v 12.00000000 -5.13336611 -3.10621095
v 12.00000000 -5.44887400 -2.51192594
v 12.00000000 -5.69585896 -1.88605106
v 12.00000000 -5.87121582 -1.23645794
v 12.00000000 -5.97273779 -0.57131571
v 12.00000000 -5.99914980 0.10101110
v 12.00000000 -5.95011902 0.77206761
v 12.00000000 12.06488991 46.35287094
v 12.00000000 12.11392975 47.02392960
v 12.00000000 12.08751011 47.69625854
v 12.00000000 11.98598957 48.36140060
v 12.00000000 11.81062984 49.01099014
v 12.00000000 11.56365013 49.63687134
v 12.00000000 11.24814034 50.23115158
v 12.00000000 10.86808014 50.78636932
v 12.00000000 10.42823982 51.29555130
v 12.00000000 9.93415833 51.75228119
v 12.00000000 9.39204407 52.15082169
v 12.00000000 8.80871677 52.48616028
v 12.00000000 8.19151211 52.75407028
v 12.00000000 7.54819107 52.95119858
v 12.00000000 0.16465700 47.89701080
v 12.00000000 6.88684320 53.07506180
v 12.00000000 0.28851429 48.55834961
v 12.00000000 6.21578693 53.12408829
v 12.00000000 0.48564011 49.20167923
v 12.00000000 5.54345989 53.09767914
v 12.00000000 0.75355560 49.81887817
v 12.00000000 4.87831783 52.99615860
v 12.00000000 1.08889198 50.40221024
v 12.00000000 4.22872496 52.82080078
v 12.00000000 1.48743105 50.94432068
v 12.00000000 3.60284996 52.57381058
v 12.00000000 1.94416201 51.43840027
v 12.00000000 3.00856400 52.25830841
v 12.00000000 2.45334101 51.87823868
v -12.00000000 4.17061377 -4.31346512
v -12.00000000 3.66143489 -4.75330305
v -12.00000000 1.71136796 -1.82242203
v -12.00000000 4.62734509 -3.81938195
v -12.00000000 1.20438397 -2.19076705
v -12.00000000 3.10621095 -5.13336611
v -12.00000000 2.51192594 -5.44887400
v -12.00000000 2.11082006 -1.33956695
v -12.00000000 5.02588415 -3.27726889
v -12.00000000 5.36121988 -2.69394112
v -12.00000000 1.23645794 -5.87121582
v -12.00000000 0.57131571 -5.97273779
v -12.00000000 0.62172472 -2.42145801
v -12.00000000 1.88605106 -5.69585896
v -12.00000000 2.37764096 -0.77254248
v -12.00000000 5.62913609 -2.07673597
v -12.00000000 5.82626104 -1.43341506
v -12.00000000 0.00000000 -2.50000000
v -12.00000000 -0.10101110 -5.99914980
v -12.00000000 -0.77206761 -5.95011902
v -12.00000000 2.49506688 -0.15697630
v -12.00000000 5.95011902 -0.77206761
v -12.00000000 -0.62172472 -2.42145801
v -12.00000000 -1.43341506 -5.82626104
v -12.00000000 -2.07673597 -5.62913609
v -12.00000000 2.45571804 0.46845329
v -12.00000000 -2.69394112 -5.36121988
v -12.00000000 -3.27726889 -5.02588415
v -12.00000000 -1.20438397 -2.19076705
v -12.00000000 2.26206803 1.06444800
v -12.00000000 -3.81938195 -4.62734509
v -12.00000000 -4.31346512 -4.17061377
v -12.00000000 -1.71136796 -1.82242203
v -12.00000000 -4.75330305 -3.66143489
v -12.00000000 1.92628300 1.59355998
v -12.00000000 -2.11082006 -1.33956695
v -12.00000000 -5.13336611 -3.10621095
v -12.00000000 1.46946299 2.02254200
v -12.00000000 -2.37764096 -0.77254248
v -12.00000000 -5.44887400 -2.51192594
v -12.00000000 -5.69585896 -1.88605106
v -12.00000000 -2.49506688 -0.15697630
v -12.00000000 -5.87121582 -1.23645794
v -12.00000000 -5.97273779 -0.57131571
v -12.00000000 -5.99914980 0.10101110
v -12.00000000 -2.45571804 0.46845329
v -12.00000000 -2.26206803 1.06444800
v -12.00000000 -5.95011902 0.77206761
v -12.00000000 -1.92628300 1.59355998
v -12.00000000 -1.46946299 2.02254200
v -12.00000000 -0.92031139 2.32444096
v -12.00000000 12.06488991 46.35287094
v -12.00000000 7.54288292 45.07299042
v -12.00000000 8.00831604 45.49261093
v -12.00000000 6.98771715 44.78229904
v -12.00000000 0.92031139 2.32444096
v -12.00000000 8.35477066 46.01480103
v -12.00000000 6.37769985 44.63880157
v -12.00000000 0.31333309 2.48028708
v -12.00000000 8.56047916 46.60673904
v -12.00000000 5.75116301 44.65151978
v -12.00000000 -0.31333309 2.48028708
v -12.00000000 12.11392975 47.02392960
v -12.00000000 8.61251545 47.23123932
v -12.00000000 12.08751011 47.69625854
v -12.00000000 11.98598957 48.36140060
v -12.00000000 5.14747286 44.81966019
v -12.00000000 11.81062984 49.01099014
v -12.00000000 8.50760841 47.84906006
v -12.00000000 11.56365013 49.63687134
v -12.00000000 4.60456181 45.13264084
v -12.00000000 11.24814034 50.23115158
v -12.00000000 8.25235081 48.42139053
v -12.00000000 10.86808014 50.78636932
v -12.00000000 7.86278200 48.91225052
v -12.00000000 10.42823982 51.29555130
v -12.00000000 7.36337900 49.29080963
v -12.00000000 9.93415833 51.75228119
v -12.00000000 9.39204407 52.15082169
v -12.00000000 8.80871677 52.48616028
v -12.00000000 6.78552198 49.53327942
v -12.00000000 8.19151211 52.75407028
v -12.00000000 7.54819107 52.95119858
v -12.00000000 0.16465700 47.89701080
v -12.00000000 3.62340903 47.33253098
v -12.00000000 3.65005493 46.70642853
v -12.00000000 3.83156800 46.10662842
v -12.00000000 4.15654421 45.57080841
v -12.00000000 6.16552019 49.62442017
v -12.00000000 6.88684320 53.07506180
v -12.00000000 0.28851429 48.55834961
v -12.00000000 3.75330496 47.94557953
v -12.00000000 6.21578693 53.12408829
v -12.00000000 0.48564011 49.20167923
v -12.00000000 5.54232883 49.55852127
v -12.00000000 5.54345989 53.09767914
v -12.00000000 0.75355560 49.81887817
v -12.00000000 4.03158092 48.50708008
v -12.00000000 4.87831783 52.99615860
v -12.00000000 1.08889198 50.40221024
v -12.00000000 4.95510721 49.33969879
v -12.00000000 4.22872496 52.82080078
v -12.00000000 4.44075108 48.98171997
v -12.00000000 1.48743105 50.94432068
v -12.00000000 3.60284996 52.57381058
v -12.00000000 1.94416201 51.43840027
v -12.00000000 3.00856400 52.25830841
v -12.00000000 2.45334101 51.87823868
v -5.00000000 2.48028708 -0.31333309
v -5.00000000 2.32444096 -0.92031139
v -5.00000000 5.82626104 -1.43341506
v -5.00000000 -0.77254248 -2.37764096
v -5.00000000 -2.69394112 -5.36121988
v -5.00000000 -2.07673597 -5.62913609
v -5.00000000 -1.43341506 -5.82626104
v -5.00000000 -0.15697630 -2.49506688
v -5.00000000 2.48028708 0.31333309
v -5.00000000 5.95011902 -0.77206761
v -5.00000000 -1.33956695 -2.11082006
v -5.00000000 -3.81938195 -4.62734509
v -5.00000000 -3.27726889 -5.02588415
v -5.00000000 2.32444096 0.92031139
v -5.00000000 -1.82242203 -1.71136796
v -5.00000000 -4.31346512 -4.17061377
v -5.00000000 2.02254200 1.46946299
v -5.00000000 -4.75330305 -3.66143489
v -5.00000000 -2.19076705 -1.20438397
v -5.00000000 -5.13336611 -3.10621095
v -5.00000000 -5.44887400 -2.51192594
v -5.00000000 -2.42145801 -0.62172472
v -5.00000000 -5.69585896 -1.88605106
v -5.00000000 1.59355998 -1.92628300
v -5.00000000 3.10621095 -5.13336611
v -5.00000000 3.66143489 -4.75330305
v -5.00000000 4.17061377 -4.31346512
v -5.00000000 1.06444800 -2.26206803
v -5.00000000 1.88605106 -5.69585896
v -5.00000000 2.51192594 -5.44887400
v -5.00000000 -5.87121582 -1.23645794
v -5.00000000 2.02254200 -1.46946299
v -5.00000000 4.62734509 -3.81938195
v -5.00000000 5.02588415 -3.27726889
v -5.00000000 5.36121988 -2.69394112
v -5.00000000 -5.97273779 -0.57131571
v -5.00000000 -2.50000000 -0.00000000
v -5.00000000 -5.99914980 0.10101110
v -5.00000000 0.46845329 -2.45571804
v -5.00000000 0.57131571 -5.97273779
v -5.00000000 1.23645794 -5.87121582
v -5.00000000 -5.95011902 0.77206761
v -5.00000000 -2.42145801 0.62172472
v -5.00000000 -2.19076705 1.20438397
v -5.00000000 -1.82242203 1.71136796
v -5.00000000 -1.33956695 2.11082006
v -5.00000000 5.62913609 -2.07673597
v -5.00000000 7.85776901 13.92967987
v -5.00000000 0.46845329 2.45571804
v -5.00000000 1.06444800 2.26206803
v -5.00000000 1.59355998 1.92628300
v -5.00000000 -4.04246807 15.47381973
v -5.00000000 -0.77254248 2.37764096
v -5.00000000 -0.15697630 2.49506688
v -5.00000000 -0.77206761 -5.95011902
v -5.00000000 -0.10101110 -5.99914980
v 5.00000000 5.82626104 -1.43341506
v 5.00000000 2.32444096 -0.92031139
v 5.00000000 2.48028708 -0.31333309
v 5.00000000 -2.07673597 -5.62913609
v 5.00000000 -2.69394112 -5.36121988
v 5.00000000 -0.77254248 -2.37764096
v 5.00000000 -1.43341506 -5.82626104
v 5.00000000 -0.15697630 -2.49506688
v 5.00000000 5.95011902 -0.77206761
v 5.00000000 2.48028708 0.31333309
v 5.00000000 -1.33956695 -2.11082006
v 5.00000000 -3.27726889 -5.02588415
v 5.00000000 -3.81938195 -4.62734509
v 5.00000000 2.32444096 0.92031139
v 5.00000000 -1.82242203 -1.71136796
v 5.00000000 -4.31346512 -4.17061377
v 5.00000000 2.02254200 1.46946299
v 5.00000000 -4.75330305 -3.66143489
v 5.00000000 -2.19076705 -1.20438397
v 5.00000000 -5.13336611 -3.10621095
v 5.00000000 -5.44887400 -2.51192594
v 5.00000000 -2.42145801 -0.62172472
v 5.00000000 -5.69585896 -1.88605106
v 5.00000000 3.66143489 -4.75330305
v 5.00000000 3.10621095 -5.13336611
v 5.00000000 1.59355998 -1.92628300
v 5.00000000 4.17061377 -4.31346512
v 5.00000000 -5.87121582 -1.23645794
v 5.00000000 2.51192594 -5.44887400
v 5.00000000 1.88605106 -5.69585896
v 5.00000000 1.06444800 -2.26206803
v 5.00000000 -2.50000000 -0.00000000
v 5.00000000 -5.97273779 -0.57131571
v 5.00000000 4.62734509 -3.81938195
v 5.00000000 2.02254200 -1.46946299
v 5.00000000 5.02588415 -3.27726889
v 5.00000000 5.36121988 -2.69394112
v 5.00000000 -5.99914980 0.10101110
v 5.00000000 -2.42145801 0.62172472
v 5.00000000 -5.95011902 0.77206761
v 5.00000000 -2.19076705 1.20438397
v 5.00000000 -1.82242203 1.71136796
v 5.00000000 -1.33956695 2.11082006
v 5.00000000 1.23645794 -5.87121582
v 5.00000000 0.57131571 -5.97273779
v 5.00000000 0.46845329 -2.45571804
v 5.00000000 7.85776901 13.92967987
v 5.00000000 1.06444800 2.26206803
v 5.00000000 0.46845329 2.45571804
v 5.00000000 5.62913609 -2.07673597
v 5.00000000 1.59355998 1.92628300
v 5.00000000 -0.77254248 2.37764096
v 5.00000000 -4.04246807 15.47381973
v 5.00000000 -0.15697630 2.49506688
v 5.00000000 -0.77206761 -5.95011902
v 5.00000000 -0.10101110 -5.99914980
v -1.82500005 8.26632214 17.07829094
v 1.82500005 8.26632214 17.07829094
v -1.82500005 -3.63391590 18.62241936
v 1.82500005 -3.63391590 18.62241936
v -7.50000000 8.80871677 52.48616028
v -7.50000000 7.08207798 49.43022156
v -7.50000000 9.39204407 52.15082169
v -7.50000000 7.27444410 44.91017914
v -7.50000000 10.02857018 30.65942955
v -7.50000000 12.06488991 46.35287094
v -7.50000000 8.19151211 52.75407028
v -7.50000000 7.78879976 45.26816177
v -7.50000000 7.54819107 52.95119858
v -7.50000000 8.19797039 45.74280167
v -7.50000000 6.47838783 49.59835815
v -7.50000000 0.16465700 47.89701080
v -7.50000000 4.36676979 45.33763123
v -7.50000000 3.97720098 45.82849121
v -7.50000000 6.68722200 44.69136047
v -7.50000000 3.72194290 46.40082169
v -7.50000000 3.61703706 47.01863861
v -7.50000000 3.66907191 47.64313889
v -7.50000000 8.47624588 46.30429840
v -7.50000000 -1.87167096 32.20357132
v -7.50000000 6.88684320 53.07506180
v -7.50000000 6.06403112 44.62545013
v -7.50000000 0.28851429 48.55834961
v -7.50000000 8.60614204 46.91735077
v -7.50000000 12.11392975 47.02392960
v -7.50000000 12.08751011 47.69625854
v -7.50000000 6.21578693 53.12408829
v -7.50000000 5.85185099 49.61108017
v -7.50000000 0.48564011 49.20167923
v -7.50000000 5.44402885 44.71659851
v -7.50000000 3.87477994 48.23508072
v -7.50000000 8.57949638 47.54344940
v -7.50000000 11.98598957 48.36140060
v -7.50000000 11.81062984 49.01099014
v -7.50000000 5.54345989 53.09767914
v -7.50000000 0.75355560 49.81887817
v -7.50000000 4.86617184 44.95906830
v -7.50000000 4.87831783 52.99615860
v -7.50000000 5.24183512 49.46757889
v -7.50000000 1.08889198 50.40221024
v -7.50000000 4.22123480 48.75727081
v -7.50000000 8.39798260 48.14324951
v -7.50000000 11.56365013 49.63687134
v -7.50000000 11.24814034 50.23115158
v -7.50000000 4.22872496 52.82080078
v -7.50000000 1.48743105 50.94432068
v -7.50000000 3.60284996 52.57381058
v -7.50000000 4.68666792 49.17689133
v -7.50000000 8.07300663 48.67906952
v -7.50000000 10.86808014 50.78636932
v -7.50000000 1.94416201 51.43840027
v -7.50000000 3.00856400 52.25830841
v -7.50000000 2.45334101 51.87823868
v -7.50000000 10.42823982 51.29555130
v -7.50000000 7.62498903 49.11724091
v -7.50000000 9.93415833 51.75228119
v 7.50000000 9.39204407 52.15082169
v 7.50000000 7.08207798 49.43022156
v 7.50000000 8.80871677 52.48616028
v 7.50000000 8.19151211 52.75407028
v 7.50000000 12.06488991 46.35287094
v 7.50000000 10.02857018 30.65942955
v 7.50000000 7.27444410 44.91017914
v 7.50000000 7.54819107 52.95119858
v 7.50000000 7.78879976 45.26816177
v 7.50000000 6.47838783 49.59835815
v 7.50000000 8.19797039 45.74280167
v 7.50000000 3.97720098 45.82849121
v 7.50000000 4.36676979 45.33763123
v 7.50000000 0.16465700 47.89701080
v 7.50000000 3.72194290 46.40082169
v 7.50000000 3.61703706 47.01863861
v 7.50000000 3.66907191 47.64313889
v 7.50000000 6.68722200 44.69136047
v 7.50000000 -1.87167096 32.20357132
v 7.50000000 6.88684320 53.07506180
v 7.50000000 8.47624588 46.30429840
v 7.50000000 6.06403112 44.62545013
v 7.50000000 0.28851429 48.55834961
v 7.50000000 6.21578693 53.12408829
v 7.50000000 12.11392975 47.02392960
v 7.50000000 8.60614204 46.91735077
v 7.50000000 12.08751011 47.69625854
v 7.50000000 5.85185099 49.61108017
v 7.50000000 0.48564011 49.20167923
v 7.50000000 3.87477994 48.23508072
v 7.50000000 5.44402885 44.71659851
v 7.50000000 5.54345989 53.09767914
v 7.50000000 11.98598957 48.36140060
v 7.50000000 8.57949638 47.54344940
v 7.50000000 11.81062984 49.01099014
v 7.50000000 0.75355560 49.81887817
v 7.50000000 5.24183512 49.46757889
v 7.50000000 4.87831783 52.99615860
v 7.50000000 4.86617184 44.95906830
v 7.50000000 4.22123480 48.75727081
v 7.50000000 1.08889198 50.40221024
v 7.50000000 11.56365013 49.63687134
v 7.50000000 8.39798260 48.14324951
v 7.50000000 11.24814034 50.23115158
v 7.50000000 4.22872496 52.82080078
v 7.50000000 1.48743105 50.94432068
v 7.50000000 3.60284996 52.57381058
v 7.50000000 4.68666792 49.17689133
v 7.50000000 1.94416201 51.43840027
v 7.50000000 10.86808014 50.78636932
v 7.50000000 8.07300663 48.67906952
v 7.50000000 3.00856400 52.25830841
v 7.50000000 2.45334101 51.87823868
v 7.50000000 7.62498903 49.11724091
v 7.50000000 10.42823982 51.29555130
v 7.50000000 9.93415833 51.75228119
v 4.32499981 9.62001324 27.51082993
v -4.32499981 9.62001324 27.51082993
v 4.32499981 -2.28022408 29.05496025
v -4.32499981 -2.28022408 29.05496025
v -5.14674997 -2.26630306 29.16225052
v -4.32499981 -2.28022408 29.05496025
v -4.32499981 9.62001324 27.51082993
v -5.91249990 -2.22548795 29.47680092
v -5.14674997 9.63393497 27.61812019
v -6.57006407 -2.16056204 29.97717094
v -5.91249990 9.67474937 27.93265915
v -7.07463121 -2.07594800 30.62927055
v -6.57006407 9.73967648 28.43302917
v -7.07463121 9.82429028 29.08513069
v -7.39181423 -1.97741306 31.38865089
v -7.39181423 9.92282486 29.84452057
v -7.50000000 -1.87167096 32.20357132
v -7.50000000 10.02857018 30.65942955
v 4.32499981 9.62001324 27.51082993
v 4.32499981 -2.28022408 29.05496025
v 5.14674997 -2.26630306 29.16225052
v 5.14674997 9.63393497 27.61812019
v 5.91249990 9.67474937 27.93265915
v 5.91249990 -2.22548795 29.47680092
v 6.57006407 9.73967648 28.43302917
v 6.57006407 -2.16056204 29.97717094
v 7.07463121 9.82429028 29.08513069
v 7.07463121 -2.07594800 30.62927055
v 7.39181423 9.92282486 29.84452057
v 7.39181423 -1.97741306 31.38865089
v 7.50000000 10.02857018 30.65942955
v 7.50000000 -1.87167096 32.20357132
v 2.64674997 -3.64783692 18.51514053
v 1.82500005 -3.63391590 18.62241936
v 1.82500005 8.26632214 17.07829094
v 2.64674997 8.25240040 16.97100067
v 3.41249990 -3.68865108 18.20059013
v 3.41249990 8.21158600 16.65645981
v 4.07006407 -3.75357795 17.70022011
v 4.07006407 8.14665890 16.15608025
v 4.57463121 -3.83819199 17.04812050
v 4.57463121 8.06204510 15.50399017
v 4.89181423 -3.93672705 16.28874016
v 4.89181423 7.96351004 14.74460030
v 5.00000000 -4.04246807 15.47381973
v 5.00000000 7.85776901 13.92967987
v -1.82500005 8.26632214 17.07829094
v -1.82500005 -3.63391590 18.62241936
v -2.64674997 -3.64783692 18.51514053
v -2.64674997 8.25240040 16.97100067
v -3.41249990 8.21158600 16.65645981
v -3.41249990 -3.68865108 18.20059013
v -4.07006407 8.14665890 16.15608025
v -4.07006407 -3.75357795 17.70022011
v -4.57463121 8.06204510 15.50399017
v -4.57463121 -3.83819199 17.04812050
v -4.89181423 7.96351004 14.74460030
v -4.89181423 -3.93672705 16.28874016
v -5.00000000 7.85776901 13.92967987
v -5.00000000 -4.04246807 15.47381973
v -13.50000000 6.06403112 44.62545013
v -13.50000000 7.27444410 44.91017914
v -13.50000000 6.68722200 44.69136047
v -13.50000000 8.19797039 45.74280167
v -13.50000000 7.78879976 45.26816177
v -13.50000000 8.60614204 46.91735077
v -13.50000000 8.47624588 46.30429840
v -13.50000000 4.36676979 45.33763123
v -13.50000000 5.44402885 44.71659851
v -13.50000000 4.86617184 44.95906830
v -13.50000000 3.72194290 46.40082169
v -13.50000000 3.97720098 45.82849121
v -13.50000000 7.62498903 49.11724091
v -13.50000000 8.57949638 47.54344940
v -13.50000000 8.39798260 48.14324951
v -13.50000000 8.07300663 48.67906952
v -13.50000000 3.66907191 47.64313889
v -13.50000000 3.61703706 47.01863861
v -13.50000000 6.47838783 49.59835815
v -13.50000000 7.08207798 49.43022156
v -13.50000000 4.68666792 49.17689133
v -13.50000000 5.85185099 49.61108017
v -13.50000000 3.87477994 48.23508072
v -13.50000000 4.22123480 48.75727081
v -13.50000000 5.24183512 49.46757889
v -12.69999981 8.47624588 46.30429840
v -12.69999981 8.11464310 45.79809189
v -12.69999981 8.19797039 45.74280167
v -12.69999981 8.38178730 46.33712006
v -12.69999981 4.06270409 45.88034821
v -12.69999981 3.72194290 46.40082169
v -12.69999981 3.97720098 45.82849121
v -12.69999981 3.81765699 46.42977905
v -12.69999981 7.08207798 49.43022156
v -12.69999981 6.47838783 49.59835815
v -12.69999981 6.46384382 49.49942017
v -12.69999981 7.04338598 49.33800888
v -12.69999981 3.61703706 47.01863861
v -12.69999981 4.43668985 45.40911865
v -12.69999981 4.36676979 45.33763123
v -12.69999981 3.71694589 47.02288818
v -12.69999981 4.91611624 45.04571152
v -12.69999981 4.86617184 44.95906830
v -12.69999981 8.60614204 46.91735077
v -12.69999981 8.50648785 46.92565155
v -12.69999981 7.62498903 49.11724091
v -12.69999981 7.56457996 49.03755188
v -12.69999981 3.66907191 47.64313889
v -12.69999981 8.48090839 47.52671051
v -12.69999981 3.76690006 47.62240982
v -12.69999981 5.47085905 44.81293106
v -12.69999981 5.44402885 44.71659851
v -12.69999981 8.57949638 47.54344940
v -12.69999981 8.30665493 48.10251999
v -12.69999981 3.87477994 48.23508072
v -12.69999981 8.07300663 48.67906952
v -12.69999981 7.99467802 48.61690903
v -12.69999981 8.39798260 48.14324951
v -12.69999981 3.96438003 48.19068146
v -12.69999981 6.06606102 44.72542953
v -12.69999981 6.06403112 44.62545013
v -12.69999981 4.22123480 48.75727081
v -12.69999981 4.29697704 48.69197845
v -12.69999981 6.66432381 44.78870010
v -12.69999981 6.68722200 44.69136047
v -12.69999981 4.68666792 49.17689133
v -12.69999981 4.74379301 49.09481049
v -12.69999981 7.22805691 44.99877167
v -12.69999981 7.27444410 44.91017914
v -12.69999981 5.24183512 49.46757889
v -12.69999981 5.27675200 49.37387848
v -12.69999981 7.72183895 45.34243011
v -12.69999981 7.78879976 45.26816177
v -12.69999981 5.85185099 49.61108017
v -12.69999981 5.86236811 49.51163101
v -12.00000000 7.04338598 49.33800888
v -12.00000000 7.56457996 49.03755188
v -12.00000000 3.76690006 47.62240982
v -12.00000000 6.66432381 44.78870010
v -12.00000000 7.72183895 45.34243011
v -12.00000000 3.96438003 48.19068146
v -12.00000000 6.46384382 49.49942017
v -12.00000000 6.06606102 44.72542953
v -12.00000000 4.29697704 48.69197845
v -12.00000000 8.11464310 45.79809189
v -12.00000000 5.86236811 49.51163101
v -12.00000000 5.47085905 44.81293106
v -12.00000000 8.38178730 46.33712006
v -12.00000000 4.74379301 49.09481049
v -12.00000000 5.27675200 49.37387848
v -12.00000000 7.22805691 44.99877167
v -12.00000000 4.91611624 45.04571152
v -12.00000000 8.50648785 46.92565155
v -12.00000000 4.43668985 45.40911865
v -12.00000000 8.48090839 47.52671051
v -12.00000000 4.06270409 45.88034821
v -12.00000000 8.30665493 48.10251999
v -12.00000000 3.81765699 46.42977905
v -12.00000000 7.99467802 48.61690903
v -12.00000000 3.71694589 47.02288818
v -13.50000000 1.06444800 -2.26206803
v -13.50000000 2.02254200 -1.46946299
v -13.50000000 1.59355998 -1.92628300
v -13.50000000 2.48028708 -0.31333309
v -13.50000000 2.32444096 -0.92031139
v -13.50000000 -0.77254248 -2.37764096
v -13.50000000 0.46845329 -2.45571804
v -13.50000000 -0.15697630 -2.49506688
v -13.50000000 2.32444096 0.92031139
v -13.50000000 2.48028708 0.31333309
v -13.50000000 -1.82242203 -1.71136796
v -13.50000000 -1.33956695 -2.11082006
v -13.50000000 1.59355998 1.92628300
v -13.50000000 2.02254200 1.46946299
v -13.50000000 -2.42145801 -0.62172472
v -13.50000000 -2.19076705 -1.20438397
v -13.50000000 0.46845329 2.45571804
v -13.50000000 1.06444800 2.26206803
v -13.50000000 -2.42145801 0.62172472
v -13.50000000 -2.50000000 -0.00000000
v -13.50000000 -0.77254248 2.37764096
v -13.50000000 -0.15697630 2.49506688
v -13.50000000 -2.19076705 1.20438397
v -13.50000000 -1.82242203 1.71136796
v -13.50000000 -1.33956695 2.11082006
v -12.69999981 2.48028708 -0.31333309
v -12.69999981 2.38107491 -0.30079979
v -12.69999981 2.23146391 -0.88349891
v -12.69999981 -0.15069720 2.39526391
v -12.69999981 -0.77254248 2.37764096
v -12.69999981 -0.74164081 2.28253603
v -12.69999981 -0.15697630 2.49506688
v -12.69999981 2.38107491 0.30079979
v -12.69999981 -1.28598404 -2.02638698
v -12.69999981 -1.82242203 -1.71136796
v -12.69999981 -1.33956695 -2.11082006
v -12.69999981 2.48028708 0.31333309
v -12.69999981 -1.74952495 -1.64291298
v -12.69999981 -2.10313606 -1.15620899
v -12.69999981 -2.19076705 -1.20438397
v -12.69999981 0.44971520 2.35748911
v -12.69999981 0.46845329 2.45571804
v -12.69999981 -0.74164081 -2.28253603
v -12.69999981 -0.77254248 -2.37764096
v -12.69999981 2.23146391 0.88349891
v -12.69999981 -2.32459998 -0.59685570
v -12.69999981 -2.42145801 -0.62172472
v -12.69999981 1.02187002 2.17158508
v -12.69999981 2.32444096 0.92031139
v -12.69999981 -0.15697630 -2.49506688
v -12.69999981 1.06444800 2.26206803
v -12.69999981 1.94164097 1.41068494
v -12.69999981 -0.15069720 -2.39526391
v -12.69999981 -2.40000010 -0.00000000
v -12.69999981 -2.50000000 -0.00000000
v -12.69999981 2.02254200 1.46946299
v -12.69999981 1.59355998 1.92628300
v -12.69999981 1.52981806 1.84923196
v -12.69999981 0.44971520 -2.35748911
v -12.69999981 0.46845329 -2.45571804
v -12.69999981 -2.42145801 0.62172472
v -12.69999981 -2.32459998 0.59685570
v -12.69999981 1.06444800 -2.26206803
v -12.69999981 1.02187002 -2.17158508
v -12.69999981 -2.19076705 1.20438397
v -12.69999981 -2.10313606 1.15620899
v -12.69999981 1.59355998 -1.92628300
v -12.69999981 1.52981806 -1.84923196
v -12.69999981 -1.82242203 1.71136796
v -12.69999981 -1.74952495 1.64291298
v -12.69999981 2.02254200 -1.46946299
v -12.69999981 1.94164097 -1.41068494
v -12.69999981 -1.28598404 2.02638698
v -12.69999981 -1.33956695 2.11082006
v -12.69999981 2.32444096 -0.92031139
v -12.00000000 0.44971520 2.35748911
v -12.00000000 -2.32459998 -0.59685570
v -12.00000000 -2.40000010 -0.00000000
v -12.00000000 1.52981806 -1.84923196
v -12.00000000 1.94164097 -1.41068494
v -12.00000000 -0.15069720 2.39526391
v -12.00000000 1.02187002 -2.17158508
v -12.00000000 2.23146391 -0.88349891
v -12.00000000 -2.32459998 0.59685570
v -12.00000000 -0.74164081 2.28253603
v -12.00000000 0.44971520 -2.35748911
v -12.00000000 2.38107491 -0.30079979
v -12.00000000 -1.28598404 2.02638698
v -12.00000000 -2.10313606 1.15620899
v -12.00000000 -0.15069720 -2.39526391
v -12.00000000 -1.74952495 1.64291298
v -12.00000000 2.38107491 0.30079979
v -12.00000000 -0.74164081 -2.28253603
v -12.00000000 2.23146391 0.88349891
v -12.00000000 -1.28598404 -2.02638698
v -12.00000000 1.94164097 1.41068494
v -12.00000000 -1.74952495 -1.64291298
v -12.00000000 1.52981806 1.84923196
v -12.00000000 -2.10313606 -1.15620899
v -12.00000000 1.02187002 2.17158508
f 1 2 3
f 4 5 6
f 7 3 8
f 7 8 9
f 7 1 3
f 10 6 11
f 10 4 6
f 12 7 9
f 13 9 14
f 15 11 16
f 15 10 11
f 13 12 9
f 4 14 5
f 4 13 14
f 17 16 18
f 17 15 16
f 19 18 20
f 19 17 18
f 21 20 22
f 21 19 20
f 23 22 24
f 23 21 22
f 25 24 26
f 25 23 24
f 27 25 26
f 28 26 29
f 28 29 30
f 28 27 26
f 31 30 32
f 31 28 30
f 33 31 32
f 33 32 34
f 35 33 34
f 36 35 34
f 36 34 37
f 36 37 38
f 39 36 38
f 40 39 38
f 40 38 41
f 40 41 42
f 43 40 42
f 44 42 45
f 44 45 46
f 44 43 42
f 47 46 48
f 47 44 46
f 49 47 48
f 2 48 50
f 2 50 3
f 2 49 48
f 51 52 53
f 51 54 52
f 55 53 56
f 55 51 53
f 57 56 58
f 59 60 61
f 57 55 56
f 59 62 60
f 63 58 64
f 65 61 66
f 63 57 58
f 65 59 61
f 67 64 68
f 67 68 69
f 67 63 64
f 70 66 71
f 70 65 66
f 72 67 69
f 73 71 74
f 62 69 60
f 73 70 71
f 62 72 69
f 75 74 76
f 75 73 74
f 77 76 78
f 77 75 76
f 79 78 80
f 79 77 78
f 81 80 82
f 81 79 80
f 83 82 84
f 83 81 82
f 85 84 86
f 85 83 84
f 87 86 88
f 87 85 86
f 89 87 88
f 89 88 90
f 91 89 90
f 91 90 92
f 93 91 92
f 93 92 94
f 95 94 96
f 95 93 94
f 97 96 98
f 97 95 96
f 99 98 100
f 99 97 98
f 54 100 52
f 54 99 100
f 101 102 103
f 101 104 102
f 105 106 107
f 108 103 109
f 108 101 103
f 110 107 111
f 110 105 107
f 112 109 106
f 112 108 109
f 105 112 106
f 113 111 114
f 113 110 111
f 115 114 116
f 115 113 114
f 117 116 118
f 117 115 116
f 119 118 120
f 119 117 118
f 121 120 122
f 121 119 120
f 123 122 124
f 123 121 122
f 125 124 126
f 125 123 124
f 127 126 128
f 127 125 126
f 129 128 130
f 129 127 128
f 131 129 130
f 131 130 132
f 133 131 132
f 133 132 134
f 135 133 134
f 135 134 136
f 137 135 136
f 137 136 138
f 139 137 138
f 139 138 140
f 141 140 142
f 141 139 140
f 143 142 144
f 143 141 142
f 145 144 146
f 145 143 144
f 147 146 148
f 147 145 146
f 149 148 150
f 149 147 148
f 104 150 102
f 104 149 150
f 151 152 153
f 151 154 152
f 155 153 156
f 155 151 153
f 157 156 158
f 157 155 156
f 159 160 161
f 159 162 160
f 163 158 164
f 163 157 158
f 165 161 166
f 165 159 161
f 167 164 168
f 167 163 164
f 169 166 170
f 169 165 166
f 171 168 172
f 171 167 168
f 173 170 174
f 162 172 160
f 173 169 170
f 162 171 172
f 175 174 176
f 175 173 174
f 177 176 178
f 177 175 176
f 179 178 180
f 179 177 178
f 181 180 182
f 181 179 180
f 183 182 184
f 183 181 182
f 185 184 186
f 185 183 184
f 187 186 188
f 187 185 186
f 189 187 188
f 189 188 190
f 191 189 190
f 191 190 192
f 193 192 194
f 193 191 192
f 195 194 196
f 195 193 194
f 197 196 198
f 197 195 196
f 199 198 200
f 199 197 198
f 154 200 152
f 154 199 200
f 201 202 203
f 204 203 205
f 204 201 203
f 206 205 207
f 206 207 208
f 209 210 211
f 206 204 205
f 209 211 212
f 209 213 210
f 214 206 208
f 215 209 212
f 216 208 217
f 216 214 208
f 218 212 219
f 218 215 212
f 213 217 210
f 213 216 217
f 220 219 221
f 220 221 222
f 220 218 219
f 223 222 224
f 223 220 222
f 225 223 224
f 226 224 227
f 226 227 228
f 226 225 224
f 229 228 230
f 229 226 228
f 231 230 232
f 231 229 230
f 233 232 234
f 233 231 232
f 235 233 234
f 236 235 234
f 236 234 237
f 238 236 237
f 238 237 239
f 238 239 240
f 241 238 240
f 242 241 240
f 242 240 243
f 242 243 244
f 245 242 244
f 246 244 247
f 246 245 244
f 248 247 249
f 248 246 247
f 202 249 250
f 202 250 203
f 202 248 249
f 251 252 253
f 254 253 255
f 254 251 253
f 256 255 257
f 258 259 260
f 258 260 261
f 256 254 255
f 258 262 259
f 263 257 264
f 263 264 265
f 263 256 257
f 266 258 261
f 267 265 259
f 267 263 265
f 268 261 269
f 268 269 270
f 268 266 261
f 262 267 259
f 271 268 270
f 272 270 273
f 272 273 274
f 272 271 270
f 275 272 274
f 276 274 277
f 276 275 274
f 278 277 279
f 278 276 277
f 280 279 281
f 280 278 279
f 282 281 283
f 282 283 284
f 282 280 281
f 285 282 284
f 286 284 287
f 286 285 284
f 288 286 287
f 288 287 289
f 290 288 289
f 290 289 291
f 292 291 293
f 292 293 294
f 292 290 291
f 295 292 294
f 296 294 297
f 296 297 298
f 296 295 294
f 299 296 298
f 252 298 300
f 252 300 253
f 252 299 298
f 301 302 303
f 301 304 302
f 305 303 306
f 305 301 303
f 307 308 309
f 307 310 308
f 311 306 312
f 311 305 306
f 313 309 314
f 313 307 309
f 315 312 316
f 315 311 312
f 317 314 318
f 317 313 314
f 319 316 320
f 319 315 316
f 321 318 322
f 321 317 318
f 323 320 324
f 323 319 320
f 325 322 326
f 325 321 322
f 327 324 328
f 327 323 324
f 329 326 330
f 329 325 326
f 331 328 332
f 331 327 328
f 333 330 334
f 335 332 336
f 333 329 330
f 335 331 332
f 337 336 338
f 337 335 336
f 339 334 340
f 341 338 342
f 339 333 334
f 341 337 338
f 343 340 344
f 343 339 340
f 345 343 344
f 345 344 346
f 347 345 346
f 347 346 348
f 349 347 348
f 349 348 350
f 351 350 352
f 351 349 350
f 353 352 354
f 353 351 352
f 355 353 354
f 355 354 356
f 357 356 358
f 357 355 356
f 304 358 302
f 304 357 358
f 359 360 361
f 359 362 360
f 363 361 364
f 363 359 361
f 365 366 367
f 365 368 366
f 369 364 370
f 369 363 364
f 371 367 372
f 371 365 367
f 373 374 375
f 373 370 374
f 373 369 370
f 376 372 377
f 376 371 372
f 378 375 379
f 378 373 375
f 380 377 381
f 380 376 377
f 382 379 383
f 382 378 379
f 384 383 385
f 386 381 387
f 384 382 383
f 386 380 381
f 388 385 389
f 388 384 385
f 390 387 391
f 390 386 387
f 392 389 393
f 392 388 389
f 394 391 395
f 396 393 397
f 394 390 391
f 396 392 393
f 398 396 397
f 399 395 400
f 399 394 395
f 401 400 402
f 401 399 400
f 403 401 402
f 403 402 404
f 405 403 404
f 405 404 406
f 407 405 406
f 407 406 408
f 409 408 410
f 409 407 408
f 411 410 412
f 411 409 410
f 413 411 412
f 413 412 414
f 415 414 416
f 415 413 414
f 362 416 360
f 362 415 416
f 417 418 419
f 417 419 420
f 417 421 418
f 422 417 420
f 423 420 424
f 425 426 427
f 423 422 420
f 425 428 426
f 429 424 430
f 429 430 431
f 429 423 424
f 432 427 433
f 432 425 427
f 434 429 431
f 435 433 436
f 428 431 426
f 435 432 433
f 428 434 431
f 437 436 438
f 437 435 436
f 439 438 440
f 439 437 438
f 441 440 442
f 441 442 443
f 441 439 440
f 444 441 443
f 445 443 446
f 445 446 447
f 445 444 443
f 448 447 449
f 448 445 447
f 450 448 449
f 451 449 452
f 451 452 453
f 451 450 449
f 454 451 453
f 455 454 453
f 455 453 456
f 455 456 457
f 458 455 457
f 458 457 459
f 460 459 461
f 460 458 459
f 462 461 463
f 462 460 461
f 464 462 463
f 465 463 466
f 465 466 418
f 465 464 463
f 421 465 418
f 467 468 469
f 470 469 471
f 470 471 472
f 470 467 469
f 473 474 475
f 476 470 472
f 473 477 474
f 478 472 479
f 478 479 480
f 481 475 482
f 478 476 472
f 481 473 475
f 483 480 474
f 483 478 480
f 484 482 485
f 484 481 482
f 477 483 474
f 486 485 487
f 486 484 485
f 488 487 489
f 488 489 490
f 488 486 487
f 491 488 490
f 492 490 493
f 492 491 490
f 494 493 495
f 494 492 493
f 496 495 497
f 496 497 498
f 496 494 495
f 499 496 498
f 500 498 501
f 500 501 502
f 500 499 498
f 503 502 504
f 503 500 502
f 505 503 504
f 506 505 504
f 506 504 507
f 506 507 508
f 509 506 508
f 510 508 511
f 510 509 508
f 512 511 513
f 512 510 511
f 514 513 515
f 514 512 513
f 468 515 516
f 468 516 469
f 468 514 515
f 517 518 519
f 517 520 518
f 521 517 519
f 522 519 523
f 522 523 524
f 522 521 519
f 525 526 527
f 525 527 528
f 525 529 526
f 530 524 531
f 530 522 524
f 532 525 528
f 533 531 526
f 533 530 531
f 534 528 535
f 529 533 526
f 534 535 536
f 534 532 528
f 537 534 536
f 538 536 539
f 538 539 540
f 538 537 536
f 541 538 540
f 542 540 543
f 542 541 540
f 544 543 545
f 544 542 543
f 546 545 547
f 546 544 545
f 548 547 549
f 548 549 550
f 548 546 547
f 551 548 550
f 552 550 553
f 552 551 550
f 554 552 553
f 554 553 555
f 556 554 555
f 556 555 557
f 558 557 559
f 558 559 560
f 558 556 557
f 561 558 560
f 562 560 563
f 562 563 564
f 562 561 560
f 565 564 566
f 565 562 564
f 520 566 518
f 520 565 566
f 567 568 569
f 567 570 568
f 571 569 572
f 571 567 569
f 573 572 574
f 575 576 577
f 573 571 572
f 575 578 576
f 579 574 580
f 581 577 582
f 579 573 574
f 581 575 577
f 583 580 584
f 583 579 580
f 585 582 586
f 585 581 582
f 587 584 588
f 587 583 584
f 589 586 590
f 589 585 586
f 578 588 576
f 578 587 588
f 591 590 592
f 591 589 590
f 593 592 594
f 593 591 592
f 595 594 596
f 595 593 594
f 597 596 598
f 597 595 596
f 599 598 600
f 599 597 598
f 601 600 602
f 601 599 600
f 603 602 604
f 603 601 602
f 605 603 604
f 605 604 606
f 607 605 606
f 607 606 608
f 609 607 608
f 609 608 610
f 611 610 612
f 611 609 610
f 613 612 614
f 613 611 612
f 615 614 616
f 615 613 614
f 570 616 568
f 570 615 616
f 617 618 619
f 620 621 622
f 623 618 617
f 624 625 626
f 627 621 620
f 628 629 625
f 630 623 617
f 631 629 628
f 632 627 620
f 633 624 626
f 634 627 632
f 635 633 626
f 636 623 630
f 637 631 628
f 638 636 630
f 639 631 637
f 640 633 635
f 641 634 632
f 641 642 634
f 643 639 637
f 644 638 645
f 644 636 638
f 646 640 635
f 647 645 642
f 647 642 641
f 647 644 645
f 648 639 643
f 624 649 625
f 625 649 628
f 650 640 646
f 651 648 643
f 652 650 646
f 653 648 651
f 654 650 652
f 655 653 651
f 656 654 652
f 657 653 655
f 658 654 656
f 659 657 655
f 660 658 656
f 661 657 659
f 662 658 660
f 663 661 659
f 664 662 660
f 665 661 663
f 666 662 664
f 619 665 663
f 622 666 664
f 618 665 619
f 621 666 622
f 667 668 669
f 670 671 672
f 673 674 675
f 676 671 670
f 677 674 673
f 678 673 675
f 679 673 678
f 680 681 674
f 680 674 677
f 682 683 668
f 682 668 667
f 684 679 678
f 685 670 686
f 685 676 670
f 687 679 684
f 688 681 680
f 689 688 680
f 690 691 683
f 690 692 691
f 690 683 682
f 693 684 694
f 695 686 696
f 695 685 686
f 697 696 692
f 693 687 684
f 697 692 690
f 697 695 696
f 698 688 689
f 699 698 689
f 700 693 694
f 701 693 700
f 702 703 698
f 702 698 699
f 704 700 705
f 704 701 700
f 706 703 702
f 707 706 702
f 708 709 704
f 708 704 705
f 710 706 707
f 710 707 711
f 712 709 708
f 712 713 709
f 714 710 711
f 715 710 714
f 669 713 712
f 669 716 713
f 671 715 714
f 671 714 672
f 668 716 669
f 717 718 719
f 720 721 718
f 722 717 723
f 722 718 717
f 724 725 720
f 726 718 722
f 727 726 728
f 729 730 724
f 729 731 730
f 729 732 731
f 733 727 734
f 733 724 720
f 733 720 718
f 733 718 726
f 733 726 727
f 735 736 729
f 737 733 738
f 739 740 735
f 739 737 741
f 739 724 733
f 739 729 724
f 739 733 737
f 739 735 729
f 742 743 744
f 745 746 743
f 747 742 748
f 747 748 749
f 750 751 745
f 752 747 753
f 752 743 742
f 752 745 743
f 752 750 745
f 752 742 747
f 754 755 750
f 754 750 752
f 756 752 757
f 756 754 752
f 758 759 754
f 760 756 761
f 760 754 756
f 762 763 758
f 762 758 754
f 762 754 760
f 764 762 760
f 765 766 762
f 765 762 764
f 767 768 769
f 770 771 772
f 773 770 772
f 774 775 776
f 774 777 775
f 778 779 771
f 778 771 770
f 780 767 769
f 781 773 772
f 782 767 780
f 783 773 781
f 784 782 780
f 785 786 779
f 785 779 778
f 787 777 774
f 787 788 777
f 789 782 784
f 790 783 781
f 791 783 790
f 792 786 785
f 793 789 784
f 794 792 785
f 795 796 788
f 797 791 790
f 795 788 787
f 798 789 793
f 798 793 796
f 798 796 795
f 799 791 797
f 800 792 794
f 801 800 794
f 802 799 797
f 803 799 802
f 804 805 800
f 804 800 801
f 806 803 802
f 807 803 806
f 808 809 805
f 808 805 804
f 810 807 806
f 810 811 807
f 812 809 808
f 813 809 812
f 814 811 810
f 814 815 811
f 816 813 812
f 768 813 816
f 776 815 814
f 776 775 815
f 769 768 816
f 817 818 819
f 820 821 822
f 823 817 819
f 824 825 826
f 827 821 820
f 824 826 828
f 829 821 827
f 830 822 831
f 830 820 822
f 832 817 823
f 833 829 827
f 834 832 823
f 835 828 836
f 837 829 833
f 835 824 828
f 838 831 839
f 838 830 831
f 840 832 834
f 841 837 833
f 842 843 840
f 844 839 845
f 842 840 834
f 844 838 839
f 846 836 847
f 846 835 836
f 848 837 841
f 849 847 843
f 849 843 842
f 849 846 847
f 850 848 841
f 851 844 845
f 852 851 845
f 853 848 850
f 854 853 850
f 855 851 852
f 856 855 852
f 857 853 854
f 858 857 854
f 859 855 856
f 860 859 856
f 861 857 858
f 862 861 858
f 863 859 860
f 864 863 860
f 865 861 862
f 866 865 862
f 818 863 864
f 819 818 864
f 825 865 866
f 825 866 826
f 867 868 869
f 870 871 872
f 873 874 875
f 876 877 878
f 877 879 878
f 880 879 877
f 869 879 880
f 868 879 869
f 881 879 868
f 882 879 881
f 883 884 885
f 884 886 887
f 885 884 887
f 872 883 888
f 870 872 888
f 883 885 888
f 886 889 890
f 887 886 890
f 870 888 891
f 870 891 874
f 889 892 893
f 892 894 893
f 890 889 893
f 894 895 896
f 895 897 896
f 897 898 896
f 893 894 896
f 898 899 900
f 896 898 900
f 899 901 902
f 900 899 902
f 870 874 873
f 901 868 867
f 902 901 867
f 903 904 905
f 905 906 907
f 906 908 907
f 909 910 911
f 912 913 914
f 915 916 917
f 918 919 917
f 920 918 917
f 908 920 917
f 907 908 917
f 916 907 917
f 921 919 918
f 922 923 924
f 925 922 926
f 922 924 926
f 923 927 928
f 924 923 928
f 928 927 929
f 930 925 931
f 925 926 931
f 927 932 933
f 929 927 933
f 930 931 913
f 933 932 934
f 934 932 935
f 932 936 937
f 935 932 937
f 936 904 903
f 937 936 903
f 911 938 912
f 938 930 912
f 909 911 912
f 930 913 912
f 904 906 905
f 939 940 941
f 939 942 940
f 939 943 942
f 944 945 946
f 947 939 941
f 948 946 949
f 948 944 946
f 950 951 952
f 950 941 951
f 950 947 941
f 953 948 949
f 954 950 952
f 955 956 957
f 955 949 956
f 955 953 949
f 958 952 959
f 958 954 952
f 960 955 957
f 961 959 962
f 961 958 959
f 963 964 965
f 963 957 964
f 963 960 957
f 966 962 967
f 966 961 962
f 968 965 969
f 968 963 965
f 970 971 972
f 970 967 971
f 970 966 967
f 973 970 972
f 974 969 975
f 974 968 969
f 976 972 977
f 976 973 972
f 978 975 979
f 978 974 975
f 980 979 981
f 980 978 979
f 982 980 981
f 983 982 981
f 983 981 984
f 985 983 984
f 985 986 987
f 985 984 986
f 988 985 987
f 989 990 991
f 989 987 990
f 989 988 987
f 992 989 991
f 993 991 994
f 993 992 991
f 995 993 994
f 995 996 942
f 995 994 996
f 943 995 942
f 997 998 999
f 997 1000 998
f 1001 997 999
f 1002 1003 1004
f 1005 1006 1007
f 1005 999 1006
f 1005 1001 999
f 1008 1002 1004
f 1009 1007 1010
f 1009 1005 1007
f 1011 1012 1013
f 1011 1004 1012
f 1011 1008 1004
f 1014 1010 1015
f 1014 1009 1010
f 1016 1011 1013
f 1017 1015 1018
f 1017 1014 1015
f 1019 1013 1020
f 1021 1018 1022
f 1019 1016 1013
f 1021 1017 1018
f 1023 1024 1025
f 1026 1021 1022
f 1023 1020 1024
f 1023 1019 1020
f 1027 1022 1028
f 1027 1026 1022
f 1029 1023 1025
f 1030 1031 1032
f 1030 1028 1031
f 1030 1027 1028
f 1033 1030 1032
f 1034 1025 1035
f 1034 1029 1025
f 1036 1037 1038
f 1036 1035 1037
f 1036 1034 1035
f 1039 1038 1040
f 1039 1036 1038
f 1041 1040 1042
f 1041 1039 1040
f 1043 1041 1042
f 1044 1043 1042
f 1044 1045 1046
f 1044 1042 1045
f 1047 1044 1046
f 1047 1046 1048
f 1049 1047 1048
f 1049 1048 1050
f 1051 1049 1050
f 1051 1050 1052
f 1053 1051 1052
f 1054 1053 1052
f 1054 1052 1000
f 997 1054 1000
f 656 1055 1056
f 656 1056 1057
f 660 656 1057
f 660 1057 1058
f 660 1058 1059
f 660 1059 1060
f 652 1055 656
f 652 1061 1062
f 652 1062 1055
f 664 660 1060
f 664 1060 1063
f 664 1063 1064
f 646 1061 652
f 646 1065 1066
f 646 1066 1061
f 622 664 1064
f 622 1064 1067
f 622 1067 1068
f 635 1065 646
f 635 1069 1070
f 635 1070 1071
f 635 1071 1065
f 620 622 1068
f 626 1069 635
f 626 1072 1073
f 626 1073 1069
f 632 620 1068
f 625 1074 1075
f 625 1075 1072
f 625 1072 626
f 641 632 1068
f 629 1076 1074
f 629 1074 625
f 647 641 1068
f 1077 1076 629
f 631 1077 629
f 644 647 1068
f 1078 1077 631
f 1079 1078 631
f 1080 631 639
f 1080 1079 631
f 1081 1080 639
f 1082 1081 639
f 1082 639 648
f 1083 648 653
f 1083 653 657
f 1083 657 661
f 1083 661 665
f 1083 1082 648
f 1084 644 1068
f 860 644 1084
f 860 1084 864
f 819 864 1084
f 856 644 860
f 856 636 644
f 823 819 1084
f 852 636 856
f 852 623 636
f 834 1084 1085
f 834 1085 1086
f 834 823 1084
f 845 623 852
f 845 618 623
f 842 1086 1087
f 842 1087 1088
f 842 834 1086
f 839 618 845
f 839 665 618
f 849 1088 1089
f 849 1089 1090
f 849 842 1088
f 831 665 839
f 846 1090 1091
f 846 849 1090
f 1092 846 1091
f 835 846 1092
f 1093 835 1092
f 1094 835 1093
f 1095 835 1094
f 1095 824 835
f 1096 824 1095
f 1097 824 1096
f 1097 825 824
f 1098 1083 665
f 1098 665 831
f 1098 831 822
f 1098 822 821
f 1098 821 829
f 1098 829 837
f 1099 825 1097
f 1100 1098 837
f 1101 865 825
f 1101 825 1099
f 1102 837 848
f 1102 1100 837
f 1103 865 1101
f 1104 1102 848
f 1105 865 1103
f 1105 861 865
f 1106 1104 848
f 1106 848 853
f 1107 861 1105
f 1108 1106 853
f 1109 861 1107
f 1110 1108 853
f 1110 853 857
f 1111 861 1109
f 1111 857 861
f 1112 1110 857
f 1112 857 1111
f 1113 1114 1115
f 1116 1113 1115
f 1115 1114 1117
f 1118 1119 1117
f 1114 1118 1117
f 1116 1115 1120
f 1121 1116 1120
f 1122 1121 1120
f 1123 1124 1125
f 1126 1123 1125
f 1119 1126 1125
f 1117 1119 1125
f 1122 1120 1127
f 1128 1122 1127
f 1129 1128 1127
f 1125 1124 1130
f 1131 1132 1130
f 1124 1131 1130
f 1129 1127 1133
f 1134 1129 1133
f 1130 1132 1135
f 1136 1137 1135
f 1132 1136 1135
f 1134 1133 1138
f 1139 1140 1141
f 1137 1139 1141
f 1135 1137 1141
f 1134 1138 1142
f 1143 1144 1145
f 1140 1143 1145
f 1141 1140 1145
f 1145 1144 1146
f 1134 1142 1147
f 1145 1146 1148
f 1148 1146 1149
f 1134 1147 1150
f 1151 1148 1152
f 1148 1149 1152
f 1151 1152 1153
f 1154 1151 1155
f 1151 1153 1155
f 1154 1155 1156
f 1154 1156 1157
f 1158 1154 1157
f 1159 1158 1160
f 1161 1159 1160
f 1162 1161 1160
f 1163 1162 1160
f 1158 1157 1160
f 1134 1150 1164
f 1164 1165 1166
f 1165 1164 1167
f 1164 1150 1167
f 1150 1168 1167
f 1164 1166 1169
f 1167 1168 1170
f 1168 1171 1170
f 1164 1169 1172
f 1170 1171 1173
f 1171 1174 1173
f 1175 1164 1176
f 1177 1175 1176
f 1178 1177 1176
f 1164 1172 1176
f 1173 1174 1179
f 1174 1163 1179
f 1180 1178 1181
f 1182 1180 1181
f 1178 1176 1181
f 1163 1160 1183
f 1179 1163 1183
f 1184 1182 1185
f 1182 1181 1185
f 1184 1185 1186
f 1186 1185 1187
f 1186 1187 1188
f 1187 1189 1190
f 1188 1187 1190
f 1190 1189 1191
f 1191 1189 1192
f 1189 1193 1194
f 1192 1189 1194
f 1194 1193 1195
f 1183 1160 1196
f 1197 1198 1196
f 1198 1199 1196
f 1199 1200 1196
f 1200 1183 1196
f 1193 1201 1202
f 1195 1193 1202
f 1197 1196 1203
f 1204 1197 1203
f 1202 1201 1205
f 1204 1203 1206
f 1201 1207 1208
f 1205 1201 1208
f 1204 1206 1209
f 1210 1204 1209
f 1208 1207 1211
f 1210 1209 1212
f 1207 1213 1214
f 1211 1207 1214
f 1215 1210 1216
f 1210 1212 1216
f 1214 1213 1217
f 1215 1216 1218
f 1217 1213 1219
f 1213 1215 1220
f 1219 1213 1220
f 1215 1218 1220
f 1221 1222 1223
f 1224 1225 1226
f 1224 1226 1227
f 1224 1227 1228
f 1229 1221 1230
f 1231 1225 1224
f 1231 1232 1233
f 1231 1233 1225
f 1234 1229 1230
f 1235 1232 1231
f 1235 1236 1232
f 1237 1234 1230
f 1238 1236 1235
f 1239 1238 1235
f 1240 1238 1239
f 1241 1240 1239
f 1241 1239 1242
f 1243 1241 1242
f 1244 1245 1246
f 1244 1246 1247
f 1248 1249 1250
f 1248 1250 1245
f 1248 1245 1244
f 1251 1243 1242
f 1252 1247 1253
f 1252 1253 1254
f 1252 1254 1255
f 1256 1242 1257
f 1252 1244 1247
f 1256 1251 1242
f 1258 1256 1257
f 1259 1260 1261
f 1259 1261 1249
f 1262 1257 1263
f 1259 1249 1248
f 1262 1263 1264
f 1262 1264 1265
f 1262 1265 1266
f 1222 1255 1267
f 1262 1258 1257
f 1222 1267 1223
f 1268 1237 1230
f 1222 1252 1255
f 1268 1269 1270
f 1268 1270 1271
f 1268 1271 1237
f 1272 1266 1273
f 1272 1273 1274
f 1272 1274 1269
f 1272 1269 1268
f 1228 1227 1275
f 1272 1262 1266
f 1228 1275 1276
f 1228 1276 1260
f 1228 1260 1259
f 1221 1223 1230
f 1277 1278 1279
f 1280 1281 1282
f 1283 1280 1282
f 1284 1283 1282
f 1285 1279 1286
f 1282 1281 1287
f 1288 1289 1287
f 1281 1288 1287
f 1285 1286 1290
f 1287 1289 1291
f 1289 1292 1291
f 1285 1290 1293
f 1291 1292 1294
f 1291 1294 1295
f 1295 1294 1296
f 1295 1296 1297
f 1298 1295 1297
f 1298 1297 1299
f 1300 1301 1302
f 1303 1300 1302
f 1298 1299 1304
f 1305 1306 1307
f 1301 1305 1307
f 1302 1301 1307
f 1308 1298 1309
f 1310 1303 1311
f 1312 1310 1311
f 1298 1304 1309
f 1313 1312 1311
f 1308 1309 1314
f 1303 1302 1311
f 1315 1308 1316
f 1317 1315 1316
f 1318 1317 1316
f 1319 1318 1316
f 1320 1321 1322
f 1308 1314 1316
f 1306 1320 1322
f 1307 1306 1322
f 1285 1293 1323
f 1324 1325 1323
f 1326 1313 1278
f 1327 1324 1323
f 1277 1326 1278
f 1293 1327 1323
f 1313 1311 1278
f 1328 1319 1329
f 1330 1328 1329
f 1325 1330 1329
f 1323 1325 1329
f 1319 1316 1329
f 1331 1283 1284
f 1332 1331 1284
f 1321 1332 1284
f 1322 1321 1284
f 1285 1277 1279
f 1333 1334 1335
f 1334 1336 1335
f 1337 1338 1339
f 1340 1341 1342
f 1343 1338 1337
f 1340 1342 1344
f 1345 1338 1343
f 1346 1344 1342
f 1345 1347 1338
f 1348 1349 1350
f 1351 1341 1340
f 1348 1350 1352
f 1348 1352 1353
f 1348 1353 1354
f 1355 1346 1342
f 1348 1356 1349
f 1357 1347 1345
f 1358 1356 1341
f 1359 1348 1354
f 1358 1341 1351
f 1360 1342 1361
f 1360 1361 1362
f 1363 1347 1357
f 1360 1355 1342
f 1363 1364 1347
f 1365 1359 1354
f 1366 1356 1358
f 1365 1354 1367
f 1368 1362 1369
f 1368 1369 1370
f 1371 1364 1363
f 1368 1360 1362
f 1372 1365 1367
f 1373 1356 1366
f 1374 1375 1364
f 1374 1364 1371
f 1376 1367 1377
f 1376 1372 1367
f 1378 1370 1379
f 1378 1379 1380
f 1378 1368 1370
f 1381 1375 1374
f 1349 1356 1373
f 1382 1376 1377
f 1383 1384 1375
f 1383 1375 1381
f 1385 1380 1386
f 1387 1377 1384
f 1385 1378 1380
f 1387 1382 1377
f 1388 1384 1383
f 1389 1387 1384
f 1389 1384 1388
f 1390 1385 1386
f 1390 1391 1385
f 1392 1391 1390
f 1339 1391 1392
f 1339 1338 1391
f 1393 1394 1395
f 1395 1394 1396
f 1397 1398 1399
f 1396 1394 1400
f 1401 1397 1399
f 1394 1402 1400
f 1397 1401 1403
f 1404 1405 1406
f 1407 1404 1406
f 1408 1407 1406
f 1409 1408 1406
f 1399 1398 1410
f 1405 1411 1406
f 1400 1402 1412
f 1397 1403 1413
f 1398 1411 1414
f 1409 1406 1415
f 1410 1398 1414
f 1412 1402 1416
f 1417 1397 1418
f 1419 1417 1418
f 1402 1420 1416
f 1397 1413 1418
f 1409 1415 1421
f 1422 1409 1421
f 1414 1411 1423
f 1416 1420 1424
f 1425 1419 1426
f 1427 1425 1426
f 1422 1421 1428
f 1419 1418 1426
f 1420 1429 1430
f 1424 1420 1430
f 1423 1411 1431
f 1432 1422 1433
f 1422 1428 1433
f 1434 1427 1435
f 1436 1434 1435
f 1430 1429 1437
f 1427 1426 1435
f 1432 1433 1438
f 1437 1429 1439
f 1429 1440 1439
f 1431 1411 1405
f 1440 1432 1441
f 1432 1438 1441
f 1442 1436 1443
f 1439 1440 1444
f 1436 1435 1443
f 1440 1441 1445
f 1444 1440 1445
f 1443 1446 1447
f 1442 1443 1447
f 1447 1446 1448
f 1448 1446 1393
f 1446 1394 1393
f 1449 1450 1451
f 1450 1452 1451
f 1453 1454 1455
f 1456 1453 1457
f 1453 1455 1457
f 1458 1456 1459
f 1456 1457 1459
f 1460 1458 1461
f 1458 1459 1461
f 1460 1461 1462
f 1463 1460 1464
f 1465 1463 1464
f 1460 1462 1464
f 1465 1464 1466
f 1467 1468 1469
f 1470 1467 1469
f 1471 1470 1472
f 1470 1469 1472
f 1473 1471 1474
f 1471 1472 1474
f 1475 1473 1476
f 1473 1474 1476
f 1477 1475 1478
f 1475 1476 1478
f 1479 1477 1480
f 1477 1478 1480
f 1481 1482 1483
f 1481 1483 1484
f 1485 1481 1486
f 1481 1484 1486
f 1487 1485 1488
f 1485 1486 1488
f 1489 1487 1490
f 1487 1488 1490
f 1491 1489 1492
f 1489 1490 1492
f 1493 1491 1494
f 1491 1492 1494
f 1495 1496 1497
f 1498 1495 1497
f 1499 1498 1500
f 1498 1497 1500
f 1501 1499 1502
f 1499 1500 1502
f 1503 1501 1504
f 1501 1502 1504
f 1505 1503 1506
f 1507 1505 1506
f 1503 1504 1506
f 1507 1506 1508
f 1509 1510 1511
f 1512 1513 1510
f 1514 1515 1512
f 1516 1517 1518
f 1516 1509 1517
f 1519 1516 1520
f 1521 1522 1514
f 1521 1523 1522
f 1521 1524 1523
f 1525 1519 1526
f 1525 1516 1519
f 1527 1528 1521
f 1529 1530 1527
f 1529 1531 1532
f 1529 1525 1531
f 1529 1510 1509
f 1529 1514 1512
f 1529 1512 1510
f 1529 1509 1516
f 1529 1521 1514
f 1529 1516 1525
f 1529 1527 1521
f 1533 1530 1529
f 1534 1535 1536
f 1534 1537 1535
f 1538 1539 1540
f 1541 1539 1538
f 1542 1543 1544
f 1542 1544 1545
f 1546 1539 1541
f 1547 1540 1548
f 1547 1538 1540
f 1549 1546 1541
f 1550 1548 1551
f 1552 1553 1537
f 1550 1547 1548
f 1552 1537 1534
f 1554 1545 1555
f 1556 1546 1549
f 1554 1542 1545
f 1557 1553 1552
f 1558 1556 1549
f 1559 1551 1560
f 1559 1550 1551
f 1561 1557 1552
f 1561 1562 1557
f 1563 1556 1558
f 1564 1555 1565
f 1564 1554 1555
f 1566 1564 1565
f 1566 1562 1561
f 1567 1563 1558
f 1566 1565 1562
f 1568 1560 1569
f 1568 1559 1560
f 1570 1563 1567
f 1571 1570 1567
f 1572 1569 1573
f 1572 1568 1569
f 1574 1570 1571
f 1575 1574 1571
f 1576 1572 1573
f 1577 1576 1573
f 1578 1574 1575
f 1578 1575 1579
f 1580 1576 1577
f 1581 1580 1577
f 1582 1578 1579
f 1582 1579 1583
f 1535 1580 1581
f 1536 1535 1581
f 1543 1582 1583
f 1543 1583 1544
f 1584 1189 1585
f 1204 1586 1197
f 1193 1189 1584
f 1587 1167 1170
f 1588 1165 1167
f 1589 1586 1204
f 1166 1165 1588
f 1590 1193 1584
f 1591 1587 1170
f 1210 1589 1204
f 1173 1591 1170
f 1592 1589 1210
f 1593 1166 1588
f 1201 1193 1590
f 1169 1166 1593
f 1594 1201 1590
f 1595 1591 1173
f 1596 1169 1593
f 1215 1592 1210
f 1215 1597 1592
f 1179 1595 1173
f 1207 1594 1598
f 1207 1201 1594
f 1172 1169 1596
f 1213 1597 1215
f 1213 1598 1597
f 1213 1207 1598
f 1587 1599 1167
f 1167 1599 1588
f 1600 1595 1179
f 1601 1172 1596
f 1183 1600 1179
f 1176 1172 1601
f 1602 1600 1183
f 1603 1176 1601
f 1200 1602 1183
f 1181 1176 1603
f 1604 1602 1200
f 1605 1181 1603
f 1199 1604 1200
f 1185 1181 1605
f 1606 1604 1199
f 1607 1185 1605
f 1198 1606 1199
f 1187 1185 1607
f 1608 1606 1198
f 1585 1187 1607
f 1197 1608 1198
f 1189 1187 1585
f 1586 1608 1197
f 1609 1610 1611
f 1612 1613 1610
f 1614 1609 1615
f 1614 1615 1616
f 1617 1618 1612
f 1619 1614 1620
f 1619 1610 1609
f 1619 1612 1610
f 1619 1617 1612
f 1619 1609 1614
f 1621 1622 1617
f 1621 1617 1619
f 1623 1619 1624
f 1623 1621 1619
f 1625 1626 1621
f 1627 1623 1628
f 1627 1621 1623
f 1629 1630 1625
f 1629 1625 1621
f 1629 1621 1627
f 1631 1629 1627
f 1632 1633 1629
f 1632 1629 1631
f 1634 1635 1636
f 1637 1638 1639
f 1640 1638 1637
f 1641 1635 1634
f 1642 1643 1644
f 1645 1641 1634
f 1642 1646 1643
f 1647 1648 1643
f 1647 1643 1646
f 1649 1640 1637
f 1650 1640 1649
f 1651 1644 1652
f 1653 1641 1645
f 1651 1642 1644
f 1654 1655 1648
f 1656 1650 1649
f 1654 1648 1647
f 1657 1653 1645
f 1658 1651 1652
f 1659 1650 1656
f 1660 1653 1657
f 1661 1651 1658
f 1662 1663 1655
f 1664 1660 1657
f 1662 1655 1654
f 1665 1656 1666
f 1665 1666 1660
f 1665 1660 1664
f 1665 1659 1656
f 1667 1658 1668
f 1667 1661 1658
f 1669 1663 1662
f 1670 1669 1662
f 1671 1667 1668
f 1672 1667 1671
f 1673 1669 1670
f 1674 1673 1670
f 1675 1672 1671
f 1676 1672 1675
f 1677 1673 1674
f 1678 1677 1674
f 1679 1680 1676
f 1679 1676 1675
f 1681 1677 1678
f 1682 1677 1681
f 1636 1680 1679
f 1683 1636 1679
f 1639 1682 1681
f 1638 1682 1639
f 1634 1636 1683
f 1171 1168 1684
f 1154 1685 1151
f 1686 1685 1154
f 1687 1115 1117
f 1688 1120 1115
f 1689 1171 1684
f 1688 1115 1687
f 1174 1171 1689
f 1690 1687 1117
f 1691 1127 1120
f 1691 1120 1688
f 1158 1686 1154
f 1158 1692 1686
f 1125 1690 1117
f 1693 1174 1689
f 1163 1174 1693
f 1694 1690 1125
f 1695 1127 1691
f 1133 1127 1695
f 1696 1163 1693
f 1130 1694 1125
f 1159 1697 1692
f 1159 1692 1158
f 1698 1694 1130
f 1161 1699 1697
f 1161 1696 1699
f 1161 1697 1159
f 1700 1133 1695
f 1161 1162 1696
f 1696 1162 1163
f 1138 1133 1700
f 1135 1698 1130
f 1701 1698 1135
f 1702 1138 1700
f 1142 1138 1702
f 1141 1701 1135
f 1703 1701 1141
f 1704 1142 1702
f 1147 1142 1704
f 1145 1703 1141
f 1705 1703 1145
f 1706 1147 1704
f 1150 1147 1706
f 1148 1705 1145
f 1707 1705 1148
f 1708 1150 1706
f 1168 1150 1708
f 1151 1707 1148
f 1685 1707 1151
f 1684 1168 1708

