# https://github.com/mikedh/trimesh
mtllib material.mtl

o geometry0
usemtl material_0
v 12.00000000 16.70277977 19.80950928
v 12.00000000 16.51712036 20.08075905
v 17.00000000 16.65698051 19.86347008
v 17.00000000 16.49325943 20.13063049
v 12.00000000 16.95273018 19.59602928
v 17.00000000 16.88199043 19.64542007
v 11.98571014 18.71381950 20.01856995
v 11.99775028 18.58301926 19.83320999
v 17.00000000 18.58301926 19.83320999
v 12.00000000 17.24967957 19.45508957
v 17.00000000 17.15415955 19.49016953
v 11.96385956 18.81152916 20.22982979
v 17.00000000 18.75505066 20.09510040
v 12.00000000 17.57312012 19.39642906
v 17.00000000 17.45639038 19.40748978
v 11.92728043 18.87422943 20.50419044
v 17.00000000 18.85654068 20.39154053
v 12.00000000 17.90065002 19.42411995
v 17.00000000 17.76968002 19.40257072
v 11.88698959 18.87558937 20.77617073
v 17.00000000 18.88113022 20.70391083
v 12.00000000 18.20965004 19.53623009
v 17.00000000 18.07435989 19.47571945
v 11.84805965 18.81648064 21.04504967
v 17.00000000 18.82725906 21.01256943
v 12.00000000 18.47874069 19.72501945
v 17.00000000 18.35127068 19.62232971
v 11.80146027 18.52382088 21.52117920
v 11.81721020 18.69651031 21.30080986
v 17.00000000 18.69831085 21.29814911
v 11.80327034 18.31250000 21.69355965
v 17.00000000 18.50241089 21.54268074
v 11.82231998 18.06085014 21.81929970
v 17.00000000 18.25184059 21.73081017
v 11.85550976 17.78676033 21.88513947
v 17.00000000 17.96236038 21.85071945
v 11.89498043 17.51420975 21.88940048
v 17.00000000 17.65214920 21.89487076
v 17.00000000 17.34070969 21.86047935
v 11.93517971 17.24542046 21.83326912
v 17.00000000 17.04759979 21.74972916
v 11.97000027 16.98868942 21.71632957
v 17.00000000 16.79125023 21.56955910
v 11.99248028 16.76635933 21.54602051
v 17.00000000 16.58776093 21.33130074
v 12.00000000 16.59145927 21.33690071
v 12.00000000 16.44709015 21.04159927
v 17.00000000 16.44990921 21.04991913
v 12.00000000 16.38470078 20.71887016
v 17.00000000 16.38636971 20.74309921
v 12.00000000 16.40859032 20.39102936
v 17.00000000 16.40113068 20.43011093
v -17.00000000 17.15415955 19.49016953
v -17.00000000 16.88199043 19.64542007
v -12.00000000 16.95273018 19.59602928
v -12.00000000 16.70277977 19.80950928
v -17.00000000 17.45639038 19.40748978
v -12.00000000 17.24967957 19.45508957
v -17.00000000 18.75505066 20.09510040
v -17.00000000 18.58301926 19.83320999
v -11.98173046 18.73830032 20.06285095
v -11.99775028 18.58301926 19.83320999
v -17.00000000 17.76968002 19.40257072
v -12.00000000 17.57312012 19.39642906
v -17.00000000 18.85654068 20.39154053
v -11.95164967 18.84140968 20.32737923
v -17.00000000 18.07435989 19.47571945
v -12.00000000 17.90065002 19.42411995
v -17.00000000 18.88113022 20.70391083
v -11.91252041 18.88166046 20.60522079
v -17.00000000 18.35127068 19.62232971
v -12.00000000 18.20965004 19.53623009
v -17.00000000 18.82725906 21.01256943
v -11.87217045 18.86079025 20.87590981
v -12.00000000 18.47874069 19.72501945
v -17.00000000 18.69831085 21.29814911
v -11.83500004 18.77836037 21.14435005
v -17.00000000 18.50241089 21.54268074
v -11.80922985 18.63570976 21.39020920
v -17.00000000 18.25184059 21.73081017
v -11.80000019 18.44675064 21.59345055
v -17.00000000 17.96236038 21.85071945
v -11.80881023 18.21750069 21.74931908
v -11.83421993 17.95294952 21.85317993
v -17.00000000 17.65214920 21.89487076
v -11.87123013 17.67493057 21.89407921
v -17.00000000 17.34070969 21.86047935
v -11.91156006 17.40419006 21.87377930
v -11.95079994 17.13582993 21.79200935
v -17.00000000 17.04759979 21.74972916
v -11.98116970 16.88987923 21.65011024
v -17.00000000 16.79125023 21.56955910
v -17.00000000 16.58776093 21.33130074
v -11.99534035 16.72555923 21.50510025
v -17.00000000 16.44990921 21.04991913
v -12.00000000 16.59145927 21.33690071
v -12.00000000 16.44709015 21.04159927
v -17.00000000 16.38636971 20.74309921
v -17.00000000 16.40113068 20.43011093
v -12.00000000 16.38470078 20.71887016
v -17.00000000 16.49325943 20.13063049
v -12.00000000 16.40859032 20.39102936
v -17.00000000 16.65698051 19.86347008
v -12.00000000 16.51712036 20.08075905
v 12.00000000 11.61135960 12.56383991
v 17.00000000 11.30912971 12.64651966
v 17.00000000 11.61135960 12.56383991
v 12.00000000 12.22933006 12.63206005
v 12.00000000 11.92465019 12.55891991
v 17.00000000 11.92465019 12.55891991
v 12.00000000 12.91001987 13.25144005
v 12.00000000 12.73799038 12.98956013
v 17.00000000 12.73799038 12.98956013
v 12.00000000 12.50623989 12.77867985
v 17.00000000 12.22933006 12.63206005
v 12.00000000 13.01150990 13.54788017
v 17.00000000 12.91001987 13.25144005
v 17.00000000 12.50623989 12.77867985
v 12.00000000 13.03608990 13.86025047
v 17.00000000 13.01150990 13.54788017
v 12.00000000 12.98221970 14.16891956
v 17.00000000 13.03608990 13.86025047
v 12.00000000 12.85328007 14.45448971
v 17.00000000 12.98221970 14.16891956
v 12.00000000 12.65736961 14.69902992
v 17.00000000 12.85328007 14.45448971
v 12.00000000 12.40680981 14.88716030
v 17.00000000 12.65736961 14.69902992
v 12.00000000 12.11732006 15.00706959
v 17.00000000 12.40680981 14.88716030
v 12.00000000 11.80712032 15.05121040
v 17.00000000 12.11732006 15.00706959
v 12.00000000 11.49567986 15.01683044
v 17.00000000 11.80712032 15.05121040
v 12.00000000 11.20256996 14.90608025
v 17.00000000 11.49567986 15.01683044
v 12.00000000 10.94622040 14.72591019
v 17.00000000 11.20256996 14.90608025
v 17.00000000 10.94622040 14.72591019
v 12.00000000 10.74271965 14.48764992
v 17.00000000 10.74271965 14.48764992
v 12.00000000 10.60488033 14.20627022
v 17.00000000 10.60488033 14.20627022
v 12.00000000 10.54133987 13.89943981
v 12.00000000 10.55609989 13.58646011
v 17.00000000 10.54133987 13.89943981
v 12.00000000 10.64822960 13.28697968
v 17.00000000 10.55609989 13.58646011
v 12.00000000 10.81194019 13.01980972
v 17.00000000 10.64822960 13.28697968
v 12.00000000 11.03695965 12.80175972
v 17.00000000 10.81194019 13.01980972
v 12.00000000 11.30912971 12.64651966
v 17.00000000 11.03695965 12.80175972
v -17.00000000 11.03695965 12.80175972
v -17.00000000 10.81194019 13.01980972
v -12.00000000 11.03695965 12.80175972
v -12.00000000 10.81194019 13.01980972
v -17.00000000 11.30912971 12.64651966
v -12.00000000 11.30912971 12.64651966
v -17.00000000 11.61135960 12.56383991
v -12.00000000 11.61135960 12.56383991
v -17.00000000 12.91001987 13.25144005
v -17.00000000 12.73799038 12.98956013
v -12.00000000 12.91001987 13.25144005
v -12.00000000 12.73799038 12.98956013
v -17.00000000 11.92465019 12.55891991
v -12.00000000 11.92465019 12.55891991
v -17.00000000 13.01150990 13.54788017
v -12.00000000 13.01150990 13.54788017
v -17.00000000 12.22933006 12.63206005
v -12.00000000 12.22933006 12.63206005
v -17.00000000 13.03608990 13.86025047
v -12.00000000 13.03608990 13.86025047
v -17.00000000 12.50623989 12.77867985
v -12.00000000 12.50623989 12.77867985
v -17.00000000 12.98221970 14.16891956
v -12.00000000 12.98221970 14.16891956
v -17.00000000 12.85328007 14.45448971
v -12.00000000 12.85328007 14.45448971
v -17.00000000 12.65736961 14.69902992
v -12.00000000 12.65736961 14.69902992
v -17.00000000 12.40680981 14.88716030
v -12.00000000 12.40680981 14.88716030
v -17.00000000 12.11732006 15.00706959
v -12.00000000 12.11732006 15.00706959
v -17.00000000 11.80712032 15.05121040
v -12.00000000 11.80712032 15.05121040
v -17.00000000 11.49567986 15.01683044
v -12.00000000 11.49567986 15.01683044
v -17.00000000 11.20256996 14.90608025
v -12.00000000 11.20256996 14.90608025
v -12.00000000 10.94622040 14.72591019
v -17.00000000 10.94622040 14.72591019
v -12.00000000 10.74271965 14.48764992
v -17.00000000 10.74271965 14.48764992
v -12.00000000 10.60488033 14.20627022
v -17.00000000 10.60488033 14.20627022
v -17.00000000 10.54133987 13.89943981
v -12.00000000 10.54133987 13.89943981
v -17.00000000 10.55609989 13.58646011
v -12.00000000 10.55609989 13.58646011
v -17.00000000 10.64822960 13.28697968
v -12.00000000 10.64822960 13.28697968
v 7.50000000 37.39028931 40.97230148
v -7.50000000 37.39028931 40.97230148
v -7.50000000 37.99964142 41.11859131
v 7.50000000 36.76369858 40.98213959
v 7.50000000 39.01697159 41.83358002
v -7.50000000 39.01697159 41.83358002
v -7.50000000 39.36101913 42.35734940
v 7.50000000 37.99964142 41.11859131
v -7.50000000 38.55347061 41.41183090
v 7.50000000 39.36101913 42.35734940
v -7.50000000 39.56401062 42.95022964
v 7.50000000 38.55347061 41.41183090
v 7.50000000 39.56401062 42.95022964
v -7.50000000 39.61317825 43.57497025
v 7.50000000 39.61317825 43.57497025
v -7.50000000 39.50543976 44.19229889
v 7.50000000 39.50543976 44.19229889
v -7.50000000 39.24755859 44.76345062
v 7.50000000 39.24755859 44.76345062
v -7.50000000 38.85573959 45.25252151
v 7.50000000 38.85573959 45.25252151
v -7.50000000 38.35459900 45.62878036
v 7.50000000 38.35459900 45.62878036
v -7.50000000 37.77563858 45.86859131
v 7.50000000 37.77563858 45.86859131
v -7.50000000 37.15522003 45.95689011
v 7.50000000 37.15522003 45.95689011
v -7.50000000 36.53234100 45.88813019
v 7.50000000 36.53234100 45.88813019
v -7.50000000 35.94612885 45.66661835
v 7.50000000 35.94612885 45.66661835
v -7.50000000 35.43341827 45.30627823
v 7.50000000 35.43341827 45.30627823
v -7.50000000 35.02643967 44.82976151
v 7.50000000 35.02643967 44.82976151
v -7.50000000 34.75074005 44.26699066
v 7.50000000 34.75074005 44.26699066
v -7.50000000 34.62366104 43.65335083
v 7.50000000 34.62366104 43.65335083
v -7.50000000 34.65317917 43.02738190
v 7.50000000 34.65317917 43.02738190
v -7.50000000 34.83744812 42.42842102
v 7.50000000 34.83744812 42.42842102
v -7.50000000 35.16487885 41.89408875
v 7.50000000 35.16487885 41.89408875
v -7.50000000 35.61491013 41.45798874
v 7.50000000 35.61491013 41.45798874
v -7.50000000 36.15924835 41.14749908
v 7.50000000 36.15924835 41.14749908
v -7.50000000 36.76369858 40.98213959
v -12.00000000 35.67494965 41.53796005
v -12.69999981 35.24291992 41.95661926
v -12.69999981 35.67494965 41.53796005
v -12.69999981 36.19752121 41.23989105
v -12.00000000 35.24291992 41.95661926
v -12.00000000 36.19752121 41.23989105
v -12.00000000 36.77779007 41.08113861
v -12.69999981 36.77779007 41.08113861
v -12.69999981 37.37931824 41.07168961
v -12.00000000 39.27122116 42.40134811
v -12.69999981 38.94092941 41.89852905
v -12.69999981 39.27122116 42.40134811
v -12.00000000 38.94092941 41.89852905
v -12.00000000 37.37931824 41.07168961
v -12.00000000 39.46609116 42.97050858
v -12.69999981 39.46609116 42.97050858
v -12.00000000 37.96429825 41.21213913
v -12.69999981 37.96429825 41.21213913
v -12.00000000 39.51329041 43.57025909
v -12.69999981 39.51329041 43.57025909
v -12.00000000 38.49597168 41.49364090
v -12.69999981 38.49597168 41.49364090
v -12.00000000 39.40985870 44.16289902
v -12.69999981 39.40985870 44.16289902
v -12.69999981 39.16228867 44.71120071
v -12.00000000 39.16228867 44.71120071
v -12.00000000 38.78615189 45.18069839
v -12.69999981 38.78615189 45.18069839
v -12.00000000 38.30506134 45.54191971
v -12.69999981 38.30506134 45.54191971
v -12.00000000 37.74924850 45.77214050
v -12.69999981 37.74924850 45.77214050
v -12.00000000 37.15364838 45.85689926
v -12.69999981 37.15364838 45.85689926
v -12.00000000 36.55569077 45.79088974
v -12.69999981 36.55569077 45.79088974
v -12.00000000 35.99291992 45.57823944
v -12.69999981 35.99291992 45.57823944
v -12.00000000 35.50072861 45.23231888
v -12.69999981 35.50072861 45.23231888
v -12.00000000 35.11001968 44.77486038
v -12.69999981 35.11001968 44.77486038
v -12.00000000 34.84534836 44.23460007
v -12.69999981 34.84534836 44.23460007
v -12.00000000 34.72335052 43.64550018
v -12.69999981 34.72335052 43.64550018
v -12.00000000 34.75168991 43.04457092
v -12.69999981 34.75168991 43.04457092
v -12.69999981 34.92858887 42.46957016
v -12.00000000 34.92858887 42.46957016
v -12.69999981 36.15924835 41.14749908
v -13.50000000 36.15924835 41.14749908
v -13.50000000 36.76369858 40.98213959
v -12.69999981 35.61491013 41.45798874
v -12.69999981 36.76369858 40.98213959
v -12.69999981 37.39028931 40.97230148
v -13.50000000 37.39028931 40.97230148
v -12.69999981 39.36101913 42.35734940
v -13.50000000 39.01697159 41.83358002
v -13.50000000 39.36101913 42.35734940
v -12.69999981 39.01697159 41.83358002
v -12.69999981 37.99964142 41.11859131
v -13.50000000 37.99964142 41.11859131
v -12.69999981 39.56401062 42.95022964
v -13.50000000 39.56401062 42.95022964
v -12.69999981 38.55347061 41.41183090
v -13.50000000 38.55347061 41.41183090
v -12.69999981 39.61317825 43.57497025
v -13.50000000 39.61317825 43.57497025
v -12.69999981 39.50543976 44.19229889
v -13.50000000 39.50543976 44.19229889
v -12.69999981 39.24755859 44.76345062
v -13.50000000 39.24755859 44.76345062
v -12.69999981 38.85573959 45.25252151
v -13.50000000 38.85573959 45.25252151
v -13.50000000 38.35459900 45.62878036
v -12.69999981 38.35459900 45.62878036
v -13.50000000 37.77563858 45.86859131
v -12.69999981 37.77563858 45.86859131
v -12.69999981 37.15522003 45.95689011
v -13.50000000 37.15522003 45.95689011
v -13.50000000 36.53234100 45.88813019
v -12.69999981 36.53234100 45.88813019
v -12.69999981 35.94612885 45.66661835
v -13.50000000 35.94612885 45.66661835
v -13.50000000 35.43341827 45.30627823
v -12.69999981 35.43341827 45.30627823
v -13.50000000 35.02643967 44.82976151
v -12.69999981 35.02643967 44.82976151
v -13.50000000 34.75074005 44.26699066
v -12.69999981 34.75074005 44.26699066
v -13.50000000 34.62366104 43.65335083
v -12.69999981 34.62366104 43.65335083
v -12.69999981 34.65317917 43.02738190
v -13.50000000 34.65317917 43.02738190
v -13.50000000 34.83744812 42.42842102
v -12.69999981 34.83744812 42.42842102
v -12.69999981 35.16487885 41.89408875
v -13.50000000 35.16487885 41.89408875
v -13.50000000 35.61491013 41.45798874
v 12.69999981 36.19752121 41.23989105
v 12.00000000 36.19752121 41.23989105
v 12.00000000 36.77779007 41.08113861
v 12.69999981 35.67494965 41.53796005
v 12.69999981 36.77779007 41.08113861
v 12.00000000 37.37931824 41.07168961
v 12.69999981 37.37931824 41.07168961
v 12.00000000 37.96429825 41.21213913
v 12.69999981 39.27122116 42.40134811
v 12.00000000 38.94092941 41.89852905
v 12.00000000 39.27122116 42.40134811
v 12.69999981 38.94092941 41.89852905
v 12.69999981 37.96429825 41.21213913
v 12.00000000 38.49597168 41.49364090
v 12.69999981 39.46609116 42.97050858
v 12.00000000 39.46609116 42.97050858
v 12.69999981 38.49597168 41.49364090
v 12.69999981 39.51329041 43.57025909
v 12.00000000 39.51329041 43.57025909
v 12.69999981 39.40985870 44.16289902
v 12.00000000 39.40985870 44.16289902
v 12.69999981 39.16228867 44.71120071
v 12.00000000 39.16228867 44.71120071
v 12.69999981 38.78615189 45.18069839
v 12.00000000 38.78615189 45.18069839
v 12.69999981 38.30506134 45.54191971
v 12.00000000 38.30506134 45.54191971
v 12.00000000 37.74924850 45.77214050
v 12.69999981 37.74924850 45.77214050
v 12.69999981 37.15364838 45.85689926
v 12.00000000 37.15364838 45.85689926
v 12.69999981 36.55569077 45.79088974
v 12.00000000 36.55569077 45.79088974
v 12.00000000 35.99291992 45.57823944
v 12.69999981 35.99291992 45.57823944
v 12.69999981 35.50072861 45.23231888
v 12.00000000 35.50072861 45.23231888
v 12.00000000 35.11001968 44.77486038
v 12.69999981 35.11001968 44.77486038
v 12.00000000 34.84534836 44.23460007
v 12.69999981 34.84534836 44.23460007
v 12.69999981 34.72335052 43.64550018
v 12.00000000 34.72335052 43.64550018
v 12.69999981 34.75168991 43.04457092
v 12.00000000 34.75168991 43.04457092
v 12.00000000 34.92858887 42.46957016
v 12.69999981 34.92858887 42.46957016
v 12.00000000 35.24291992 41.95661926
v 12.69999981 35.24291992 41.95661926
v 12.00000000 35.67494965 41.53796005
v 13.50000000 36.15924835 41.14749908
v 12.69999981 35.61491013 41.45798874
v 12.69999981 36.15924835 41.14749908
v 13.50000000 35.61491013 41.45798874
v 13.50000000 36.76369858 40.98213959
v 12.69999981 36.76369858 40.98213959
v 12.69999981 37.39028931 40.97230148
v 13.50000000 39.36101913 42.35734940
v 12.69999981 39.01697159 41.83358002
v 12.69999981 39.36101913 42.35734940
v 13.50000000 37.39028931 40.97230148
v 13.50000000 39.01697159 41.83358002
v 13.50000000 37.99964142 41.11859131
v 12.69999981 37.99964142 41.11859131
v 13.50000000 39.56401062 42.95022964
v 12.69999981 39.56401062 42.95022964
v 12.69999981 39.61317825 43.57497025
v 13.50000000 38.55347061 41.41183090
v 12.69999981 38.55347061 41.41183090
v 13.50000000 39.61317825 43.57497025
v 12.69999981 39.50543976 44.19229889
v 13.50000000 39.50543976 44.19229889
v 12.69999981 39.24755859 44.76345062
v 13.50000000 39.24755859 44.76345062
v 13.50000000 38.85573959 45.25252151
v 12.69999981 38.85573959 45.25252151
v 12.69999981 38.35459900 45.62878036
v 13.50000000 38.35459900 45.62878036
v 13.50000000 37.77563858 45.86859131
v 12.69999981 37.77563858 45.86859131
v 12.69999981 37.15522003 45.95689011
v 13.50000000 37.15522003 45.95689011
v 13.50000000 36.53234100 45.88813019
v 12.69999981 36.53234100 45.88813019
v 13.50000000 35.94612885 45.66661835
v 12.69999981 35.94612885 45.66661835
v 13.50000000 35.43341827 45.30627823
v 12.69999981 35.43341827 45.30627823
v 13.50000000 35.02643967 44.82976151
v 12.69999981 35.02643967 44.82976151
v 13.50000000 34.75074005 44.26699066
v 12.69999981 34.75074005 44.26699066
v 12.69999981 34.62366104 43.65335083
v 13.50000000 34.62366104 43.65335083
v 13.50000000 34.65317917 43.02738190
v 12.69999981 34.65317917 43.02738190
v 12.69999981 34.83744812 42.42842102
v 13.50000000 34.83744812 42.42842102
v 13.50000000 35.16487885 41.89408875
v 12.69999981 35.16487885 41.89408875
v -12.00000000 39.16133118 44.89471054
v -12.00000000 39.16228867 44.71120071
v -12.00000000 38.78615189 45.18069839
v -12.00000000 38.73957825 45.35821915
v -12.00000000 37.54578018 40.99443054
v -12.00000000 36.91981125 40.96490860
v -12.00000000 37.37931824 41.07168961
v -12.00000000 35.11001968 44.77486038
v -12.00000000 34.94438171 44.69585037
v -12.00000000 35.32064056 45.19697952
v -12.00000000 36.77779007 41.08113861
v -12.00000000 35.50072861 45.23231888
v -12.00000000 38.14474106 41.17869186
v -12.00000000 37.96429825 41.21213913
v -12.00000000 38.30506134 45.54191971
v -12.00000000 36.30615997 41.09199142
v -12.00000000 38.21580124 45.70227051
v -12.00000000 36.19752121 41.23989105
v -12.00000000 38.67906189 41.50611877
v -12.00000000 38.49597168 41.49364090
v -12.00000000 35.80971146 45.58879852
v -12.00000000 35.99291992 45.57823944
v -12.00000000 35.74340057 41.36767960
v -12.00000000 37.74924850 45.77214050
v -12.00000000 35.67494965 41.53796005
v -12.00000000 38.94092941 41.89852905
v -12.00000000 37.62292099 45.90525818
v -12.00000000 37.15364838 45.85689926
v -12.00000000 36.55569077 45.79088974
v -12.00000000 36.38085938 45.84667969
v -12.00000000 39.11516953 41.95615005
v -12.00000000 36.99819183 45.95442963
v -12.00000000 35.26688004 41.77466965
v -12.00000000 35.24291992 41.95661926
v -12.00000000 39.27122116 42.40134811
v -12.00000000 39.42565155 42.50048828
v -12.00000000 34.90653992 42.28738022
v -12.00000000 34.92858887 42.46957016
v -12.00000000 39.46609116 42.97050858
v -12.00000000 39.59101868 43.10494995
v -12.00000000 34.68503189 42.87358856
v -12.00000000 34.75168991 43.04457092
v -12.00000000 39.51329041 43.57025909
v -12.00000000 39.60086060 43.73154068
v -12.00000000 34.61626053 43.49647141
v -12.00000000 34.72335052 43.64550018
v -12.00000000 39.40985870 44.16289902
v -12.00000000 39.45457077 44.34088898
v -12.00000000 34.70455933 44.11687851
v -12.00000000 34.84534836 44.23460007
v 12.00000000 35.99291992 45.57823944
v 12.00000000 35.55284882 45.40827942
v 12.00000000 35.50072861 45.23231888
v 12.00000000 39.61565018 43.41793060
v 12.00000000 39.54687881 44.04080963
v 12.00000000 39.51329041 43.57025909
v 12.00000000 36.01610947 41.21213150
v 12.00000000 36.19752121 41.23989105
v 12.00000000 35.67494965 41.53796005
v 12.00000000 35.49234009 41.55619049
v 12.00000000 35.11674118 44.95824814
v 12.00000000 39.40985870 44.16289902
v 12.00000000 39.52735138 42.79751968
v 12.00000000 39.46609116 42.97050858
v 12.00000000 35.11001968 44.77486038
v 12.00000000 35.24291992 41.95661926
v 12.00000000 39.32537079 44.62702942
v 12.00000000 35.07057953 42.01969147
v 12.00000000 39.16228867 44.71120071
v 12.00000000 39.28752899 42.21855164
v 12.00000000 39.27122116 42.40134811
v 12.00000000 34.80625916 44.41390991
v 12.00000000 34.84534836 44.23460007
v 12.00000000 38.96503067 45.13972855
v 12.00000000 34.92858887 42.46957016
v 12.00000000 38.78615189 45.18069839
v 12.00000000 38.94092941 41.89852905
v 12.00000000 34.75168991 43.04457092
v 12.00000000 34.77735138 42.57350922
v 12.00000000 38.91127014 41.71741867
v 12.00000000 38.48851013 45.54671860
v 12.00000000 34.72335052 43.64550018
v 12.00000000 34.64089966 43.80944824
v 12.00000000 34.63105011 43.18286896
v 12.00000000 38.30506134 45.54191971
v 12.00000000 38.49597168 41.49364090
v 12.00000000 38.42219925 41.32559967
v 12.00000000 37.92575073 45.82241058
v 12.00000000 37.74924850 45.77214050
v 12.00000000 37.96429825 41.21213913
v 12.00000000 37.85105896 41.06771851
v 12.00000000 37.31209946 45.94948959
v 12.00000000 37.15364838 45.85689926
v 12.00000000 37.37931824 41.07168961
v 12.00000000 37.23371887 40.95998001
v 12.00000000 36.68613052 45.91997147
v 12.00000000 36.55569077 45.79088974
v 12.00000000 36.77779007 41.08113861
v 12.00000000 36.60898972 41.00914001
v 12.00000000 36.08716965 45.73571014
v -17.00000000 11.92465019 12.55891991
v -17.00000000 13.08481979 6.08173800
v -17.00000000 11.61135960 12.56383991
v -17.00000000 12.22933006 12.63206005
v -17.00000000 12.65736961 14.69902992
v -17.00000000 12.40680981 14.88716030
v -17.00000000 16.65698051 19.86347008
v -17.00000000 11.30912971 12.64651966
v -17.00000000 16.88199043 19.64542007
v -17.00000000 12.50623989 12.77867985
v -17.00000000 16.49325943 20.13063049
v -17.00000000 11.03695965 12.80175972
v -17.00000000 12.11732006 15.00706959
v -17.00000000 12.73799038 12.98956013
v -17.00000000 16.40113068 20.43011093
v -17.00000000 11.80712032 15.05121040
v -17.00000000 12.91001987 13.25144005
v -17.00000000 16.38636971 20.74309921
v -17.00000000 11.49567986 15.01683044
v -17.00000000 13.01150990 13.54788017
v -17.00000000 11.20256996 14.90608025
v -17.00000000 3.95994592 13.87510967
v -17.00000000 16.44990921 21.04991913
v -17.00000000 16.58776093 21.33130074
v -17.00000000 10.60488033 14.20627022
v -17.00000000 10.54133987 13.89943981
v -17.00000000 10.55609989 13.58646011
v -17.00000000 10.64822960 13.28697968
v -17.00000000 10.81194019 13.01980972
v -17.00000000 18.58301926 19.83320999
v -17.00000000 18.75505066 20.09510040
v -17.00000000 27.16333961 22.56557083
v -17.00000000 18.85654068 20.39154053
v -17.00000000 18.88113022 20.70391083
v -17.00000000 18.82725906 21.01256943
v -17.00000000 10.74271965 14.48764992
v -17.00000000 18.69831085 21.29814911
v -17.00000000 18.50241089 21.54268074
v -17.00000000 18.35127068 19.62232971
v -17.00000000 10.94622040 14.72591019
v -17.00000000 18.25184059 21.73081017
v -17.00000000 18.03845978 30.35894012
v -17.00000000 17.96236038 21.85071945
v -17.00000000 17.65214920 21.89487076
v -17.00000000 17.34070969 21.86047935
v -17.00000000 17.04759979 21.74972916
v -17.00000000 16.79125023 21.56955910
v -17.00000000 13.03608990 13.86025047
v -17.00000000 17.76968002 19.40257072
v -17.00000000 17.45639038 19.40748978
v -17.00000000 12.98221970 14.16891956
v -17.00000000 18.07435989 19.47571945
v -17.00000000 12.85328007 14.45448971
v -17.00000000 17.15415955 19.49016953
v -12.00000000 0.47075459 -5.98150396
v -12.00000000 -0.31401569 -5.99177694
v -19.50000000 0.47075459 -5.98150396
v -12.00000000 1.24747002 -5.86888599
v -19.50000000 1.24747002 -5.86888599
v -19.50000000 2.00284100 -5.65584898
v -12.00000000 -5.03202295 3.26783395
v -12.00000000 -4.56243610 3.89668798
v -19.50000000 -4.56243610 3.89668798
v -19.50000000 -5.03202295 3.26783395
v -12.00000000 2.00284100 -5.65584898
v -12.00000000 2.72394300 -5.34603882
v -19.50000000 2.72394300 -5.34603882
v -12.00000000 -5.41551208 2.58306694
v -19.50000000 -5.41551208 2.58306694
v -12.00000000 3.39843702 -4.94475698
v -19.50000000 3.39843702 -4.94475698
v -19.50000000 4.01478386 -4.45886898
v -12.00000000 -5.70633888 1.85410202
v -19.50000000 -5.70633888 1.85410202
v -12.00000000 4.01478386 -4.45886898
v -19.50000000 4.56243610 -3.89668798
v -12.00000000 4.56243610 -3.89668798
v -12.00000000 -5.89952898 1.09341300
v -19.50000000 -5.89952898 1.09341300
v -12.00000000 -5.99177694 0.31401569
v -19.50000000 -5.99177694 0.31401569
v -12.00000000 -5.98150396 -0.47075459
v -19.50000000 -5.98150396 -0.47075459
v -12.00000000 -5.86888599 -1.24747002
v -19.50000000 -5.86888599 -1.24747002
v -12.00000000 -5.65584898 -2.00284100
v -19.50000000 -5.65584898 -2.00284100
v -12.00000000 -5.34603882 -2.72394300
v -19.50000000 -5.34603882 -2.72394300
v -12.00000000 -4.94475698 -3.39843702
v -19.50000000 -4.94475698 -3.39843702
v -12.00000000 -4.45886898 -4.01478386
v -19.50000000 -4.45886898 -4.01478386
v -12.00000000 -3.89668798 -4.56243610
v -19.50000000 -3.89668798 -4.56243610
v -12.00000000 -3.26783395 -5.03202295
v -19.50000000 -3.26783395 -5.03202295
v -19.50000000 -2.58306694 -5.41551208
v -12.00000000 -2.58306694 -5.41551208
v -12.00000000 -1.85410202 -5.70633888
v -19.50000000 -1.85410202 -5.70633888
v -19.50000000 -1.09341300 -5.89952898
v -12.00000000 -1.09341300 -5.89952898
v -19.50000000 -0.31401569 -5.99177694
v -7.50000000 36.64519882 49.43870163
v -12.00000000 37.42996979 49.44897842
v -12.00000000 36.64519882 49.43870163
v -7.50000000 37.42996979 49.44897842
v -7.50000000 35.86848831 49.32609177
v -12.00000000 35.86848831 49.32609177
v -7.50000000 41.67839050 39.56050873
v -12.00000000 41.67839050 39.56050873
v -12.00000000 42.14797974 40.18936920
v -7.50000000 35.11310959 49.11304855
v -12.00000000 35.11310959 49.11304855
v -7.50000000 42.14797974 40.18936920
v -12.00000000 42.53147125 40.87413025
v -7.50000000 34.39200974 48.80324173
v -12.00000000 34.39200974 48.80324173
v -7.50000000 42.53147125 40.87413025
v -12.00000000 42.82229996 41.60309982
v -7.50000000 33.71752167 48.40195847
v -12.00000000 33.71752167 48.40195847
v -7.50000000 42.82229996 41.60309982
v -12.00000000 43.01549149 42.36378860
v -7.50000000 33.10116959 47.91606903
v -12.00000000 33.10116959 47.91606903
v -7.50000000 43.01549149 42.36378860
v -12.00000000 43.10773087 43.14318848
v -7.50000000 32.55352020 47.35388947
v -12.00000000 32.55352020 47.35388947
v -7.50000000 43.10773087 43.14318848
v -12.00000000 43.09746170 43.92795944
v -7.50000000 43.09746170 43.92795944
v -7.50000000 42.98484039 44.70466995
v -12.00000000 42.98484039 44.70466995
v -7.50000000 42.77180099 45.46004105
v -12.00000000 42.77180099 45.46004105
v -7.50000000 42.46200180 46.18114090
v -12.00000000 42.46200180 46.18114090
v -7.50000000 42.06071091 46.85564041
v -12.00000000 42.06071091 46.85564041
v -7.50000000 41.57482147 47.47198105
v -12.00000000 41.57482147 47.47198105
v -7.50000000 41.01264191 48.01964188
v -12.00000000 41.01264191 48.01964188
v -7.50000000 40.38378906 48.48921967
v -12.00000000 40.38378906 48.48921967
v -7.50000000 39.69902039 48.87271118
v -12.00000000 39.69902039 48.87271118
v -7.50000000 38.97005844 49.16353989
v -12.00000000 38.97005844 49.16353989
v -7.50000000 38.20936966 49.35673141
v -12.00000000 38.20936966 49.35673141
v -19.50000000 -1.09341300 -5.89952898
v -19.50000000 0.47075459 -5.98150396
v -19.50000000 -0.31401569 -5.99177694
v -19.50000000 -3.26783395 -5.03202295
v -19.50000000 -1.85410202 -5.70633888
v -19.50000000 -2.58306694 -5.41551208
v -19.50000000 4.56243610 -3.89668798
v -19.50000000 4.01478386 -4.45886898
v -19.50000000 3.39843702 -4.94475698
v -19.50000000 2.72394300 -5.34603882
v -19.50000000 2.00284100 -5.65584898
v -19.50000000 1.24747002 -5.86888599
v -19.50000000 -4.94475698 -3.39843702
v -19.50000000 -3.89668798 -4.56243610
v -19.50000000 -4.45886898 -4.01478386
v -19.50000000 -5.86888599 -1.24747002
v -19.50000000 -5.34603882 -2.72394300
v -19.50000000 -5.65584898 -2.00284100
v -19.50000000 -5.99177694 0.31401569
v -19.50000000 -5.98150396 -0.47075459
v -19.50000000 -5.89952898 1.09341300
v -19.50000000 -5.03202295 3.26783395
v -19.50000000 -5.70633888 1.85410202
v -19.50000000 -5.41551208 2.58306694
v -19.50000000 -4.56243610 3.89668798
v -19.50000000 0.13150580 9.39258766
v -19.50000000 9.25637722 1.59921098
v 19.50000000 -0.31401569 -5.99177694
v 19.50000000 0.47075459 -5.98150396
v 19.50000000 -1.09341300 -5.89952898
v 19.50000000 -2.58306694 -5.41551208
v 19.50000000 -1.85410202 -5.70633888
v 19.50000000 -3.26783395 -5.03202295
v 19.50000000 3.39843702 -4.94475698
v 19.50000000 4.01478386 -4.45886898
v 19.50000000 4.56243610 -3.89668798
v 19.50000000 2.72394300 -5.34603882
v 19.50000000 2.00284100 -5.65584898
v 19.50000000 1.24747002 -5.86888599
v 19.50000000 -3.89668798 -4.56243610
v 19.50000000 -4.94475698 -3.39843702
v 19.50000000 -4.45886898 -4.01478386
v 19.50000000 -5.34603882 -2.72394300
v 19.50000000 -5.65584898 -2.00284100
v 19.50000000 -5.86888599 -1.24747002
v 19.50000000 -5.98150396 -0.47075459
v 19.50000000 -5.99177694 0.31401569
v 19.50000000 -5.89952898 1.09341300
v 19.50000000 -5.70633888 1.85410202
v 19.50000000 -5.03202295 3.26783395
v 19.50000000 -5.41551208 2.58306694
v 19.50000000 -4.56243610 3.89668798
v 19.50000000 9.25637722 1.59921098
v 19.50000000 0.13150580 9.39258766
v 19.50000000 0.47075459 -5.98150396
v 19.50000000 -0.31401569 -5.99177694
v 12.00000000 -0.31401569 -5.99177694
v 19.50000000 1.24747002 -5.86888599
v 12.00000000 0.47075459 -5.98150396
v 12.00000000 1.24747002 -5.86888599
v 19.50000000 -4.56243610 3.89668798
v 12.00000000 -4.56243610 3.89668798
v 12.00000000 -5.03202295 3.26783395
v 19.50000000 2.00284100 -5.65584898
v 12.00000000 2.00284100 -5.65584898
v 19.50000000 -5.03202295 3.26783395
v 12.00000000 -5.41551208 2.58306694
v 19.50000000 2.72394300 -5.34603882
v 12.00000000 2.72394300 -5.34603882
v 19.50000000 -5.41551208 2.58306694
v 12.00000000 -5.70633888 1.85410202
v 19.50000000 3.39843702 -4.94475698
v 12.00000000 3.39843702 -4.94475698
v 19.50000000 -5.70633888 1.85410202
v 12.00000000 -5.89952898 1.09341300
v 19.50000000 4.01478386 -4.45886898
v 12.00000000 4.01478386 -4.45886898
v 19.50000000 4.56243610 -3.89668798
v 12.00000000 4.56243610 -3.89668798
v 19.50000000 -5.89952898 1.09341300
v 12.00000000 -5.99177694 0.31401569
v 19.50000000 -5.99177694 0.31401569
v 12.00000000 -5.98150396 -0.47075459
v 19.50000000 -5.98150396 -0.47075459
v 12.00000000 -5.86888599 -1.24747002
v 19.50000000 -5.86888599 -1.24747002
v 12.00000000 -5.65584898 -2.00284100
v 19.50000000 -5.65584898 -2.00284100
v 19.50000000 -5.34603882 -2.72394300
v 12.00000000 -5.34603882 -2.72394300
v 19.50000000 -4.94475698 -3.39843702
v 12.00000000 -4.94475698 -3.39843702
v 19.50000000 -4.45886898 -4.01478386
v 12.00000000 -4.45886898 -4.01478386
v 19.50000000 -3.89668798 -4.56243610
v 12.00000000 -3.89668798 -4.56243610
v 19.50000000 -3.26783395 -5.03202295
v 12.00000000 -3.26783395 -5.03202295
v 19.50000000 -2.58306694 -5.41551208
v 12.00000000 -2.58306694 -5.41551208
v 19.50000000 -1.85410202 -5.70633888
v 12.00000000 -1.85410202 -5.70633888
v 19.50000000 -1.09341300 -5.89952898
v 12.00000000 -1.09341300 -5.89952898
v -9.50000000 15.78485012 27.72030067
v -16.16869926 19.83144951 32.45825958
v -16.52650070 19.41781044 31.97394943
v 5.90000010 21.14188957 33.99258041
v 5.12822104 20.93427086 33.74948883
v 7.00000000 16.21990013 28.22967911
v 4.30000019 20.86346054 33.66658020
v 8.29409504 16.10924911 28.10013008
v 17.00000000 18.03845978 30.35894012
v 11.82962990 13.81311035 25.41168976
v 12.00000000 12.97266006 24.42765045
v 12.00000000 32.55352020 47.35388947
v 7.50000000 32.55352020 47.35388947
v 12.00000000 22.94169044 36.09988022
v -7.50000000 32.55352020 47.35388947
v -12.00000000 32.55352020 47.35388947
v -7.50000000 22.94169044 36.09988022
v -16.78767014 18.97472000 31.45515060
v -4.30000019 20.86346054 33.66658020
v -16.94663048 18.51164055 30.91296005
v -17.00000000 18.03845978 30.35894012
v -11.33012962 14.59628010 26.32865906
v -10.53553009 15.26881027 27.11609077
v -11.82962990 13.81311035 25.41168976
v -7.39096308 22.40379906 35.47010040
v -12.00000000 22.94169044 36.09988022
v 17.00000000 3.95994592 13.87510967
v -12.00000000 12.97266006 24.42765045
v 19.50000000 -4.56243610 3.89668798
v 19.50000000 0.13150580 9.39258766
v 12.00000000 -4.56243610 3.89668798
v 17.97561073 2.46591997 12.12584019
v 17.44681931 2.90072608 12.63492966
v 17.11372948 3.41082001 13.23217010
v -7.07128096 21.90257072 34.88322830
v -12.13589001 22.34248924 35.39830017
v -17.00000000 3.95994592 13.87510967
v 7.50000000 22.94169044 36.09988022
v 7.39096308 22.40379906 35.47010040
v -6.56274223 21.47216034 34.37928009
v -12.53203011 21.79417992 34.75632095
v 12.13589001 22.34248924 35.39830017
v 12.53203011 21.79417992 34.75632095
v 7.07128096 21.90257072 34.88322830
v 6.56274223 21.47216034 34.37928009
v -17.11372948 3.41082001 13.23217010
v -12.00000000 -4.56243610 3.89668798
v -17.44681931 2.90072608 12.63492966
v 13.15476990 21.34333038 34.22843933
v -17.97561073 2.46591997 12.12584019
v -19.50000000 0.13150580 9.39258766
v -18.80183983 1.78653598 11.33038044
v -19.32229996 0.98951411 10.39719009
v -13.15476990 21.34333038 34.22843933
v -19.50000000 -4.56243610 3.89668798
v 19.32229996 0.98951411 10.39719009
v 18.80183983 1.78653598 11.33038044
v -5.12822104 20.93427086 33.74948883
v -7.00000000 16.21990013 28.22967911
v -5.90000010 21.14188957 33.99258041
v -8.29409504 16.10924911 28.10013008
v 16.94663048 18.51164055 30.91296005
v 9.50000000 15.78485012 27.72030067
v 16.78767014 18.97472000 31.45515060
v 16.52650070 19.41781044 31.97394943
v 16.16869926 19.83144951 32.45825958
v 15.72191048 20.20681953 32.89775848
v 10.53553009 15.26881027 27.11609077
v 15.19567013 20.53590012 33.28306961
v 14.60120964 20.81167030 33.60594940
v 13.95121956 21.02824020 33.85950851
v 11.33012962 14.59628010 26.32865906
v -13.95121956 21.02824020 33.85950851
v -14.60120964 20.81167030 33.60594940
v -15.19567013 20.53590012 33.28306961
v -15.72191048 20.20681953 32.89775848
v 12.00000000 36.64519882 49.43870163
v 12.00000000 37.42996979 49.44897842
v 7.50000000 37.42996979 49.44897842
v 7.50000000 36.64519882 49.43870163
v 12.00000000 35.86848831 49.32609177
v 12.00000000 41.67839050 39.56050873
v 7.50000000 41.67839050 39.56050873
v 7.50000000 42.14797974 40.18936920
v 7.50000000 35.86848831 49.32609177
v 12.00000000 35.11310959 49.11304855
v 12.00000000 42.14797974 40.18936920
v 7.50000000 42.53147125 40.87413025
v 7.50000000 35.11310959 49.11304855
v 12.00000000 34.39200974 48.80324173
v 12.00000000 42.53147125 40.87413025
v 7.50000000 42.82229996 41.60309982
v 7.50000000 34.39200974 48.80324173
v 12.00000000 33.71752167 48.40195847
v 7.50000000 33.71752167 48.40195847
v 12.00000000 42.82229996 41.60309982
v 7.50000000 43.01549149 42.36378860
v 12.00000000 33.10116959 47.91606903
v 7.50000000 33.10116959 47.91606903
v 12.00000000 43.01549149 42.36378860
v 7.50000000 43.10773087 43.14318848
v 12.00000000 32.55352020 47.35388947
v 7.50000000 32.55352020 47.35388947
v 12.00000000 43.10773087 43.14318848
v 7.50000000 43.09746170 43.92795944
v 12.00000000 43.09746170 43.92795944
v 12.00000000 42.98484039 44.70466995
v 7.50000000 42.98484039 44.70466995
v 12.00000000 42.77180099 45.46004105
v 7.50000000 42.77180099 45.46004105
v 12.00000000 42.46200180 46.18114090
v 7.50000000 42.46200180 46.18114090
v 12.00000000 42.06071091 46.85564041
v 7.50000000 42.06071091 46.85564041
v 12.00000000 41.57482147 47.47198105
v 7.50000000 41.57482147 47.47198105
v 12.00000000 41.01264191 48.01964188
v 7.50000000 41.01264191 48.01964188
v 12.00000000 40.38378906 48.48921967
v 7.50000000 40.38378906 48.48921967
v 12.00000000 39.69902039 48.87271118
v 7.50000000 39.69902039 48.87271118
v 12.00000000 38.97005844 49.16353989
v 7.50000000 38.97005844 49.16353989
v 12.00000000 38.20936966 49.35673141
v 7.50000000 38.20936966 49.35673141
v -12.00000000 4.56243610 -3.89668798
v -17.44681931 12.02560043 4.84155178
v -17.11372948 12.53569031 5.43879509
v -9.50000000 24.90973091 19.92692947
v -16.94663048 27.63651085 23.11957932
v -16.78767014 28.09959030 23.66177940
v -17.00000000 13.08481979 6.08173800
v 19.50000000 9.25637722 1.59921098
v 19.50000000 4.56243610 -3.89668798
v 12.00000000 4.56243610 -3.89668798
v -8.29409504 25.23413086 20.30674934
v -13.15476990 30.46820068 26.43506050
v -6.56274223 30.59703064 26.58589935
v 19.32229996 10.11439037 2.60381007
v 18.80183983 10.91141033 3.53700304
v -7.07128096 31.02743912 27.08984947
v -12.53203011 30.91905022 26.96294022
v 17.97561073 11.59078979 4.33245897
v 12.53203011 30.91905022 26.96294022
v 13.15476990 30.46820068 26.43506050
v 6.56274223 30.59703064 26.58589935
v -13.95121956 30.15311050 26.06613922
v 8.29409504 25.23413086 20.30674934
v 17.44681931 12.02560043 4.84155178
v -16.52650070 28.54268074 24.18057060
v 7.00000000 25.34477043 20.43630028
v 5.90000010 30.26675987 26.19920921
v -12.13589001 31.46735954 27.60493088
v 17.11372948 12.53569031 5.43879509
v 12.13589001 31.46735954 27.60493088
v 7.07128096 31.02743912 27.08984947
v -7.39096308 31.52866936 27.67671967
v 17.00000000 13.08481979 6.08173800
v -14.60120964 29.93654060 25.81257057
v 12.00000000 32.06655884 28.30649948
v 7.39096308 31.52866936 27.67671967
v -16.16869926 28.95631981 24.66488075
v -15.19567013 29.66077042 25.48969078
v 5.12822104 30.05913925 25.95611954
v -15.72191048 29.33168983 25.10438919
v 12.00000000 22.09753036 16.63426971
v 11.82962990 22.93798065 17.61831093
v 17.00000000 27.16333961 22.56557083
v 4.30000019 29.98833084 25.87321091
v -12.00000000 32.06655884 28.30649948
v 7.50000000 32.06655884 28.30649948
v 11.33012962 23.72114944 18.53528976
v -7.50000000 32.06655884 28.30649948
v -7.50000000 41.67839050 39.56050873
v 10.53553009 24.39368057 19.32271004
v -12.00000000 41.67839050 39.56050873
v -12.00000000 22.09753036 16.63426971
v 9.50000000 24.90973091 19.92692947
v 16.16869926 28.95631981 24.66488075
v 16.52650070 28.54268074 24.18057060
v -7.00000000 25.34477043 20.43630028
v -4.30000019 29.98833084 25.87321091
v 16.78767014 28.09959030 23.66177940
v 16.94663048 27.63651085 23.11957932
v 15.72191048 29.33168983 25.10438919
v -5.12822104 30.05913925 25.95611954
v 15.19567013 29.66077042 25.48969078
v 12.00000000 41.67839050 39.56050873
v 14.60120964 29.93654060 25.81257057
v -5.90000010 30.26675987 26.19920921
v 13.95121956 30.15311050 26.06613922
v -19.50000000 4.56243610 -3.89668798
v -19.50000000 9.25637722 1.59921098
v 7.50000000 41.67839050 39.56050873
v -19.32229996 10.11439037 2.60381007
v -18.80183983 10.91141033 3.53700304
v -17.97561073 11.59078979 4.33245897
v -10.53553009 24.39368057 19.32271004
v -17.00000000 27.16333961 22.56557083
v -11.33012962 23.72114944 18.53528976
v -11.82962990 22.93798065 17.61831093
v 4.30000019 29.98833084 25.87321091
v -4.30000019 29.98833084 25.87321091
v 4.30000019 20.86346054 33.66658020
v -4.30000019 20.86346054 33.66658020
v -7.50000000 41.67839050 39.56050873
v -7.50000000 38.55347061 41.41183090
v -7.50000000 37.99964142 41.11859131
v -7.50000000 37.77563858 45.86859131
v -7.50000000 38.20936966 49.35673141
v -7.50000000 37.15522003 45.95689011
v -7.50000000 37.42996979 49.44897842
v -7.50000000 37.39028931 40.97230148
v -7.50000000 36.64519882 49.43870163
v -7.50000000 36.53234100 45.88813019
v -7.50000000 35.86848831 49.32609177
v -7.50000000 35.11310959 49.11304855
v -7.50000000 35.94612885 45.66661835
v -7.50000000 34.39200974 48.80324173
v -7.50000000 43.09746170 43.92795944
v -7.50000000 42.98484039 44.70466995
v -7.50000000 39.61317825 43.57497025
v -7.50000000 43.10773087 43.14318848
v -7.50000000 42.77180099 45.46004105
v -7.50000000 42.46200180 46.18114090
v -7.50000000 39.50543976 44.19229889
v -7.50000000 33.71752167 48.40195847
v -7.50000000 43.01549149 42.36378860
v -7.50000000 39.56401062 42.95022964
v -7.50000000 35.43341827 45.30627823
v -7.50000000 42.82229996 41.60309982
v -7.50000000 33.10116959 47.91606903
v -7.50000000 34.65317917 43.02738190
v -7.50000000 34.62366104 43.65335083
v -7.50000000 32.55352020 47.35388947
v -7.50000000 34.75074005 44.26699066
v -7.50000000 35.02643967 44.82976151
v -7.50000000 32.06655884 28.30649948
v -7.50000000 42.06071091 46.85564041
v -7.50000000 41.57482147 47.47198105
v -7.50000000 39.24755859 44.76345062
v -7.50000000 36.76369858 40.98213959
v -7.50000000 36.15924835 41.14749908
v -7.50000000 35.61491013 41.45798874
v -7.50000000 42.53147125 40.87413025
v -7.50000000 39.36101913 42.35734940
v -7.50000000 42.14797974 40.18936920
v -7.50000000 22.94169044 36.09988022
v -7.50000000 35.16487885 41.89408875
v -7.50000000 34.83744812 42.42842102
v -7.50000000 41.01264191 48.01964188
v -7.50000000 38.85573959 45.25252151
v -7.50000000 39.01697159 41.83358002
v -7.50000000 40.38378906 48.48921967
v -7.50000000 39.69902039 48.87271118
v -7.50000000 38.35459900 45.62878036
v -7.50000000 38.97005844 49.16353989
v 7.50000000 42.46200180 46.18114090
v 7.50000000 39.24755859 44.76345062
v 7.50000000 42.06071091 46.85564041
v 7.50000000 41.57482147 47.47198105
v 7.50000000 38.85573959 45.25252151
v 7.50000000 35.43341827 45.30627823
v 7.50000000 35.02643967 44.82976151
v 7.50000000 32.55352020 47.35388947
v 7.50000000 34.75074005 44.26699066
v 7.50000000 34.62366104 43.65335083
v 7.50000000 41.67839050 39.56050873
v 7.50000000 32.06655884 28.30649948
v 7.50000000 37.39028931 40.97230148
v 7.50000000 34.65317917 43.02738190
v 7.50000000 22.94169044 36.09988022
v 7.50000000 41.01264191 48.01964188
v 7.50000000 38.35459900 45.62878036
v 7.50000000 36.76369858 40.98213959
v 7.50000000 33.10116959 47.91606903
v 7.50000000 37.99964142 41.11859131
v 7.50000000 40.38378906 48.48921967
v 7.50000000 36.15924835 41.14749908
v 7.50000000 38.55347061 41.41183090
v 7.50000000 35.94612885 45.66661835
v 7.50000000 33.71752167 48.40195847
v 7.50000000 35.61491013 41.45798874
v 7.50000000 37.77563858 45.86859131
v 7.50000000 39.69902039 48.87271118
v 7.50000000 42.14797974 40.18936920
v 7.50000000 39.01697159 41.83358002
v 7.50000000 34.39200974 48.80324173
v 7.50000000 38.97005844 49.16353989
v 7.50000000 35.16487885 41.89408875
v 7.50000000 36.53234100 45.88813019
v 7.50000000 35.11310959 49.11304855
v 7.50000000 42.53147125 40.87413025
v 7.50000000 39.36101913 42.35734940
v 7.50000000 42.82229996 41.60309982
v 7.50000000 38.20936966 49.35673141
v 7.50000000 37.15522003 45.95689011
v 7.50000000 35.86848831 49.32609177
v 7.50000000 34.83744812 42.42842102
v 7.50000000 37.42996979 49.44897842
v 7.50000000 43.01549149 42.36378860
v 7.50000000 39.56401062 42.95022964
v 7.50000000 36.64519882 49.43870163
v 7.50000000 43.10773087 43.14318848
v 7.50000000 39.61317825 43.57497025
v 7.50000000 43.09746170 43.92795944
v 7.50000000 42.98484039 44.70466995
v 7.50000000 39.50543976 44.19229889
v 7.50000000 42.77180099 45.46004105
v -12.00000000 16.40859032 20.39102936
v -12.00000000 16.38470078 20.71887016
v -12.00000000 12.97266006 24.42765045
v -12.00000000 16.44709015 21.04159927
v -12.00000000 16.59145927 21.33690071
v -12.00000000 -4.56243610 3.89668798
v -12.00000000 10.74271965 14.48764992
v -12.00000000 10.94622040 14.72591019
v -12.00000000 11.20256996 14.90608025
v -12.00000000 11.49567986 15.01683044
v -12.00000000 11.80712032 15.05121040
v -12.00000000 10.81194019 13.01980972
v -12.00000000 10.64822960 13.28697968
v -12.00000000 10.55609989 13.58646011
v -12.00000000 10.54133987 13.89943981
v -12.00000000 1.24747002 -5.86888599
v -12.00000000 2.00284100 -5.65584898
v -12.00000000 2.72394300 -5.34603882
v -12.00000000 0.47075459 -5.98150396
v -12.00000000 -0.31401569 -5.99177694
v -12.00000000 10.60488033 14.20627022
v -12.00000000 -1.09341300 -5.89952898
v -12.00000000 -3.26783395 -5.03202295
v -12.00000000 -1.85410202 -5.70633888
v -12.00000000 -2.58306694 -5.41551208
v -12.00000000 3.39843702 -4.94475698
v -12.00000000 4.01478386 -4.45886898
v -12.00000000 4.56243610 -3.89668798
v -12.00000000 -3.89668798 -4.56243610
v -12.00000000 -4.45886898 -4.01478386
v -12.00000000 12.50623989 12.77867985
v -12.00000000 22.09753036 16.63426971
v -12.00000000 12.73799038 12.98956013
v -12.00000000 -4.94475698 -3.39843702
v -12.00000000 -5.34603882 -2.72394300
v -12.00000000 13.03608990 13.86025047
v -12.00000000 13.01150990 13.54788017
v -12.00000000 12.91001987 13.25144005
v -12.00000000 17.57312012 19.39642906
v -12.00000000 12.98221970 14.16891956
v -12.00000000 17.90065002 19.42411995
v -12.00000000 -5.99177694 0.31401569
v -12.00000000 -5.98150396 -0.47075459
v -12.00000000 -5.89952898 1.09341300
v -12.00000000 -5.70633888 1.85410202
v -12.00000000 12.85328007 14.45448971
v -12.00000000 17.24967957 19.45508957
v -12.00000000 18.20965004 19.53623009
v -12.00000000 12.65736961 14.69902992
v -12.00000000 16.95273018 19.59602928
v -12.00000000 -5.65584898 -2.00284100
v -12.00000000 -5.86888599 -1.24747002
v -12.00000000 -5.41551208 2.58306694
v -12.00000000 18.47874069 19.72501945
v -12.00000000 -5.03202295 3.26783395
v -12.00000000 12.40680981 14.88716030
v -12.00000000 16.70277977 19.80950928
v -12.00000000 11.92465019 12.55891991
v -12.00000000 11.61135960 12.56383991
v -12.00000000 12.11732006 15.00706959
v -12.00000000 16.51712036 20.08075905
v -12.00000000 12.22933006 12.63206005
v -12.00000000 11.30912971 12.64651966
v -12.00000000 11.03695965 12.80175972
v -7.00000000 25.34477043 20.43630028
v 7.00000000 25.34477043 20.43630028
v -7.00000000 16.21990013 28.22967911
v 7.00000000 16.21990013 28.22967911
v 12.00000000 16.59145927 21.33690071
v 12.00000000 16.44709015 21.04159927
v 12.00000000 12.97266006 24.42765045
v 12.00000000 16.38470078 20.71887016
v 12.00000000 16.40859032 20.39102936
v 12.00000000 10.64822960 13.28697968
v 12.00000000 -4.56243610 3.89668798
v 12.00000000 10.55609989 13.58646011
v 12.00000000 11.80712032 15.05121040
v 12.00000000 11.49567986 15.01683044
v 12.00000000 11.20256996 14.90608025
v 12.00000000 10.94622040 14.72591019
v 12.00000000 10.74271965 14.48764992
v 12.00000000 10.54133987 13.89943981
v 12.00000000 -0.31401569 -5.99177694
v 12.00000000 -1.09341300 -5.89952898
v 12.00000000 -1.85410202 -5.70633888
v 12.00000000 10.60488033 14.20627022
v 12.00000000 1.24747002 -5.86888599
v 12.00000000 0.47075459 -5.98150396
v 12.00000000 2.72394300 -5.34603882
v 12.00000000 2.00284100 -5.65584898
v 12.00000000 -2.58306694 -5.41551208
v 12.00000000 3.39843702 -4.94475698
v 12.00000000 4.01478386 -4.45886898
v 12.00000000 -3.26783395 -5.03202295
v 12.00000000 -3.89668798 -4.56243610
v 12.00000000 -4.45886898 -4.01478386
v 12.00000000 4.56243610 -3.89668798
v 12.00000000 12.50623989 12.77867985
v 12.00000000 22.09753036 16.63426971
v 12.00000000 12.73799038 12.98956013
v 12.00000000 12.91001987 13.25144005
v 12.00000000 -4.94475698 -3.39843702
v 12.00000000 -5.34603882 -2.72394300
v 12.00000000 13.01150990 13.54788017
v 12.00000000 13.03608990 13.86025047
v 12.00000000 12.98221970 14.16891956
v 12.00000000 17.57312012 19.39642906
v 12.00000000 -5.65584898 -2.00284100
v 12.00000000 -5.86888599 -1.24747002
v 12.00000000 -5.98150396 -0.47075459
v 12.00000000 17.90065002 19.42411995
v 12.00000000 12.85328007 14.45448971
v 12.00000000 17.24967957 19.45508957
v 12.00000000 -5.99177694 0.31401569
v 12.00000000 -5.89952898 1.09341300
v 12.00000000 -5.70633888 1.85410202
v 12.00000000 18.20965004 19.53623009
v 12.00000000 12.65736961 14.69902992
v 12.00000000 16.95273018 19.59602928
v 12.00000000 -5.41551208 2.58306694
v 12.00000000 -5.03202295 3.26783395
v 12.00000000 18.47874069 19.72501945
v 12.00000000 12.40680981 14.88716030
v 12.00000000 16.70277977 19.80950928
v 12.00000000 11.92465019 12.55891991
v 12.00000000 11.61135960 12.56383991
v 12.00000000 12.22933006 12.63206005
v 12.00000000 12.11732006 15.00706959
v 12.00000000 16.51712036 20.08075905
v 12.00000000 11.30912971 12.64651966
v 12.00000000 11.03695965 12.80175972
v 12.00000000 10.81194019 13.01980972
v -12.00000000 42.46200180 46.18114090
v -12.00000000 42.06071091 46.85564041
v -12.00000000 41.57482147 47.47198105
v -12.00000000 41.67839050 39.56050873
v -12.00000000 32.06655884 28.30649948
v -12.00000000 32.55352020 47.35388947
v -12.00000000 22.94169044 36.09988022
v -12.00000000 41.01264191 48.01964188
v -12.00000000 33.10116959 47.91606903
v -12.00000000 40.38378906 48.48921967
v -12.00000000 42.14797974 40.18936920
v -12.00000000 33.71752167 48.40195847
v -12.00000000 39.69902039 48.87271118
v -12.00000000 34.39200974 48.80324173
v -12.00000000 42.53147125 40.87413025
v -12.00000000 42.82229996 41.60309982
v -12.00000000 38.97005844 49.16353989
v -12.00000000 35.11310959 49.11304855
v -12.00000000 38.20936966 49.35673141
v -12.00000000 43.01549149 42.36378860
v -12.00000000 43.10773087 43.14318848
v -12.00000000 35.86848831 49.32609177
v -12.00000000 37.42996979 49.44897842
v -12.00000000 36.64519882 49.43870163
v -12.00000000 43.09746170 43.92795944
v -12.00000000 42.98484039 44.70466995
v -12.00000000 42.77180099 45.46004105
v 17.00000000 16.65698051 19.86347008
v 17.00000000 16.49325943 20.13063049
v 17.00000000 12.40680981 14.88716030
v 17.00000000 12.65736961 14.69902992
v 17.00000000 18.88113022 20.70391083
v 17.00000000 27.16333961 22.56557083
v 17.00000000 18.82725906 21.01256943
v 17.00000000 18.07435989 19.47571945
v 17.00000000 13.01150990 13.54788017
v 17.00000000 13.08481979 6.08173800
v 17.00000000 18.35127068 19.62232971
v 17.00000000 12.91001987 13.25144005
v 17.00000000 12.73799038 12.98956013
v 17.00000000 18.85654068 20.39154053
v 17.00000000 12.50623989 12.77867985
v 17.00000000 18.69831085 21.29814911
v 17.00000000 12.11732006 15.00706959
v 17.00000000 18.75505066 20.09510040
v 17.00000000 16.40113068 20.43011093
v 17.00000000 18.03845978 30.35894012
v 17.00000000 18.50241089 21.54268074
v 17.00000000 12.22933006 12.63206005
v 17.00000000 16.38636971 20.74309921
v 17.00000000 11.80712032 15.05121040
v 17.00000000 11.92465019 12.55891991
v 17.00000000 18.58301926 19.83320999
v 17.00000000 18.25184059 21.73081017
v 17.00000000 16.44990921 21.04991913
v 17.00000000 11.49567986 15.01683044
v 17.00000000 11.61135960 12.56383991
v 17.00000000 17.96236038 21.85071945
v 17.00000000 11.20256996 14.90608025
v 17.00000000 17.65214920 21.89487076
v 17.00000000 11.30912971 12.64651966
v 17.00000000 17.34070969 21.86047935
v 17.00000000 11.03695965 12.80175972
v 17.00000000 17.04759979 21.74972916
v 17.00000000 16.79125023 21.56955910
v 17.00000000 16.58776093 21.33130074
v 17.00000000 3.95994592 13.87510967
v 17.00000000 10.94622040 14.72591019
v 17.00000000 10.74271965 14.48764992
v 17.00000000 10.60488033 14.20627022
v 17.00000000 10.54133987 13.89943981
v 17.00000000 10.55609989 13.58646011
v 17.00000000 10.64822960 13.28697968
v 17.00000000 10.81194019 13.01980972
v 17.00000000 17.76968002 19.40257072
v 17.00000000 17.45639038 19.40748978
v 17.00000000 13.03608990 13.86025047
v 17.00000000 17.15415955 19.49016953
v 17.00000000 12.98221970 14.16891956
v 17.00000000 12.85328007 14.45448971
v 17.00000000 16.88199043 19.64542007
v 12.00000000 38.97005844 49.16353989
v 12.00000000 38.20936966 49.35673141
v 12.00000000 39.69902039 48.87271118
v 12.00000000 41.67839050 39.56050873
v 12.00000000 37.42996979 49.44897842
v 12.00000000 36.64519882 49.43870163
v 12.00000000 35.86848831 49.32609177
v 12.00000000 35.11310959 49.11304855
v 12.00000000 34.39200974 48.80324173
v 12.00000000 43.10773087 43.14318848
v 12.00000000 43.09746170 43.92795944
v 12.00000000 43.01549149 42.36378860
v 12.00000000 33.71752167 48.40195847
v 12.00000000 42.98484039 44.70466995
v 12.00000000 42.77180099 45.46004105
v 12.00000000 33.10116959 47.91606903
v 12.00000000 42.82229996 41.60309982
v 12.00000000 42.53147125 40.87413025
v 12.00000000 32.55352020 47.35388947
v 12.00000000 32.06655884 28.30649948
v 12.00000000 42.46200180 46.18114090
v 12.00000000 42.06071091 46.85564041
v 12.00000000 22.94169044 36.09988022
v 12.00000000 42.14797974 40.18936920
v 12.00000000 41.57482147 47.47198105
v 12.00000000 41.01264191 48.01964188
v 12.00000000 40.38378906 48.48921967
v 17.44681931 2.90072608 12.63492966
v 17.97561073 2.46591997 12.12584019
v 17.97561073 11.59078979 4.33245897
v 17.44681931 12.02560043 4.84155178
v 17.11372948 3.41082001 13.23217010
v 17.11372948 12.53569031 5.43879509
v 17.00000000 3.95994592 13.87510967
v 17.00000000 13.08481979 6.08173800
v -17.00000000 3.95994592 13.87510967
v -17.00000000 13.08481979 6.08173800
v -17.11372948 12.53569031 5.43879509
v -17.11372948 3.41082001 13.23217010
v -17.44681931 2.90072608 12.63492966
v -17.44681931 12.02560043 4.84155178
v -17.97561073 2.46591997 12.12584019
v -17.97561073 11.59078979 4.33245897
v 13.15476990 21.34333038 34.22843933
v 13.95121956 21.02824020 33.85950851
v 13.95121956 30.15311050 26.06613922
v 12.53203011 21.79417992 34.75632095
v 13.15476990 30.46820068 26.43506050
v 12.13589001 22.34248924 35.39830017
v 12.53203011 30.91905022 26.96294022
v 12.00000000 22.94169044 36.09988022
v 12.13589001 31.46735954 27.60493088
v 12.00000000 32.06655884 28.30649948
v -12.00000000 22.94169044 36.09988022
v -12.00000000 32.06655884 28.30649948
v -12.13589001 31.46735954 27.60493088
v -12.13589001 22.34248924 35.39830017
v -12.53203011 21.79417992 34.75632095
v -12.53203011 30.91905022 26.96294022
v -13.15476990 21.34333038 34.22843933
v -13.15476990 30.46820068 26.43506050
v -13.95121956 21.02824020 33.85950851
v -13.95121956 30.15311050 26.06613922
v 13.95121956 30.15311050 26.06613922
v 13.95121956 21.02824020 33.85950851
v 14.60120964 20.81167030 33.60594940
v 14.60120964 29.93654060 25.81257057
v 15.19567013 29.66077042 25.48969078
v 15.19567013 20.53590012 33.28306961
v 15.72191048 29.33168983 25.10438919
v 15.72191048 20.20681953 32.89775848
v 16.16869926 28.95631981 24.66488075
v 16.16869926 19.83144951 32.45825958
v 16.52650070 28.54268074 24.18057060
v 16.52650070 19.41781044 31.97394943
v 16.78767014 28.09959030 23.66177940
v 16.78767014 18.97472000 31.45515060
v 16.94663048 27.63651085 23.11957932
v 16.94663048 18.51164055 30.91296005
v 17.00000000 27.16333961 22.56557083
v 17.00000000 18.03845978 30.35894012
v -17.00000000 27.16333961 22.56557083
v -17.00000000 18.03845978 30.35894012
v -16.94663048 18.51164055 30.91296005
v -16.94663048 27.63651085 23.11957932
v -16.78767014 18.97472000 31.45515060
v -16.78767014 28.09959030 23.66177940
v -16.52650070 19.41781044 31.97394943
v -16.52650070 28.54268074 24.18057060
v -16.16869926 19.83144951 32.45825958
v -16.16869926 28.95631981 24.66488075
v -15.72191048 20.20681953 32.89775848
v -15.72191048 29.33168983 25.10438919
v -15.19567013 20.53590012 33.28306961
v -15.19567013 29.66077042 25.48969078
v -14.60120964 20.81167030 33.60594940
v -14.60120964 29.93654060 25.81257057
v -13.95121956 21.02824020 33.85950851
v -13.95121956 30.15311050 26.06613922
v 17.97561073 11.59078979 4.33245897
v 17.97561073 2.46591997 12.12584019
v 18.80183983 1.78653598 11.33038044
v 18.80183983 10.91141033 3.53700304
v 19.32229996 0.98951411 10.39719009
v 19.32229996 10.11439037 2.60381007
v 19.50000000 0.13150580 9.39258766
v 19.50000000 9.25637722 1.59921098
v -19.50000000 9.25637722 1.59921098
v -19.50000000 0.13150580 9.39258766
v -19.32229996 0.98951411 10.39719009
v -19.32229996 10.11439037 2.60381007
v -18.80183983 1.78653598 11.33038044
v -18.80183983 10.91141033 3.53700304
v -17.97561073 2.46591997 12.12584019
v -17.97561073 11.59078979 4.33245897
v -12.00000000 12.97266006 24.42765045
v -12.00000000 16.59145927 21.33690071
v -11.99534035 16.72555923 21.50510025
v -11.98116970 16.88987923 21.65011024
v -11.82962990 13.81311035 25.41168976
v -11.95079994 17.13582993 21.79200935
v -11.91156006 17.40419006 21.87377930
v -11.99775028 18.58301926 19.83320999
v -12.00000000 18.47874069 19.72501945
v -12.00000000 22.09753036 16.63426971
v -11.98173046 18.73830032 20.06285095
v -11.95164967 18.84140968 20.32737923
v -11.87123013 17.67493057 21.89407921
v -11.83421993 17.95294952 21.85317993
v -11.80881023 18.21750069 21.74931908
v -11.80000019 18.44675064 21.59345055
v -11.33012962 14.59628010 26.32865906
v -11.91252041 18.88166046 20.60522079
v -11.82962990 22.93798065 17.61831093
v -11.87217045 18.86079025 20.87590981
v -11.83500004 18.77836037 21.14435005
v -11.80922985 18.63570976 21.39020920
v -10.53553009 15.26881027 27.11609077
v -11.33012962 23.72114944 18.53528976
v -9.50000000 15.78485012 27.72030067
v -10.53553009 24.39368057 19.32271004
v -8.29409504 16.10924911 28.10013008
v -9.50000000 24.90973091 19.92692947
v -7.00000000 16.21990013 28.22967911
v -8.29409504 25.23413086 20.30674934
v -7.00000000 25.34477043 20.43630028
v 8.29409504 16.10924911 28.10013008
v 7.00000000 16.21990013 28.22967911
v 7.00000000 25.34477043 20.43630028
v 9.50000000 15.78485012 27.72030067
v 8.29409504 25.23413086 20.30674934
v 10.53553009 15.26881027 27.11609077
v 9.50000000 24.90973091 19.92692947
v 11.33012962 14.59628010 26.32865906
v 10.53553009 24.39368057 19.32271004
v 11.33012962 23.72114944 18.53528976
v 11.82962990 13.81311035 25.41168976
v 11.80327034 18.31250000 21.69355965
v 11.82231998 18.06085014 21.81929970
v 11.80146027 18.52382088 21.52117920
v 11.85550976 17.78676033 21.88513947
v 11.89498043 17.51420975 21.88940048
v 11.93517971 17.24542046 21.83326912
v 12.00000000 12.97266006 24.42765045
v 11.97000027 16.98868942 21.71632957
v 11.99248028 16.76635933 21.54602051
v 11.81721020 18.69651031 21.30080986
v 11.82962990 22.93798065 17.61831093
v 11.84805965 18.81648064 21.04504967
v 11.88698959 18.87558937 20.77617073
v 11.92728043 18.87422943 20.50419044
v 11.96385956 18.81152916 20.22982979
v 12.00000000 16.59145927 21.33690071
v 11.98571014 18.71381950 20.01856995
v 12.00000000 22.09753036 16.63426971
v 11.99775028 18.58301926 19.83320999
v 12.00000000 18.47874069 19.72501945
v -5.12822104 20.93427086 33.74948883
v -4.30000019 20.86346054 33.66658020
v -4.30000019 29.98833084 25.87321091
v -5.90000010 21.14188957 33.99258041
v -5.12822104 30.05913925 25.95611954
v -6.56274223 21.47216034 34.37928009
v -5.90000010 30.26675987 26.19920921
v -7.07128096 21.90257072 34.88322830
v -6.56274223 30.59703064 26.58589935
v -7.39096308 22.40379906 35.47010040
v -7.07128096 31.02743912 27.08984947
v -7.39096308 31.52866936 27.67671967
v -7.50000000 22.94169044 36.09988022
v -7.50000000 32.06655884 28.30649948
v 7.50000000 22.94169044 36.09988022
v 7.50000000 32.06655884 28.30649948
v 7.39096308 31.52866936 27.67671967
v 7.39096308 22.40379906 35.47010040
v 7.07128096 21.90257072 34.88322830
v 7.07128096 31.02743912 27.08984947
v 6.56274223 21.47216034 34.37928009
v 6.56274223 30.59703064 26.58589935
v 5.90000010 21.14188957 33.99258041
v 5.90000010 30.26675987 26.19920921
v 5.12822104 20.93427086 33.74948883
v 5.12822104 30.05913925 25.95611954
v 4.30000019 20.86346054 33.66658020
v 4.30000019 29.98833084 25.87321091
v 13.50000000 34.83744812 42.42842102
v 13.50000000 34.62366104 43.65335083
v 13.50000000 34.65317917 43.02738190
v 13.50000000 35.02643967 44.82976151
v 13.50000000 34.75074005 44.26699066
v 13.50000000 36.15924835 41.14749908
v 13.50000000 35.16487885 41.89408875
v 13.50000000 35.61491013 41.45798874
v 13.50000000 35.94612885 45.66661835
v 13.50000000 35.43341827 45.30627823
v 13.50000000 37.39028931 40.97230148
v 13.50000000 36.76369858 40.98213959
v 13.50000000 38.55347061 41.41183090
v 13.50000000 37.15522003 45.95689011
v 13.50000000 36.53234100 45.88813019
v 13.50000000 37.99964142 41.11859131
v 13.50000000 38.35459900 45.62878036
v 13.50000000 37.77563858 45.86859131
v 13.50000000 39.36101913 42.35734940
v 13.50000000 39.01697159 41.83358002
v 13.50000000 39.24755859 44.76345062
v 13.50000000 38.85573959 45.25252151
v 13.50000000 39.56401062 42.95022964
v 13.50000000 39.61317825 43.57497025
v 13.50000000 39.50543976 44.19229889
v 12.69999981 35.02643967 44.82976151
v 12.69999981 35.11001968 44.77486038
v 12.69999981 34.84534836 44.23460007
v 12.69999981 37.37931824 41.07168961
v 12.69999981 37.39028931 40.97230148
v 12.69999981 36.76369858 40.98213959
v 12.69999981 38.85573959 45.25252151
v 12.69999981 39.16228867 44.71120071
v 12.69999981 38.78615189 45.18069839
v 12.69999981 39.24755859 44.76345062
v 12.69999981 35.50072861 45.23231888
v 12.69999981 36.77779007 41.08113861
v 12.69999981 37.96429825 41.21213913
v 12.69999981 37.99964142 41.11859131
v 12.69999981 35.43341827 45.30627823
v 12.69999981 38.30506134 45.54191971
v 12.69999981 38.35459900 45.62878036
v 12.69999981 36.19752121 41.23989105
v 12.69999981 36.15924835 41.14749908
v 12.69999981 35.99291992 45.57823944
v 12.69999981 38.49597168 41.49364090
v 12.69999981 38.55347061 41.41183090
v 12.69999981 37.74924850 45.77214050
v 12.69999981 35.94612885 45.66661835
v 12.69999981 35.61491013 41.45798874
v 12.69999981 37.77563858 45.86859131
v 12.69999981 35.67494965 41.53796005
v 12.69999981 37.15364838 45.85689926
v 12.69999981 38.94092941 41.89852905
v 12.69999981 39.01697159 41.83358002
v 12.69999981 36.53234100 45.88813019
v 12.69999981 36.55569077 45.79088974
v 12.69999981 35.16487885 41.89408875
v 12.69999981 37.15522003 45.95689011
v 12.69999981 35.24291992 41.95661926
v 12.69999981 39.36101913 42.35734940
v 12.69999981 39.27122116 42.40134811
v 12.69999981 34.92858887 42.46957016
v 12.69999981 34.83744812 42.42842102
v 12.69999981 39.46609116 42.97050858
v 12.69999981 39.56401062 42.95022964
v 12.69999981 34.65317917 43.02738190
v 12.69999981 34.75168991 43.04457092
v 12.69999981 39.51329041 43.57025909
v 12.69999981 39.61317825 43.57497025
v 12.69999981 34.62366104 43.65335083
v 12.69999981 34.72335052 43.64550018
v 12.69999981 39.40985870 44.16289902
v 12.69999981 39.50543976 44.19229889
v 12.69999981 34.75074005 44.26699066
v -13.50000000 38.55347061 41.41183090
v -13.50000000 37.99964142 41.11859131
v -13.50000000 37.39028931 40.97230148
v -13.50000000 35.61491013 41.45798874
v -13.50000000 36.76369858 40.98213959
v -13.50000000 36.15924835 41.14749908
v -13.50000000 35.16487885 41.89408875
v -13.50000000 39.36101913 42.35734940
v -13.50000000 39.01697159 41.83358002
v -13.50000000 34.62366104 43.65335083
v -13.50000000 34.83744812 42.42842102
v -13.50000000 34.65317917 43.02738190
v -13.50000000 39.50543976 44.19229889
v -13.50000000 39.56401062 42.95022964
v -13.50000000 39.61317825 43.57497025
v -13.50000000 34.75074005 44.26699066
v -13.50000000 35.43341827 45.30627823
v -13.50000000 35.02643967 44.82976151
v -13.50000000 38.35459900 45.62878036
v -13.50000000 38.85573959 45.25252151
v -13.50000000 39.24755859 44.76345062
v -13.50000000 35.94612885 45.66661835
v -13.50000000 37.77563858 45.86859131
v -13.50000000 37.15522003 45.95689011
v -13.50000000 36.53234100 45.88813019
v -12.69999981 34.75168991 43.04457092
v -12.69999981 34.62366104 43.65335083
v -12.69999981 34.65317917 43.02738190
v -12.69999981 38.85573959 45.25252151
v -12.69999981 38.35459900 45.62878036
v -12.69999981 38.30506134 45.54191971
v -12.69999981 38.78615189 45.18069839
v -12.69999981 34.72335052 43.64550018
v -12.69999981 34.83744812 42.42842102
v -12.69999981 39.16228867 44.71120071
v -12.69999981 34.92858887 42.46957016
v -12.69999981 39.36101913 42.35734940
v -12.69999981 39.27122116 42.40134811
v -12.69999981 38.94092941 41.89852905
v -12.69999981 34.84534836 44.23460007
v -12.69999981 34.75074005 44.26699066
v -12.69999981 39.01697159 41.83358002
v -12.69999981 39.24755859 44.76345062
v -12.69999981 35.16487885 41.89408875
v -12.69999981 39.46609116 42.97050858
v -12.69999981 35.24291992 41.95661926
v -12.69999981 35.02643967 44.82976151
v -12.69999981 39.40985870 44.16289902
v -12.69999981 35.11001968 44.77486038
v -12.69999981 35.61491013 41.45798874
v -12.69999981 39.56401062 42.95022964
v -12.69999981 39.50543976 44.19229889
v -12.69999981 35.67494965 41.53796005
v -12.69999981 39.61317825 43.57497025
v -12.69999981 39.51329041 43.57025909
v -12.69999981 35.43341827 45.30627823
v -12.69999981 35.50072861 45.23231888
v -12.69999981 36.19752121 41.23989105
v -12.69999981 36.15924835 41.14749908
v -12.69999981 35.99291992 45.57823944
v -12.69999981 35.94612885 45.66661835
v -12.69999981 36.76369858 40.98213959
v -12.69999981 36.77779007 41.08113861
v -12.69999981 36.55569077 45.79088974
v -12.69999981 36.53234100 45.88813019
v -12.69999981 37.39028931 40.97230148
v -12.69999981 37.37931824 41.07168961
v -12.69999981 37.15522003 45.95689011
v -12.69999981 37.15364838 45.85689926
v -12.69999981 37.99964142 41.11859131
v -12.69999981 37.96429825 41.21213913
v -12.69999981 37.77563858 45.86859131
v -12.69999981 37.74924850 45.77214050
v -12.69999981 38.55347061 41.41183090
v -12.69999981 38.49597168 41.49364090
f 1 2 3
f 2 4 3
f 5 1 6
f 7 8 9
f 1 3 6
f 10 5 11
f 12 7 13
f 5 6 11
f 7 9 13
f 14 10 15
f 16 12 17
f 10 11 15
f 12 13 17
f 18 14 19
f 20 16 21
f 14 15 19
f 16 17 21
f 22 18 23
f 18 19 23
f 24 20 25
f 20 21 25
f 26 22 27
f 22 23 27
f 8 26 9
f 26 27 9
f 28 29 30
f 29 24 30
f 24 25 30
f 31 28 32
f 28 30 32
f 33 31 34
f 31 32 34
f 35 33 36
f 33 34 36
f 37 35 38
f 35 36 38
f 37 38 39
f 40 37 39
f 40 39 41
f 42 40 41
f 42 41 43
f 44 42 43
f 44 43 45
f 46 44 45
f 47 46 48
f 46 45 48
f 49 47 50
f 47 48 50
f 51 49 52
f 49 50 52
f 2 51 4
f 51 52 4
f 53 54 55
f 54 56 55
f 57 53 58
f 53 55 58
f 59 60 61
f 60 62 61
f 63 57 64
f 57 58 64
f 65 59 66
f 59 61 66
f 67 63 68
f 63 64 68
f 69 65 70
f 65 66 70
f 71 67 72
f 67 68 72
f 73 69 74
f 69 70 74
f 60 71 75
f 71 72 75
f 60 75 62
f 76 73 77
f 73 74 77
f 78 76 79
f 76 77 79
f 80 78 81
f 78 79 81
f 82 80 83
f 80 81 83
f 82 83 84
f 85 82 86
f 82 84 86
f 87 85 88
f 85 86 88
f 87 88 89
f 90 87 89
f 90 89 91
f 92 90 91
f 93 92 94
f 92 91 94
f 95 93 96
f 93 94 96
f 95 96 97
f 98 95 97
f 99 98 100
f 98 97 100
f 101 99 102
f 99 100 102
f 103 101 104
f 101 102 104
f 54 103 56
f 103 104 56
f 105 106 107
f 108 109 110
f 109 107 110
f 111 112 113
f 114 108 115
f 108 110 115
f 116 111 117
f 111 113 117
f 112 114 118
f 114 115 118
f 112 118 113
f 119 116 120
f 116 117 120
f 121 119 122
f 119 120 122
f 123 121 124
f 121 122 124
f 125 123 126
f 123 124 126
f 127 125 128
f 125 126 128
f 129 127 130
f 127 128 130
f 131 129 132
f 129 130 132
f 133 131 134
f 131 132 134
f 135 133 136
f 133 134 136
f 137 135 138
f 135 136 138
f 137 138 139
f 140 137 139
f 140 139 141
f 142 140 141
f 142 141 143
f 144 142 143
f 145 144 146
f 144 143 146
f 147 145 148
f 145 146 148
f 149 147 150
f 147 148 150
f 151 149 152
f 149 150 152
f 153 151 154
f 151 152 154
f 105 153 106
f 153 154 106
f 109 105 107
f 155 156 157
f 156 158 157
f 159 155 160
f 155 157 160
f 161 159 162
f 163 164 165
f 159 160 162
f 164 166 165
f 167 161 168
f 169 163 170
f 161 162 168
f 163 165 170
f 171 167 172
f 167 168 172
f 173 169 174
f 169 170 174
f 175 171 176
f 171 172 176
f 177 173 178
f 173 174 178
f 164 175 166
f 175 176 166
f 179 177 180
f 177 178 180
f 181 179 182
f 179 180 182
f 183 181 184
f 181 182 184
f 185 183 186
f 183 184 186
f 187 185 188
f 185 186 188
f 189 187 190
f 187 188 190
f 191 189 192
f 189 190 192
f 191 192 193
f 194 191 193
f 194 193 195
f 196 194 195
f 196 195 197
f 198 196 197
f 199 198 200
f 198 197 200
f 201 199 202
f 199 200 202
f 203 201 204
f 201 202 204
f 156 203 158
f 203 204 158
f 205 206 207
f 205 208 206
f 209 210 211
f 212 207 213
f 212 205 207
f 214 211 215
f 214 209 211
f 216 213 210
f 216 212 213
f 209 216 210
f 217 215 218
f 217 214 215
f 219 218 220
f 219 217 218
f 221 220 222
f 221 219 220
f 223 222 224
f 223 221 222
f 225 224 226
f 225 223 224
f 227 226 228
f 227 225 226
f 229 228 230
f 229 227 228
f 231 230 232
f 231 229 230
f 233 232 234
f 233 231 232
f 235 234 236
f 235 233 234
f 237 235 236
f 237 236 238
f 239 237 238
f 239 238 240
f 241 240 242
f 241 239 240
f 243 242 244
f 243 241 242
f 245 244 246
f 245 243 244
f 247 246 248
f 247 245 246
f 249 248 250
f 249 247 248
f 251 250 252
f 251 249 250
f 253 252 254
f 253 251 252
f 208 254 206
f 208 253 254
f 255 256 257
f 255 257 258
f 255 259 256
f 260 255 258
f 261 258 262
f 261 262 263
f 261 260 258
f 264 265 266
f 264 267 265
f 268 261 263
f 269 266 270
f 269 264 266
f 271 263 272
f 271 268 263
f 273 270 274
f 273 269 270
f 275 272 276
f 275 276 265
f 275 271 272
f 267 275 265
f 277 274 278
f 277 278 279
f 277 273 274
f 280 277 279
f 281 279 282
f 281 280 279
f 283 282 284
f 283 281 282
f 285 284 286
f 285 283 284
f 287 286 288
f 287 285 286
f 289 288 290
f 289 287 288
f 291 290 292
f 291 289 290
f 293 291 292
f 293 292 294
f 295 293 294
f 295 294 296
f 297 295 296
f 297 296 298
f 299 298 300
f 299 297 298
f 301 300 302
f 301 302 303
f 301 299 300
f 304 301 303
f 259 303 256
f 259 304 303
f 305 306 307
f 305 308 306
f 309 305 307
f 310 307 311
f 312 313 314
f 310 309 307
f 312 315 313
f 316 311 317
f 316 310 311
f 318 314 319
f 318 312 314
f 320 317 321
f 320 316 317
f 322 319 323
f 322 318 319
f 315 321 313
f 315 320 321
f 324 323 325
f 324 322 323
f 326 325 327
f 326 324 325
f 328 327 329
f 328 329 330
f 328 326 327
f 331 330 332
f 331 328 330
f 333 331 332
f 334 332 335
f 334 335 336
f 334 333 332
f 337 334 336
f 338 336 339
f 338 339 340
f 338 337 336
f 341 338 340
f 341 340 342
f 343 342 344
f 343 341 342
f 345 343 344
f 345 344 346
f 347 345 346
f 348 346 349
f 348 349 350
f 348 347 346
f 351 348 350
f 352 350 353
f 352 351 350
f 308 353 354
f 308 354 306
f 308 352 353
f 355 356 357
f 355 358 356
f 359 357 360
f 359 355 357
f 361 360 362
f 363 364 365
f 361 359 360
f 363 366 364
f 367 362 368
f 367 361 362
f 369 365 370
f 369 363 365
f 371 368 364
f 371 367 368
f 372 370 373
f 366 371 364
f 372 369 370
f 374 373 375
f 374 372 373
f 376 375 377
f 376 374 375
f 378 377 379
f 378 376 377
f 380 379 381
f 380 381 382
f 380 378 379
f 383 380 382
f 384 382 385
f 384 383 382
f 386 385 387
f 386 387 388
f 386 384 385
f 389 386 388
f 390 389 388
f 390 388 391
f 390 391 392
f 393 390 392
f 393 392 394
f 395 393 394
f 396 395 394
f 396 394 397
f 398 397 399
f 398 396 397
f 398 399 400
f 401 400 402
f 401 398 400
f 403 402 404
f 403 401 402
f 358 404 356
f 358 403 404
f 405 406 407
f 405 408 406
f 409 407 410
f 409 410 411
f 409 405 407
f 412 413 414
f 415 409 411
f 412 416 413
f 417 411 418
f 419 414 420
f 417 415 411
f 419 420 421
f 419 412 414
f 422 418 423
f 422 423 413
f 422 417 418
f 424 421 425
f 424 419 421
f 416 422 413
f 426 425 427
f 426 424 425
f 428 426 427
f 429 427 430
f 429 430 431
f 429 428 427
f 432 429 431
f 433 431 434
f 433 434 435
f 433 432 431
f 436 433 435
f 437 435 438
f 437 436 435
f 439 438 440
f 439 437 438
f 441 439 440
f 441 440 442
f 443 441 442
f 443 442 444
f 445 443 444
f 445 444 446
f 445 446 447
f 448 445 447
f 449 447 450
f 449 450 451
f 449 448 447
f 452 449 451
f 453 451 454
f 453 454 406
f 453 452 451
f 408 453 406
f 455 456 457
f 455 457 458
f 459 460 461
f 462 463 464
f 461 460 465
f 462 464 466
f 467 459 468
f 459 461 468
f 458 457 469
f 465 460 470
f 458 469 471
f 465 470 472
f 473 467 474
f 466 464 475
f 467 468 474
f 476 466 475
f 472 470 477
f 471 469 478
f 472 477 479
f 473 474 480
f 471 478 481
f 478 482 481
f 483 476 484
f 473 480 485
f 476 475 484
f 481 482 486
f 479 477 487
f 482 483 486
f 483 484 486
f 479 487 488
f 485 480 489
f 485 489 490
f 488 487 491
f 488 491 492
f 490 489 493
f 490 493 494
f 492 491 495
f 492 495 496
f 494 493 497
f 494 497 498
f 496 495 499
f 496 499 500
f 498 497 501
f 498 501 502
f 500 499 503
f 500 503 504
f 502 501 456
f 502 456 455
f 504 503 463
f 504 463 462
f 505 506 507
f 508 509 510
f 511 512 513
f 511 513 514
f 507 506 515
f 510 509 516
f 517 508 518
f 507 515 519
f 508 510 518
f 514 513 520
f 516 509 521
f 514 520 522
f 516 521 523
f 524 517 525
f 517 518 525
f 519 515 526
f 527 519 526
f 523 521 528
f 522 520 529
f 523 528 530
f 524 525 531
f 529 532 533
f 524 531 534
f 522 529 533
f 530 528 535
f 536 527 537
f 527 526 537
f 533 532 538
f 532 536 538
f 530 535 539
f 536 537 538
f 534 531 540
f 534 540 541
f 539 535 542
f 539 542 543
f 541 540 544
f 541 544 545
f 543 542 546
f 543 546 547
f 545 544 548
f 545 548 549
f 547 546 550
f 547 550 551
f 549 548 552
f 549 552 553
f 551 550 554
f 551 554 505
f 553 552 512
f 553 512 511
f 505 554 506
f 555 556 557
f 556 555 558
f 559 560 561
f 557 556 562
f 563 559 561
f 556 558 564
f 561 560 565
f 562 556 566
f 560 567 565
f 556 564 568
f 565 567 569
f 567 570 569
f 556 568 571
f 569 570 572
f 570 573 572
f 556 571 574
f 575 576 577
f 572 573 577
f 573 575 577
f 577 576 578
f 579 580 576
f 580 581 576
f 581 582 576
f 582 583 576
f 583 566 576
f 584 585 586
f 566 556 576
f 585 587 586
f 587 588 586
f 588 589 586
f 579 576 590
f 589 591 586
f 591 592 586
f 556 593 586
f 593 584 586
f 590 576 594
f 594 576 575
f 592 595 596
f 595 597 596
f 597 598 596
f 598 599 596
f 599 600 596
f 600 601 596
f 601 578 596
f 586 592 596
f 578 576 596
f 574 602 603
f 603 602 604
f 602 605 604
f 574 603 606
f 556 574 606
f 605 607 608
f 604 605 608
f 556 606 593
f 608 607 563
f 607 559 563
f 609 610 611
f 612 609 611
f 612 613 614
f 612 611 613
f 615 616 617
f 615 617 618
f 619 612 614
f 620 614 621
f 622 618 623
f 620 619 614
f 622 615 618
f 624 625 626
f 624 621 625
f 624 620 621
f 627 623 628
f 627 622 623
f 629 626 630
f 629 624 626
f 631 629 630
f 632 628 633
f 632 627 628
f 634 633 635
f 634 632 633
f 636 635 637
f 636 634 635
f 638 637 639
f 638 636 637
f 640 639 641
f 640 638 639
f 642 641 643
f 642 640 641
f 644 643 645
f 644 642 643
f 646 645 647
f 646 644 645
f 648 646 647
f 648 647 649
f 650 648 649
f 650 651 652
f 650 649 651
f 653 650 652
f 654 653 652
f 654 655 656
f 654 652 655
f 657 654 656
f 610 657 656
f 610 658 611
f 610 656 658
f 659 660 661
f 659 662 660
f 663 661 664
f 665 666 667
f 663 659 661
f 668 664 669
f 670 667 671
f 668 663 664
f 670 665 667
f 672 669 673
f 674 671 675
f 672 668 669
f 674 670 671
f 676 673 677
f 678 675 679
f 676 672 673
f 678 674 675
f 680 677 681
f 680 676 677
f 682 679 683
f 684 680 681
f 684 681 685
f 682 678 679
f 686 683 687
f 686 682 683
f 688 686 687
f 689 687 690
f 689 688 687
f 691 690 692
f 691 689 690
f 693 692 694
f 693 691 692
f 695 694 696
f 695 693 694
f 697 696 698
f 697 695 696
f 699 697 698
f 699 698 700
f 701 699 700
f 701 700 702
f 703 701 702
f 703 702 704
f 705 703 704
f 705 704 706
f 707 706 708
f 707 705 706
f 662 708 660
f 662 707 708
f 709 710 711
f 712 713 714
f 715 716 717
f 715 717 718
f 715 718 719
f 715 719 720
f 715 720 710
f 715 709 713
f 715 710 709
f 715 713 712
f 721 712 722
f 721 722 723
f 721 715 712
f 724 721 725
f 724 725 726
f 724 715 721
f 727 724 728
f 729 724 727
f 730 729 731
f 730 731 732
f 730 715 724
f 730 724 729
f 733 715 730
f 734 735 715
f 734 715 733
f 736 737 738
f 739 740 741
f 742 743 744
f 745 742 744
f 746 745 744
f 747 746 744
f 737 747 744
f 740 738 744
f 738 737 744
f 741 740 744
f 748 741 749
f 750 748 749
f 751 749 752
f 741 744 752
f 749 741 752
f 752 744 753
f 754 753 755
f 755 753 756
f 757 756 758
f 759 757 758
f 753 744 758
f 756 753 758
f 758 744 760
f 744 761 762
f 760 744 762
f 763 764 765
f 766 767 768
f 766 763 767
f 769 770 771
f 772 768 773
f 772 766 768
f 774 771 775
f 774 769 771
f 776 773 777
f 776 772 773
f 778 775 779
f 778 774 775
f 780 777 781
f 780 776 777
f 782 779 783
f 782 778 779
f 784 781 785
f 784 780 781
f 786 784 785
f 786 785 787
f 788 783 789
f 788 782 783
f 790 789 791
f 790 788 789
f 792 791 793
f 792 790 791
f 794 793 795
f 794 792 793
f 796 794 795
f 797 795 798
f 797 796 795
f 799 798 800
f 799 797 798
f 801 800 802
f 801 799 800
f 803 801 802
f 803 802 804
f 805 803 804
f 805 804 806
f 807 805 806
f 807 806 808
f 809 807 808
f 809 808 810
f 811 810 812
f 811 809 810
f 764 812 765
f 764 811 812
f 763 765 767
f 813 814 815
f 816 817 818
f 817 819 818
f 820 816 818
f 821 822 823
f 824 825 826
f 827 828 829
f 813 815 830
f 818 819 831
f 813 830 832
f 813 832 833
f 834 835 833
f 835 813 833
f 834 833 836
f 837 829 838
f 829 828 838
f 821 823 839
f 836 833 840
f 841 842 843
f 844 845 843
f 845 846 843
f 846 839 843
f 842 844 843
f 847 837 848
f 840 833 849
f 837 838 848
f 826 825 850
f 826 850 851
f 852 847 853
f 854 826 851
f 847 848 853
f 855 854 856
f 854 851 856
f 855 856 857
f 849 858 859
f 858 860 859
f 861 855 857
f 860 862 859
f 859 862 863
f 862 864 863
f 864 865 863
f 852 853 866
f 859 863 867
f 849 859 840
f 839 823 843
f 868 869 842
f 869 844 842
f 831 870 871
f 870 872 871
f 818 831 871
f 872 852 873
f 821 874 875
f 874 876 875
f 852 866 873
f 876 877 875
f 877 878 875
f 878 879 875
f 880 821 875
f 879 881 875
f 871 872 873
f 881 882 875
f 882 883 875
f 883 861 875
f 821 880 884
f 866 885 813
f 885 886 813
f 886 887 813
f 887 888 813
f 821 884 822
f 873 866 813
f 861 857 820
f 875 861 820
f 857 816 820
f 813 888 814
f 889 890 891
f 889 891 892
f 893 889 892
f 894 895 896
f 893 892 897
f 898 893 897
f 899 896 900
f 898 897 901
f 899 894 896
f 902 898 901
f 903 900 904
f 902 901 905
f 903 899 900
f 906 902 905
f 906 905 907
f 908 904 909
f 908 903 904
f 910 906 907
f 910 907 911
f 912 909 913
f 912 908 909
f 914 911 915
f 914 910 911
f 916 913 917
f 916 912 913
f 918 916 917
f 919 917 920
f 919 918 917
f 921 920 922
f 921 919 920
f 923 922 924
f 923 921 922
f 925 924 926
f 925 923 924
f 927 926 928
f 927 925 926
f 929 927 928
f 929 928 930
f 931 929 930
f 931 930 932
f 933 931 932
f 933 932 934
f 935 933 934
f 935 934 936
f 937 935 936
f 937 936 938
f 890 937 938
f 890 938 891
f 939 940 941
f 942 943 944
f 939 941 945
f 946 947 948
f 949 942 950
f 951 949 950
f 952 946 953
f 954 951 955
f 946 948 956
f 951 950 955
f 953 946 956
f 957 958 959
f 950 942 960
f 958 961 959
f 956 948 962
f 942 944 963
f 961 964 965
f 954 955 966
f 959 961 965
f 962 948 967
f 968 957 969
f 957 959 969
f 970 954 966
f 967 948 971
f 960 942 972
f 973 968 974
f 968 969 974
f 942 963 975
f 972 942 976
f 965 964 977
f 942 975 978
f 979 980 981
f 976 942 978
f 977 964 982
f 970 966 983
f 971 979 981
f 973 974 984
f 981 980 985
f 986 970 983
f 986 983 987
f 981 985 988
f 987 983 989
f 971 948 979
f 945 990 939
f 981 988 991
f 992 993 991
f 964 994 995
f 993 996 991
f 996 997 991
f 997 981 991
f 982 964 995
f 992 991 998
f 995 994 999
f 998 991 1000
f 973 984 1001
f 1000 991 1002
f 994 949 1003
f 999 994 1003
f 1002 991 1004
f 1003 949 951
f 939 1005 1006
f 991 961 958
f 1004 991 958
f 1001 984 1007
f 1006 1008 1009
f 939 1006 1010
f 1006 1009 1010
f 939 1010 940
f 942 1011 1012
f 1011 1013 1012
f 1013 1014 1012
f 1014 990 1012
f 990 945 1012
f 942 1012 943
f 1015 1016 1017
f 1016 1018 1017
f 1019 1020 1021
f 1022 1023 1024
f 1023 1025 1024
f 1019 1021 1026
f 1024 1025 1027
f 1024 1027 1028
f 1028 1027 1029
f 1028 1029 1030
f 1031 1028 1030
f 1031 1030 1032
f 1033 1034 1035
f 1036 1033 1035
f 1037 1038 1039
f 1034 1037 1039
f 1031 1032 1040
f 1035 1034 1039
f 1041 1036 1042
f 1043 1031 1040
f 1044 1041 1042
f 1036 1035 1042
f 1043 1040 1045
f 1046 1047 1048
f 1047 1049 1048
f 1049 1050 1048
f 1050 1043 1048
f 1043 1045 1048
f 1019 1026 1051
f 1052 1053 1054
f 1026 1055 1051
f 1038 1052 1054
f 1055 1056 1051
f 1056 1057 1051
f 1039 1038 1054
f 1058 1044 1059
f 1060 1058 1059
f 1046 1048 1061
f 1057 1062 1061
f 1062 1063 1061
f 1063 1046 1061
f 1051 1057 1061
f 1044 1042 1059
f 1053 1064 1065
f 1054 1053 1065
f 1019 1060 1066
f 1060 1059 1066
f 1067 1068 1069
f 1064 1067 1069
f 1065 1064 1069
f 1019 1066 1020
f 1070 1023 1022
f 1068 1070 1022
f 1069 1068 1022
f 1071 1072 1073
f 1073 1072 1074
f 1072 1075 1074
f 1076 1077 1078
f 1077 1079 1078
f 1079 1080 1078
f 1081 1082 1083
f 1080 1084 1078
f 1084 1085 1078
f 1074 1075 1086
f 1075 1087 1086
f 1083 1082 1088
f 1076 1078 1089
f 1081 1083 1090
f 1086 1087 1091
f 1088 1082 1092
f 1081 1090 1093
f 1094 1076 1095
f 1076 1089 1095
f 1082 1085 1096
f 1087 1097 1098
f 1092 1082 1096
f 1091 1087 1098
f 1099 1081 1100
f 1081 1093 1100
f 1094 1095 1101
f 1098 1097 1102
f 1096 1085 1103
f 1104 1094 1105
f 1106 1099 1107
f 1108 1106 1107
f 1094 1101 1105
f 1102 1097 1109
f 1099 1100 1107
f 1097 1110 1109
f 1104 1105 1111
f 1103 1085 1112
f 1109 1110 1113
f 1114 1108 1115
f 1110 1104 1116
f 1117 1114 1115
f 1104 1111 1116
f 1108 1107 1115
f 1113 1110 1116
f 1112 1085 1084
f 1117 1115 1118
f 1117 1118 1119
f 1119 1118 1120
f 1118 1121 1120
f 1120 1121 1122
f 1122 1121 1071
f 1121 1072 1071
f 1123 1124 1125
f 1124 1126 1125
f 1126 1127 1125
f 1128 1129 1125
f 1129 1130 1125
f 1130 1131 1125
f 1131 1132 1125
f 1132 1133 1125
f 1128 1134 1135
f 1133 1123 1125
f 1128 1135 1136
f 1128 1136 1137
f 1138 1139 1140
f 1141 1138 1140
f 1142 1141 1140
f 1128 1137 1143
f 1128 1143 1129
f 1144 1142 1145
f 1146 1144 1145
f 1147 1146 1145
f 1148 1149 1150
f 1140 1148 1150
f 1151 1145 1152
f 1153 1150 1154
f 1155 1153 1154
f 1156 1152 1157
f 1158 1159 1154
f 1159 1160 1154
f 1160 1155 1154
f 1158 1154 1161
f 1162 1158 1161
f 1161 1154 1163
f 1164 1165 1166
f 1166 1165 1167
f 1168 1162 1169
f 1162 1161 1169
f 1163 1154 1170
f 1171 1168 1172
f 1168 1169 1172
f 1167 1165 1128
f 1173 1157 1128
f 1174 1173 1128
f 1165 1174 1128
f 1175 1167 1128
f 1170 1154 1176
f 1177 1175 1128
f 1142 1140 1128
f 1145 1142 1128
f 1152 1145 1128
f 1140 1150 1128
f 1157 1152 1128
f 1178 1171 1179
f 1171 1172 1179
f 1150 1180 1181
f 1182 1178 1183
f 1180 1150 1184
f 1178 1179 1183
f 1150 1181 1185
f 1133 1182 1123
f 1182 1183 1123
f 1184 1150 1153
f 1150 1185 1186
f 1128 1150 1186
f 1128 1186 1134
f 1187 1188 1189
f 1188 1190 1189
f 1191 1192 1193
f 1192 1194 1193
f 1194 1195 1193
f 1196 1197 1198
f 1199 1200 1193
f 1200 1201 1193
f 1201 1202 1193
f 1202 1203 1193
f 1195 1199 1193
f 1203 1197 1193
f 1198 1197 1204
f 1205 1206 1207
f 1204 1197 1208
f 1209 1210 1211
f 1212 1209 1211
f 1210 1205 1213
f 1205 1207 1213
f 1208 1197 1203
f 1214 1211 1215
f 1211 1210 1215
f 1216 1217 1218
f 1213 1216 1218
f 1210 1213 1218
f 1215 1210 1218
f 1219 1220 1221
f 1222 1223 1221
f 1218 1224 1225
f 1223 1226 1221
f 1226 1227 1221
f 1220 1222 1221
f 1227 1228 1229
f 1221 1227 1229
f 1230 1231 1232
f 1221 1229 1233
f 1228 1234 1235
f 1236 1237 1238
f 1232 1236 1238
f 1225 1230 1238
f 1229 1228 1235
f 1230 1232 1238
f 1215 1218 1238
f 1218 1225 1238
f 1221 1233 1239
f 1234 1240 1241
f 1215 1238 1197
f 1242 1243 1197
f 1235 1234 1241
f 1238 1242 1197
f 1219 1215 1197
f 1221 1239 1244
f 1240 1245 1246
f 1247 1219 1248
f 1219 1247 1249
f 1241 1240 1246
f 1245 1250 1251
f 1248 1219 1252
f 1219 1249 1220
f 1246 1245 1251
f 1250 1199 1195
f 1219 1197 1253
f 1252 1219 1253
f 1251 1250 1195
f 1253 1197 1254
f 1254 1197 1196
f 1255 455 1256
f 455 458 1257
f 1258 1259 460
f 1256 455 1257
f 459 1258 460
f 464 463 1260
f 463 503 1260
f 1258 459 467
f 503 499 1260
f 499 495 1260
f 495 1261 1260
f 460 1259 470
f 1257 458 1262
f 464 1260 1263
f 1258 467 473
f 475 464 1263
f 1262 458 1264
f 1259 1261 477
f 458 471 1264
f 470 1259 477
f 1265 1258 485
f 475 1263 1266
f 1264 471 1267
f 1258 473 485
f 484 475 1268
f 475 1266 1268
f 477 1261 487
f 1269 1265 490
f 1270 1269 490
f 471 481 1271
f 1265 485 490
f 1267 471 1271
f 484 1268 1272
f 487 1261 491
f 1271 481 1273
f 1274 1270 494
f 1275 1274 494
f 484 1272 1276
f 1270 490 494
f 486 484 1276
f 481 486 1277
f 1273 481 1277
f 491 1261 495
f 486 1276 1278
f 1277 486 1278
f 1279 1275 498
f 1275 494 498
f 498 502 1280
f 1279 498 1280
f 1280 502 1281
f 1281 502 1255
f 502 455 1255
f 1282 1283 1284
f 1285 1282 1284
f 1286 1287 1288
f 1289 1290 1291
f 1292 1289 1291
f 1293 1294 1291
f 1287 1286 1295
f 1290 1293 1291
f 1287 1292 1291
f 1291 1294 1296
f 1288 1287 1297
f 1284 1283 1298
f 1287 1295 1299
f 1283 1300 1298
f 1287 1301 1302
f 1291 1296 1303
f 1297 1287 1302
f 1300 1304 1305
f 1298 1300 1305
f 1291 1303 1306
f 1287 1299 1307
f 1302 1301 1308
f 1304 1309 1310
f 1287 1307 1292
f 1305 1304 1310
f 1291 1306 1311
f 1308 1301 1312
f 1310 1309 1313
f 1312 1301 1314
f 1291 1311 1315
f 1314 1301 1316
f 1291 1315 1317
f 1316 1301 1318
f 1318 1301 1319
f 1319 1301 1320
f 1309 1320 1321
f 1313 1309 1321
f 1322 1313 1321
f 1323 1322 1321
f 1324 1323 1321
f 1325 1324 1321
f 1326 1325 1321
f 1327 1326 1321
f 1328 1327 1321
f 1291 1317 1321
f 1317 1328 1321
f 1320 1301 1321
f 1329 1330 1331
f 1330 1332 1333
f 1331 1330 1333
f 1289 1329 1290
f 1329 1331 1290
f 1333 1332 1334
f 1332 1335 1334
f 1334 1335 1285
f 1335 1282 1285
f 1336 1337 542
f 1338 1336 542
f 535 1338 542
f 1339 541 545
f 1337 1340 546
f 542 1337 546
f 546 1340 1341
f 1339 545 549
f 546 1341 550
f 550 1341 1342
f 550 1342 1343
f 554 550 1343
f 554 1343 1344
f 1345 1346 508
f 1347 1345 508
f 506 554 1348
f 554 1344 1348
f 1349 1350 509
f 1346 1349 509
f 508 1346 509
f 506 1348 1351
f 1352 1347 517
f 1353 1352 517
f 538 537 1354
f 537 526 1354
f 526 515 1354
f 515 506 1354
f 1347 508 517
f 506 1351 1354
f 1339 549 1355
f 549 553 1355
f 553 511 1355
f 511 514 1355
f 1356 1357 521
f 538 1354 1358
f 1350 1356 521
f 514 522 1358
f 522 533 1358
f 533 538 1358
f 509 1350 521
f 1355 514 1358
f 1359 1353 524
f 1339 1359 524
f 1353 517 524
f 1360 1361 528
f 1357 1360 528
f 521 1357 528
f 1339 524 534
f 1362 1338 535
f 1361 1362 535
f 528 1361 535
f 1339 534 541
f 1363 1364 1365
f 1363 1365 1366
f 1367 1363 1368
f 1369 1367 1368
f 1363 1366 1368
f 1369 1368 1370
f 1371 1372 1373
f 1374 1371 1373
f 1375 1374 1376
f 1374 1373 1376
f 1377 1375 1378
f 1375 1376 1378
f 1379 1380 1381
f 1382 1379 1383
f 1379 1381 1383
f 1384 1382 1385
f 1382 1383 1385
f 1386 1384 1387
f 1384 1385 1387
f 1386 1387 1388
f 1389 1390 1391
f 1392 1389 1391
f 1393 1392 1394
f 1392 1391 1394
f 1395 1393 1396
f 1393 1394 1396
f 1397 1395 1398
f 1395 1396 1398
f 1399 1400 1401
f 1402 1399 1401
f 1403 1401 1404
f 1403 1402 1401
f 1405 1404 1406
f 1405 1403 1404
f 1407 1406 1408
f 1407 1405 1406
f 1409 1408 1410
f 1409 1407 1408
f 1411 1410 1412
f 1411 1409 1410
f 1413 1412 1414
f 1413 1411 1412
f 1415 1414 1416
f 1415 1413 1414
f 1417 1418 1419
f 1420 1419 1421
f 1420 1417 1419
f 1422 1421 1423
f 1422 1420 1421
f 1424 1423 1425
f 1424 1422 1423
f 1426 1425 1427
f 1426 1424 1425
f 1428 1427 1429
f 1428 1426 1427
f 1430 1429 1431
f 1430 1428 1429
f 1432 1431 1433
f 1432 1430 1431
f 1434 1432 1433
f 1435 1436 1437
f 1438 1437 1439
f 1438 1435 1437
f 1440 1439 1441
f 1440 1438 1439
f 1442 1440 1441
f 1443 1444 1445
f 1446 1445 1447
f 1446 1443 1445
f 1448 1447 1449
f 1448 1446 1447
f 1450 1448 1449
f 1451 1452 1453
f 1451 1453 1454
f 1455 1451 1456
f 1451 1454 1456
f 1455 1456 1457
f 1458 1459 1460
f 1461 1458 1460
f 1462 1461 1460
f 1455 1457 1463
f 1455 1463 1464
f 1455 1464 1465
f 1465 1466 1467
f 1455 1465 1467
f 1468 1462 1469
f 1470 1468 1469
f 1471 1470 1469
f 1472 1471 1469
f 1462 1460 1469
f 1473 1467 1474
f 1466 1472 1474
f 1467 1466 1474
f 1472 1469 1474
f 1475 1473 1476
f 1473 1474 1476
f 1477 1475 1478
f 1475 1476 1478
f 1479 1477 1480
f 1477 1478 1480
f 1479 1480 1481
f 1482 1483 1484
f 1485 1482 1486
f 1482 1484 1486
f 1487 1485 1488
f 1485 1486 1488
f 1489 1487 1490
f 1487 1488 1490
f 1489 1490 1491
f 1492 1489 1493
f 1492 1493 1494
f 1489 1491 1495
f 1493 1489 1495
f 1492 1494 1496
f 1492 1496 1497
f 1492 1497 1498
f 1499 1492 1500
f 1492 1498 1500
f 1499 1500 1501
f 1502 1495 1503
f 1504 1502 1503
f 1505 1504 1503
f 1506 1505 1503
f 1507 1506 1503
f 1495 1491 1503
f 1499 1501 1508
f 1509 1507 1510
f 1511 1509 1510
f 1512 1511 1510
f 1507 1503 1510
f 1513 1514 1515
f 1516 1513 1517
f 1513 1515 1517
f 1518 1516 1519
f 1516 1517 1519
f 1520 1518 1521
f 1518 1519 1521
f 1522 1520 1523
f 1520 1521 1523
f 1522 1523 1524
f 1525 1522 1526
f 1522 1524 1526
f 1527 1528 1529
f 1530 1527 1529
f 1531 1530 1532
f 1530 1529 1532
f 1533 1531 1534
f 1531 1532 1534
f 1535 1533 1536
f 1533 1534 1536
f 1537 1535 1538
f 1535 1536 1538
f 1539 1537 1540
f 1537 1538 1540
f 1541 1542 1543
f 1544 1545 1542
f 1546 1541 1547
f 1546 1547 1548
f 1549 1550 1544
f 1551 1546 1552
f 1551 1542 1541
f 1551 1541 1546
f 1553 1554 1555
f 1553 1555 1549
f 1553 1551 1556
f 1553 1544 1542
f 1553 1549 1544
f 1553 1542 1551
f 1557 1558 1554
f 1559 1553 1560
f 1559 1554 1553
f 1561 1562 1557
f 1563 1557 1554
f 1563 1561 1557
f 1563 1554 1559
f 1564 1565 1561
f 1564 1561 1563
f 1566 1567 1568
f 1569 1570 1571
f 1572 1573 1574
f 1572 1575 1573
f 1576 1567 1566
f 1577 1569 1571
f 1578 1579 1570
f 1578 1570 1569
f 1580 1576 1566
f 1581 1572 1574
f 1582 1572 1581
f 1583 1571 1584
f 1585 1576 1580
f 1583 1577 1571
f 1586 1587 1579
f 1588 1582 1581
f 1586 1579 1578
f 1589 1585 1580
f 1590 1583 1584
f 1591 1582 1588
f 1592 1583 1590
f 1593 1591 1588
f 1594 1595 1587
f 1594 1587 1586
f 1596 1597 1585
f 1596 1585 1589
f 1598 1592 1590
f 1599 1593 1597
f 1599 1597 1596
f 1599 1591 1593
f 1600 1592 1598
f 1601 1595 1594
f 1602 1601 1594
f 1603 1598 1604
f 1603 1600 1598
f 1605 1606 1601
f 1605 1601 1602
f 1607 1603 1604
f 1608 1603 1607
f 1609 1610 1606
f 1609 1606 1605
f 1611 1612 1608
f 1611 1608 1607
f 1613 1610 1609
f 1614 1610 1613
f 1568 1612 1611
f 1615 1568 1611
f 1573 1614 1613
f 1575 1614 1573
f 1566 1568 1615
f 1616 1617 1618
f 1619 1620 1621
f 1622 1618 1620
f 1622 1620 1619
f 1623 1624 1616
f 1623 1616 1618
f 1623 1618 1622
f 1625 1626 1627
f 1625 1622 1626
f 1628 1629 1623
f 1628 1630 1629
f 1628 1623 1622
f 1631 1622 1625
f 1632 1631 1633
f 1632 1622 1631
f 1634 1635 1636
f 1637 1636 1628
f 1637 1628 1622
f 1637 1634 1636
f 1637 1622 1632
f 1638 1634 1637
f 1639 1637 1640
f 1639 1638 1637
f 1641 1642 1643
f 1644 1645 1646
f 1644 1646 1647
f 1648 1642 1641
f 1649 1641 1643
f 1650 1644 1647
f 1651 1641 1649
f 1652 1653 1654
f 1655 1656 1642
f 1652 1654 1657
f 1655 1642 1648
f 1658 1644 1650
f 1659 1651 1649
f 1660 1653 1652
f 1661 1651 1659
f 1662 1656 1655
f 1663 1658 1650
f 1664 1662 1655
f 1665 1661 1659
f 1666 1660 1652
f 1667 1658 1663
f 1668 1661 1665
f 1669 1670 1660
f 1669 1663 1670
f 1669 1660 1666
f 1671 1662 1664
f 1669 1667 1663
f 1672 1671 1664
f 1673 1665 1674
f 1673 1668 1665
f 1675 1676 1671
f 1675 1671 1672
f 1677 1673 1674
f 1678 1673 1677
f 1679 1680 1676
f 1679 1676 1675
f 1681 1682 1678
f 1681 1678 1677
f 1683 1679 1684
f 1683 1680 1679
f 1685 1682 1681
f 1685 1686 1682
f 1687 1683 1684
f 1687 1684 1688
f 1689 1686 1685
f 1689 1690 1686
f 1645 1687 1688
f 1645 1688 1646
f 1654 1690 1689
f 1657 1654 1689

